<svg width="25" height="16" viewBox="0 0 25 16" fill="none" xmlns="http://www.w3.org/2000/svg">
<path opacity="0.3" d="M6.78 15.24C5.63333 15.24 4.60667 14.96 3.7 14.4C2.79333 13.8267 2.08 13 1.56 11.92C1.04 10.84 0.78 9.53333 0.78 8C0.78 6.46667 1.04 5.16 1.56 4.08C2.08 3 2.79333 2.18 3.7 1.62C4.60667 1.04667 5.63333 0.76 6.78 0.76C7.94 0.76 8.96667 1.04667 9.86 1.62C10.7667 2.18 11.48 3 12 4.08C12.52 5.16 12.78 6.46667 12.78 8C12.78 9.53333 12.52 10.84 12 11.92C11.48 13 10.7667 13.8267 9.86 14.4C8.96667 14.96 7.94 15.24 6.78 15.24ZM6.78 12.5C7.32667 12.5 7.8 12.3467 8.2 12.04C8.61333 11.7333 8.93333 11.2467 9.16 10.58C9.4 9.91333 9.52 9.05333 9.52 8C9.52 6.94667 9.4 6.08667 9.16 5.42C8.93333 4.75333 8.61333 4.26667 8.2 3.96C7.8 3.65333 7.32667 3.5 6.78 3.5C6.24667 3.5 5.77333 3.65333 5.36 3.96C4.96 4.26667 4.64 4.75333 4.4 5.42C4.17333 6.08667 4.06 6.94667 4.06 8C4.06 9.05333 4.17333 9.91333 4.4 10.58C4.64 11.2467 4.96 11.7333 5.36 12.04C5.77333 12.3467 6.24667 12.5 6.78 12.5ZM14.1561 15V12.9L19.5561 7.8C19.9828 7.41333 20.2961 7.06667 20.4961 6.76C20.6961 6.45333 20.8294 6.17333 20.8961 5.92C20.9761 5.66667 21.0161 5.43333 21.0161 5.22C21.0161 4.66 20.8228 4.23333 20.4361 3.94C20.0628 3.63333 19.5094 3.48 18.7761 3.48C18.1894 3.48 17.6428 3.59333 17.1361 3.82C16.6428 4.04667 16.2228 4.4 15.8761 4.88L13.5161 3.36C14.0494 2.56 14.7961 1.92667 15.7561 1.46C16.7161 0.993333 17.8228 0.76 19.0761 0.76C20.1161 0.76 21.0228 0.933333 21.7961 1.28C22.5828 1.61333 23.1894 2.08667 23.6161 2.7C24.0561 3.31333 24.2761 4.04667 24.2761 4.9C24.2761 5.35333 24.2161 5.80667 24.0961 6.26C23.9894 6.7 23.7628 7.16667 23.4161 7.66C23.0828 8.15333 22.5894 8.70667 21.9361 9.32L17.4561 13.54L16.8361 12.36H24.7361V15H14.1561Z" fill="#AB49AD"/>
</svg>
