<svg width="25" height="16" viewBox="0 0 25 16" fill="none" xmlns="http://www.w3.org/2000/svg">
<path opacity="0.3" d="M6.78 15.24C5.63333 15.24 4.60667 14.96 3.7 14.4C2.79333 13.8267 2.08 13 1.56 11.92C1.04 10.84 0.78 9.53333 0.78 8C0.78 6.46667 1.04 5.16 1.56 4.08C2.08 3 2.79333 2.18 3.7 1.62C4.60667 1.04667 5.63333 0.76 6.78 0.76C7.94 0.76 8.96667 1.04667 9.86 1.62C10.7667 2.18 11.48 3 12 4.08C12.52 5.16 12.78 6.46667 12.78 8C12.78 9.53333 12.52 10.84 12 11.92C11.48 13 10.7667 13.8267 9.86 14.4C8.96667 14.96 7.94 15.24 6.78 15.24ZM6.78 12.5C7.32667 12.5 7.8 12.3467 8.2 12.04C8.61333 11.7333 8.93333 11.2467 9.16 10.58C9.4 9.91333 9.52 9.05333 9.52 8C9.52 6.94667 9.4 6.08667 9.16 5.42C8.93333 4.75333 8.61333 4.26667 8.2 3.96C7.8 3.65333 7.32667 3.5 6.78 3.5C6.24667 3.5 5.77333 3.65333 5.36 3.96C4.96 4.26667 4.64 4.75333 4.4 5.42C4.17333 6.08667 4.06 6.94667 4.06 8C4.06 9.05333 4.17333 9.91333 4.4 10.58C4.64 11.2467 4.96 11.7333 5.36 12.04C5.77333 12.3467 6.24667 12.5 6.78 12.5ZM18.6989 15.24C17.7256 15.24 16.7589 15.1133 15.7989 14.86C14.8389 14.5933 14.0256 14.22 13.3589 13.74L14.6189 11.26C15.1522 11.6467 15.7722 11.9533 16.4789 12.18C17.1856 12.4067 17.8989 12.52 18.6189 12.52C19.4322 12.52 20.0722 12.36 20.5389 12.04C21.0056 11.72 21.2389 11.28 21.2389 10.72C21.2389 10.1867 21.0322 9.76667 20.6189 9.46C20.2056 9.15333 19.5389 9 18.6189 9H17.1389V6.86L21.0389 2.44L21.3989 3.6H14.0589V0.999999H23.8589V3.1L19.9789 7.52L18.3389 6.58H19.2789C20.9989 6.58 22.2989 6.96667 23.1789 7.74C24.0589 8.51333 24.4989 9.50667 24.4989 10.72C24.4989 11.5067 24.2922 12.2467 23.8789 12.94C23.4656 13.62 22.8322 14.1733 21.9789 14.6C21.1256 15.0267 20.0322 15.24 18.6989 15.24Z" fill="#AB49AD"/>
</svg>
