<svg width="27" height="25" viewBox="0 0 27 25" fill="none" xmlns="http://www.w3.org/2000/svg">
<path d="M0 3.72412L3.35082 3.72412L3.35082 7.07494L-1.06476e-07 7.07494L0 3.72412Z" fill="#FD9C4A"/>
<path d="M7.53931 21.3159L10.8901 21.3159L10.8901 24.6667L7.53931 24.6667L7.53931 21.3159Z" fill="#FF6E9B"/>
<path fill-rule="evenodd" clip-rule="evenodd" d="M4.87939 1.58669L4.87955 1.55785L4.87939 1.55785L4.87939 0L6.41936 4.89341e-08L6.41936 0.0242769C6.5679 0.00807368 6.72752 5.87263e-08 6.89834 6.41545e-08L15.4789 3.36811e-07C22.5812 5.62497e-07 26.4389 2.7695 26.4389 9.34708C26.4389 16.3574 22.6173 19.4731 15.4789 19.4731L11.2651 19.4731L11.2651 16.0799C11.2651 15.7406 11.4292 15.5993 11.7301 15.5993L17.4742 15.5993C21.7959 15.5993 23.4097 12.4893 23.4097 9.6056C23.4097 6.55222 21.6318 3.89465 17.4742 3.89465L8.01011 3.89465L8.01011 7.23075L17.6109 7.23075C19.3615 7.23075 20.1547 8.3899 20.1547 9.77523C20.1547 11.104 19.4162 12.4045 17.5836 12.4045L10.9369 12.4045C8.91275 12.4045 8.03746 13.281 8.03746 15.4296L8.03746 19.4731L6.89834 19.4731L6.86386 19.473L4.87945 19.473L4.87945 17.9027L4.87939 17.8864L4.87939 1.58669ZM8.03746 19.4731L8.03746 19.4731L11.2651 19.4731L11.2651 19.4731L8.03746 19.4731Z" fill="url(#paint0_linear_481_11)"/>
<defs>
<linearGradient id="paint0_linear_481_11" x1="2.32766" y1="4.04026" x2="23.1669" y2="22.753" gradientUnits="userSpaceOnUse">
<stop offset="0.0572737" stop-color="#FDAB2F"/>
<stop offset="0.510417" stop-color="#FF629A" stop-opacity="0.94"/>
<stop offset="1" stop-color="#7C0DEB"/>
</linearGradient>
</defs>
</svg>
