<svg width="1920" height="1596" viewBox="0 0 1920 1596" fill="none" xmlns="http://www.w3.org/2000/svg">
<path d="M1946.77 -987.655C1942.54 -937.543 1884.83 -910.68 1849.97 -893.058C1815.12 -875.437 1777.21 -878.226 1741.31 -886.421C1649.12 -907.468 1564.15 -962.729 1475.3 -1000.29C1386.45 -1037.85 1286.92 -1056.35 1199.14 -1004.75C1062.05 -924.134 1000.91 -708.561 940.435 -521.686C924.585 -472.79 906.646 -422.31 875.55 -389.609C835.69 -347.667 780.901 -343.196 733.926 -360.792C686.952 -378.387 645.773 -415.228 604.776 -450.282C472.831 -563.223 328.486 -665.877 170.289 -671.962C12.0925 -678.047 -226.546 -547.975 -335.081 -204.64" stroke="url(#paint0_linear_1_230)" stroke-width="0.71" stroke-miterlimit="10"/>
<path d="M1916.5 -991.846C1912.21 -941.802 1881.32 -899.939 1846.44 -882.351C1811.56 -864.763 1773.61 -867.344 1737.81 -875.404C1645.59 -896.485 1560.62 -951.746 1471.77 -989.306C1382.93 -1026.87 1283.39 -1045.37 1195.61 -993.765C1058.42 -913.286 997.327 -697.784 936.728 -510.939C920.904 -462.009 902.963 -411.598 871.842 -378.862C831.885 -336.71 777.219 -332.415 730.219 -350.045C683.219 -367.674 642.092 -404.447 601.095 -439.501C469.124 -552.476 324.779 -655.129 166.582 -661.215C8.38547 -667.3 -230.253 -537.228 -338.788 -193.893" stroke="url(#paint1_linear_1_230)" stroke-width="0.71" stroke-miterlimit="10"/>
<path opacity="0.98" d="M-342.275 -206.19C-278.949 -395.741 -172.269 -513.952 -62.3075 -578.707C16.1656 -624.88 96.0871 -643.767 162.735 -640.034C223.775 -636.079 284.136 -620.75 342.145 -594.472C364.696 -584.438 386.656 -573.558 408.635 -561.576C459.459 -533.155 508.959 -500.49 556.854 -463.767C570.777 -453.228 584.527 -442.534 598.103 -431.686C626.615 -409.02 655.424 -385.227 686.035 -368.04C698.603 -360.857 711.571 -355.059 724.814 -350.7C747.641 -343.371 771.207 -341.35 794.525 -344.721C820.518 -348.583 845.466 -359.064 866.314 -379.41C874.197 -387.22 881.43 -396.189 887.884 -406.154C906.38 -434.352 919.316 -469.403 931.209 -503.525C943.102 -537.647 954.829 -572.66 967.134 -607.726C998.554 -696.79 1033.67 -784.937 1082.05 -854.758C1112.97 -900.63 1150.63 -937.055 1192.55 -961.648C1220.68 -977.551 1250.34 -987.752 1280.62 -991.928C1343.97 -1001.26 1408.7 -987.294 1468.66 -964.943C1529.15 -942.436 1587.72 -911.734 1648.5 -888.582C1676.53 -877.68 1705.05 -869.196 1733.86 -863.181C1769.9 -855.956 1808.04 -853.933 1843.22 -871.668C1878.4 -889.403 1909.71 -930.521 1915.09 -979.945" stroke="url(#paint2_linear_1_230)" stroke-width="0.71" stroke-miterlimit="10"/>
<path opacity="0.95" d="M-347.123 -214.135C-283.744 -393.176 -177.91 -501.916 -67.9266 -560.915C10.3406 -602.911 90.2516 -619.453 157.575 -614.501C218.957 -609.534 279.651 -594.186 338.273 -568.809C360.99 -559.366 383.325 -548.67 405.138 -537.578C455.621 -511.605 504.976 -481.707 552.964 -448.03C566.686 -438.472 580.26 -428.703 593.634 -418.859C621.682 -398.281 649.823 -376.707 679.745 -361.497C692.102 -355.08 704.823 -350.056 717.779 -346.477C740.615 -340.541 763.979 -339.392 787.068 -343.07C813.26 -347.076 838.353 -356.424 859.076 -375.249C866.902 -382.389 874.115 -390.712 880.578 -400.062C898.955 -426.394 912.029 -459.244 923.977 -491.61C935.925 -523.976 947.742 -556.648 960.135 -589.579C991.747 -673.273 1027.01 -755.979 1076.16 -822.103C1129.8 -897.089 1200.74 -944.436 1276.97 -956.138C1340.53 -966.748 1404.71 -955.664 1464.26 -936.402C1524.27 -916.878 1582.35 -889.573 1643.06 -869.072C1671.23 -859.339 1699.79 -851.838 1728.6 -846.607C1764.77 -840.419 1803.1 -839.092 1838.53 -856.835C1873.97 -874.578 1905.73 -915.159 1912.04 -963.579" stroke="url(#paint3_linear_1_230)" stroke-width="0.7" stroke-miterlimit="10"/>
<path opacity="0.93" d="M-353.237 -218.006C-289.805 -386.537 -184.818 -485.806 -74.9145 -539.185C3.12214 -576.968 83.0251 -591.029 151.046 -585.1C212.779 -578.971 273.837 -563.629 333.131 -539.348C355.969 -530.219 378.546 -520.082 400.624 -509.723C450.618 -486.272 499.691 -459.296 547.645 -428.903C561.236 -420.146 574.583 -411.392 587.686 -402.642C615.449 -383.985 643.048 -364.669 672.258 -351.332C684.392 -345.694 696.847 -341.445 709.496 -338.63C732.334 -334.077 755.517 -333.773 778.414 -337.727C804.83 -341.913 829.968 -350.125 850.667 -367.364C858.43 -373.866 865.614 -381.578 872.075 -390.346C890.308 -414.779 903.417 -445.562 915.257 -475.443C927.096 -505.324 939.168 -536.315 951.672 -567.147C983.425 -645.537 1018.98 -722.601 1068.89 -785.44C1102.09 -827.725 1140.68 -861.306 1182.76 -884.51C1211.46 -899.896 1241.44 -910.425 1272.02 -915.861C1335.83 -927.754 1399.58 -919.38 1458.62 -903.341C1518.16 -886.87 1575.72 -862.995 1636.39 -845.043C1664.69 -836.5 1693.3 -830.004 1722.1 -825.582C1758.58 -820.473 1797.15 -819.773 1832.84 -837.593C1868.52 -855.413 1900.78 -895.355 1908.11 -942.98" stroke="url(#paint4_linear_1_230)" stroke-width="0.69" stroke-miterlimit="10"/>
<path opacity="0.9" d="M-360.6 -218.186C-297.114 -376.206 -193.049 -465.967 -82.9447 -513.493C-5.38942 -546.987 74.7796 -558.748 143.451 -551.633C205.533 -544.582 266.965 -529.261 326.871 -505.889C349.929 -497.146 372.749 -487.569 394.842 -477.796C447.398 -455.071 495.631 -431.656 541.317 -405.368C554.653 -397.751 567.815 -389.98 580.804 -382.053C608.078 -365.449 635.135 -348.321 663.682 -336.928C675.593 -332.045 687.784 -328.548 700.126 -326.475C722.928 -323.394 745.915 -323.954 768.622 -328.143C795.287 -332.544 820.496 -339.518 841.146 -355.204C848.816 -361.097 855.967 -368.171 862.46 -376.288C880.599 -398.891 893.744 -427.538 905.792 -455.53C917.84 -483.522 929.851 -512.236 942.415 -540.969C974.261 -613.916 1010.14 -685.578 1060.84 -744.892C1095.13 -785.249 1134.18 -817.345 1176.33 -839.81C1205.33 -855.132 1235.48 -866 1266.23 -872.215C1330.25 -885.39 1393.52 -879.999 1452.11 -866.91C1510.7 -853.821 1568.24 -833.012 1628.89 -817.645C1656.78 -810.677 1685.31 -804.625 1714.76 -801.221C1751.2 -796.973 1789.88 -797.001 1825.87 -814.899C1861.85 -832.798 1894.5 -872.097 1902.9 -918.86" stroke="url(#paint5_linear_1_230)" stroke-width="0.69" stroke-miterlimit="10"/>
<path opacity="0.88" d="M-369.215 -215.014C-305.701 -362.489 -202.532 -442.778 -92.3825 -484.653C-18.6603 -512.83 58.0992 -523.141 134.421 -515.12C196.842 -507.013 258.649 -491.69 319.178 -469.315C342.432 -460.923 365.47 -451.87 387.798 -443.07C440.724 -422.286 488.702 -402.034 533.597 -379.271C546.765 -372.591 559.726 -365.778 572.48 -358.833C599.192 -344.175 625.904 -329.517 653.788 -320.067C665.433 -315.892 677.319 -313.088 689.315 -311.688C712.068 -310.064 734.884 -311.461 757.44 -315.861C784.329 -320.441 809.608 -326.245 830.209 -340.379C837.843 -345.656 844.991 -352.155 851.502 -359.739C869.573 -380.409 882.779 -406.956 894.887 -432.916C906.995 -458.876 919.143 -485.458 931.768 -512.09C963.855 -579.806 999.702 -645.712 1051.37 -701.61C1086.68 -740.024 1126.12 -770.732 1168.29 -792.644C1197.59 -807.503 1227.89 -818.364 1258.74 -825.067C1323.02 -839.526 1385.79 -837.013 1443.95 -826.978C1502.11 -816.943 1559.16 -799.393 1619.72 -786.642C1647.61 -780.88 1676.23 -775.865 1705.78 -773.189C1742.38 -769.945 1781.23 -770.633 1817.47 -788.609C1853.7 -806.585 1886.69 -845.446 1896.27 -891.144" stroke="url(#paint6_linear_1_230)" stroke-width="0.68" stroke-miterlimit="10"/>
<path opacity="0.85" d="M-379.089 -208.772C-315.52 -345.666 -213.252 -416.69 -102.949 -452.573C-28.6022 -476.997 48.1599 -484.673 124.314 -475.299C187.098 -466.191 249.317 -450.875 310.483 -429.471C333.931 -421.499 357.162 -412.934 379.652 -405.001C432.899 -386.089 480.568 -369.136 524.828 -349.627C537.83 -343.884 550.597 -338.064 563.131 -332.168C589.528 -319.741 615.503 -306.921 642.649 -299.377C654.142 -296.091 665.818 -294.146 677.552 -293.563C700.237 -293.389 722.898 -295.61 745.333 -300.206C772.544 -305.107 797.771 -309.565 818.323 -322.146C825.837 -326.781 832.927 -332.606 839.448 -339.502C857.451 -358.24 870.667 -382.754 882.86 -406.649C895.054 -430.544 907.264 -454.956 919.95 -479.487C952.178 -541.9 988.344 -602.405 1040.71 -654.638C1077.06 -691.009 1116.93 -720.284 1159.18 -741.619C1188.77 -756.275 1219.25 -767.328 1250.26 -774.649C1311.18 -788.849 1373.21 -791.918 1434.73 -783.774C1492.84 -776.77 1548.9 -762.739 1609.43 -752.572C1637.31 -748.051 1666.01 -744.003 1695.7 -742.09C1732.44 -739.815 1771.48 -741.199 1807.99 -759.218C1844.5 -777.237 1878.03 -815.323 1888.5 -860.463" stroke="url(#paint7_linear_1_230)" stroke-width="0.68" stroke-miterlimit="10"/>
<path opacity="0.83" d="M-390.227 -199.869C-326.631 -326.287 -225.408 -387.696 -114.884 -417.968C-39.961 -438.514 36.7917 -443.577 112.813 -432.987C175.948 -422.885 238.58 -407.585 300.368 -387.169C324.037 -379.514 347.461 -371.507 370.088 -364.336C423.655 -347.364 470.992 -333.675 514.692 -317.457C527.525 -312.696 540.091 -307.835 552.391 -302.874C578.324 -292.534 603.782 -281.938 630.24 -276.303C641.515 -273.808 652.926 -272.639 664.348 -272.807C684.277 -273.133 707.109 -277.618 731.707 -282.022C758.943 -286.889 784.388 -290.389 804.915 -301.453C812.341 -305.47 819.4 -310.658 825.948 -316.91C843.878 -333.922 857.133 -356.162 869.413 -377.992C881.692 -399.822 893.962 -422.134 906.735 -444.6C939.179 -501.677 975.588 -556.813 1028.72 -605.279C1066.09 -639.575 1106.4 -667.451 1148.75 -688.278C1178.64 -702.639 1209.28 -713.848 1240.42 -721.808C1300.96 -737.265 1362.63 -742.704 1424.12 -738.009C1481.74 -734.333 1537.37 -723.493 1597.83 -716.047C1625.69 -712.628 1654.4 -709.58 1684.23 -708.636C1721.22 -707.507 1760.3 -709.374 1797.12 -727.472C1833.93 -745.569 1867.97 -783.19 1879.41 -827.258" stroke="url(#paint8_linear_1_230)" stroke-width="0.67" stroke-miterlimit="10"/>
<path opacity="0.8" d="M-402.561 -188.619C-338.859 -304.39 -238.737 -356.457 -127.962 -380.878C-52.5012 -397.536 24.2712 -399.997 100.22 -388.193C163.985 -377.647 227.199 -360.949 289.111 -342.313C312.975 -335.078 336.567 -327.525 359.407 -321.222C413.269 -306.156 460.297 -295.765 503.361 -282.87C515.976 -279.068 528.367 -275.155 540.455 -271.232C565.95 -262.947 590.842 -254.504 616.663 -250.778C627.724 -249.138 638.866 -248.744 649.975 -249.601C669.455 -251.118 691.966 -256.696 716.938 -261.353C744.447 -266.47 769.913 -268.73 790.391 -278.241C797.725 -281.657 804.75 -286.206 811.33 -291.8C829.068 -306.842 842.432 -327.121 854.745 -346.952C867.058 -366.784 879.441 -386.929 892.275 -407.294C924.86 -459.068 961.391 -508.521 1015.36 -553.67C1053.71 -585.842 1094.48 -612.308 1136.95 -632.617C1167.11 -646.768 1197.92 -658.171 1229.19 -666.752C1289.45 -683.568 1350.86 -691.49 1412.36 -690.38C1469.6 -689.76 1524.7 -681.97 1585.04 -677.312C1612.95 -674.963 1641.71 -673.124 1671.56 -672.904C1708.49 -672.187 1747.98 -675.066 1785.17 -693.348C1822.36 -711.63 1856.59 -748.326 1869.21 -791.742" stroke="url(#paint9_linear_1_230)" stroke-width="0.67" stroke-miterlimit="10"/>
<path opacity="0.78" d="M-416.12 -175.33C-352.393 -280.762 -253.317 -323.284 -142.291 -341.853C-66.364 -354.582 10.4211 -354.45 86.3244 -341.461C150.332 -329.993 214.103 -313.174 276.454 -295.38C300.514 -288.496 324.373 -281.537 347.301 -275.995C401.557 -262.906 448.329 -255.747 490.882 -246.144C503.346 -243.348 515.51 -240.45 527.372 -237.451C551.963 -230.533 576.852 -225.767 601.886 -223.181C612.738 -222.344 623.621 -222.715 634.429 -224.289C653.684 -227.178 675.851 -233.744 700.947 -238.509C728.704 -243.84 754.216 -244.895 774.645 -252.854C781.906 -255.647 788.908 -259.572 795.515 -264.549C813.159 -277.692 826.559 -295.836 839.035 -313.501C851.512 -331.167 863.981 -349.246 876.798 -367.612C912.937 -420.184 954.854 -464.721 1001.04 -499.618C1040.37 -529.613 1081.6 -554.703 1124.23 -574.583C1154.7 -588.48 1185.71 -600.044 1217.11 -609.221C1277.06 -627.26 1338.12 -637.551 1399.48 -639.959C1456.04 -642.453 1510.63 -638.3 1570.89 -636.225C1598.76 -635.218 1627.66 -634.279 1657.59 -634.821C1694.75 -635.558 1734.31 -638.888 1771.68 -657.141C1809.04 -675.394 1843.83 -711.625 1857.42 -754.039" stroke="url(#paint10_linear_1_230)" stroke-width="0.66" stroke-miterlimit="10"/>
<path opacity="0.76" d="M-430.936 -160.381C-367.126 -255.062 -269.181 -288.483 -157.854 -301.203C-81.5138 -309.9 -4.70758 -307.162 71.197 -293.036C135.576 -280.476 199.7 -263.669 262.811 -247.105C287.091 -240.607 311.168 -234.172 334.208 -229.427C388.786 -218.209 435.147 -214.415 476.939 -208.097C489.219 -206.214 501.19 -204.286 512.85 -202.315C536.981 -197.497 561.313 -194.785 585.696 -194.195C596.36 -194.133 607.011 -195.234 617.546 -197.487C636.453 -201.64 658.373 -209.336 683.743 -214.281C711.699 -219.826 737.23 -219.71 757.686 -226.084C764.804 -228.328 771.72 -231.635 778.31 -235.945C795.962 -247.123 809.322 -263.232 821.884 -278.832C834.446 -294.433 846.924 -310.478 859.88 -326.643C897.29 -373.986 939.548 -413.615 985.32 -444.28C1025.57 -471.989 1067.24 -495.677 1110 -515.157C1140.86 -529.17 1172.52 -540.451 1203.48 -550.297C1263.19 -569.57 1323.94 -582.273 1385.14 -588.284C1441.3 -593.867 1495.52 -593.15 1555.8 -593.419C1583.64 -593.583 1612.5 -593.505 1642.64 -594.983C1679.94 -596.69 1719.69 -600.716 1757.33 -619.012C1794.97 -637.308 1830.2 -672.968 1844.86 -714.657" stroke="url(#paint11_linear_1_230)" stroke-width="0.65" stroke-miterlimit="10"/>
<path opacity="0.73" d="M-447.093 -144.288C-383.333 -228.593 -286.436 -252.537 -174.73 -259.306C-98.0397 -264.002 -21.1972 -258.686 54.7548 -243.432C119.299 -230.05 184.155 -213.163 247.756 -197.442C272.23 -191.364 296.551 -185.419 319.728 -181.506C374.601 -172.193 420.629 -171.662 461.862 -168.566C474.009 -167.621 485.786 -166.664 497.194 -165.695C520.859 -163.013 544.624 -162.367 568.348 -163.761C578.771 -164.624 589.134 -166.545 599.349 -169.506C617.907 -174.923 639.607 -183.715 665.15 -188.839C693.305 -194.528 718.907 -193.242 739.314 -198.064C746.391 -199.731 753.322 -202.401 759.995 -206.03C777.476 -215.411 791 -229.285 803.571 -242.852C816.142 -256.419 828.882 -270.44 841.825 -284.398C874.935 -320.196 911.975 -353.087 968.418 -387.665C1009.51 -413.147 1051.6 -435.524 1094.5 -454.692C1125.66 -468.439 1157.62 -480.074 1188.47 -490.537C1248.04 -510.88 1308.53 -525.832 1369.54 -535.295C1425.31 -544.002 1478.87 -546.711 1539.26 -549.533C1567.08 -550.869 1596.12 -551.968 1626.23 -554.169C1663.63 -556.879 1703.55 -561.565 1741.49 -579.94C1779.43 -598.314 1815.1 -633.264 1830.86 -674.127" stroke="url(#paint12_linear_1_230)" stroke-width="0.65" stroke-miterlimit="10"/>
<path opacity="0.71" d="M-464.695 -127.182C-400.753 -200.809 -305.111 -215.614 -193.128 -216.498C-116.166 -217.179 -39.2918 -209.316 36.739 -192.984C101.629 -178.545 166.887 -161.74 231.178 -146.937C255.849 -141.141 280.362 -135.754 303.702 -132.638C358.92 -125.232 404.64 -128 445.212 -128.192L479.861 -128.436C503.149 -127.806 526.442 -129.217 549.599 -132.66C559.755 -134.331 569.814 -136.956 579.707 -140.514C597.94 -147.23 619.371 -157.048 645.087 -162.349C673.49 -168.253 699.161 -165.866 719.496 -169.031C726.484 -170.156 733.377 -172.188 740.083 -175.099C755.6 -182.452 770.274 -192.784 783.664 -205.786C796.402 -216.98 809.023 -229.067 822.125 -241.066C855.45 -271.667 892.611 -298.943 949.871 -329.963C986.105 -349.558 1029.4 -372.136 1077.53 -392.904C1108.98 -406.419 1140.94 -417.916 1172.17 -429.218C1231.56 -450.883 1291.72 -468.367 1352.41 -481.602C1407.63 -493.255 1460.81 -499.157 1521.15 -504.598C1548.98 -507.14 1578.08 -509.24 1608.3 -512.1C1645.86 -515.745 1685.92 -521.125 1724.16 -539.578C1762.4 -558.032 1798.41 -592.406 1815.19 -632.405" stroke="url(#paint13_linear_1_230)" stroke-width="0.64" stroke-miterlimit="10"/>
<path opacity="0.68" d="M-483.61 -110.241C-419.768 -173.49 -325.152 -178.99 -212.736 -173.719C-135.511 -170.336 -58.5375 -159.884 17.6666 -142.434C82.8493 -127.073 148.638 -110.181 213.415 -96.4281C238.232 -90.9815 263.011 -86.1885 286.464 -83.8692C342.027 -78.3696 387.413 -84.4707 427.298 -88.0524L461.421 -91.0023C484.165 -92.525 506.816 -96.0105 529.239 -101.438C539.202 -104.023 549.035 -107.48 558.675 -111.786C576.558 -119.767 597.769 -130.68 623.659 -136.159C652.285 -142.242 677.978 -138.616 698.312 -140.299C705.22 -140.863 712.078 -142.259 718.806 -144.468C734.055 -150.028 748.687 -158.366 762.311 -169.259C775.056 -178.558 787.867 -188.376 801.03 -198.274C834.472 -223.467 871.827 -245.305 929.855 -272.626C966.557 -289.928 1010.47 -311.216 1059.17 -331.45C1090.85 -344.662 1123.19 -356.551 1154.39 -368.3C1220.42 -393.12 1279.23 -413.091 1333.92 -427.933C1388.61 -442.775 1441.6 -452.014 1501.77 -460.172C1529.53 -464.021 1558.76 -467.022 1589.21 -470.855C1626.94 -475.505 1667.16 -481.544 1705.68 -500.041C1744.2 -518.538 1780.65 -552.34 1798.45 -591.545" stroke="url(#paint14_linear_1_230)" stroke-width="0.64" stroke-miterlimit="10"/>
<path opacity="0.66" d="M-504.138 -93.2488C-440.114 -145.819 -346.805 -142.248 -234.137 -131.056C-156.752 -123.643 -79.7072 -110.639 -3.32624 -92.0975C62.126 -75.7118 128.418 -58.8358 193.759 -46.0311C218.845 -41.0411 243.793 -36.7017 267.409 -35.1804C323.268 -31.5858 368.345 -40.9857 407.573 -47.5796C419.116 -49.5333 430.323 -51.4763 441.194 -53.4086C463.481 -56.9948 485.576 -62.5349 507.344 -69.9948C517.044 -73.4897 526.589 -77.7413 535.933 -82.7289C553.517 -91.9754 574.457 -103.983 600.546 -109.606C629.474 -115.768 655.109 -111.071 675.497 -111.136C682.331 -111.171 689.152 -111.954 695.896 -113.475C710.97 -117.188 725.652 -123.433 739.607 -132.069C752.412 -139.336 765.284 -147.054 778.534 -154.818C812.117 -174.708 849.641 -191.07 908.635 -214.976C945.778 -230.017 990.325 -249.809 1039.48 -269.782C1071.47 -282.728 1103.98 -294.794 1135.32 -307.168C1201.58 -333.512 1259.88 -356.362 1314.19 -374.259C1369.14 -392.105 1424.76 -405.834 1480.81 -415.386C1508.65 -420.341 1537.86 -424.444 1568.4 -429.037C1606.24 -434.691 1646.67 -441.392 1685.45 -459.965C1724.22 -478.539 1761.05 -511.837 1780 -550.01" stroke="url(#paint15_linear_1_230)" stroke-width="0.63" stroke-miterlimit="10"/>
<path opacity="0.63" d="M-526.184 -76.6919C-462.131 -118.716 -370.054 -106.11 -256.726 -88.7355C-183.422 -77.4601 -101.859 -62.1397 -25.786 -42.1982C40.0623 -24.7567 106.786 -7.72233 172.665 4.16911C197.24 9.10255 221.994 12.1789 246.816 13.384C302.995 15.0383 347.765 2.40835 386.506 -7.65103C397.846 -10.6323 408.86 -13.5687 419.445 -16.5259C441.261 -22.2445 462.79 -29.85 483.901 -39.2965C492.428 -43.2565 501.696 -48.0673 511.772 -54.248C529.031 -64.8628 549.727 -77.862 576.014 -83.6983C605.089 -90.0716 630.821 -84.1716 651.133 -82.7172C657.901 -82.2676 664.684 -82.4149 671.438 -83.1582C686.316 -85.1802 700.99 -89.4043 715.201 -95.7561C728.092 -100.958 741.051 -106.542 754.288 -112.099C788.038 -126.653 825.731 -137.54 885.541 -157.888C923.348 -170.985 968.621 -189.628 1018.17 -208.959C1050.38 -221.671 1083.14 -233.952 1114.57 -246.88C1181.16 -274.475 1238.94 -300.1 1292.72 -320.91C1347.12 -342.169 1402.41 -358.953 1458.28 -371.171C1486.12 -377.333 1515.39 -382.437 1546 -387.756C1583.97 -394.379 1624.65 -401.639 1663.61 -420.426C1702.58 -439.213 1740.01 -471.599 1759.96 -509.08" stroke="url(#paint16_linear_1_230)" stroke-width="0.63" stroke-miterlimit="10"/>
<path opacity="0.61" d="M-549.654 -60.8454C-485.547 -92.2904 -394.678 -70.6841 -281.17 -47.2151C-208.076 -31.9693 -126.292 -14.0712 -49.4658 7.19042C16.5735 25.4875 83.8757 42.469 150.368 53.3413C175.151 57.8941 200.114 60.378 225.119 60.7793C281.667 60.4916 326.153 44.4586 364.184 31.2509C375.341 27.3105 386.111 23.4053 396.495 19.5354C417.855 11.7366 438.827 2.07651 459.284 -9.38585C467.52 -14.1292 476.445 -19.8597 486.384 -26.6909C503.195 -38.4288 523.744 -52.6985 550.205 -58.6438C579.477 -65.2991 605.28 -58.1607 625.569 -55.1202C632.29 -54.1317 639.046 -53.6569 645.806 -53.6979C660.543 -53.95 675.23 -56.0916 689.674 -60.095C702.725 -63.2687 715.648 -66.6107 729.093 -70.2795C763.009 -79.4956 800.847 -84.8733 861.474 -101.663C899.551 -112.183 945.455 -129.33 995.458 -148.4C1027.65 -161.283 1060.83 -173.543 1092.3 -187.162C1158.98 -215.863 1216.26 -244.298 1269.71 -268.166C1323.57 -292.906 1378.57 -312.772 1434.35 -327.634C1462.17 -335.036 1491.53 -341.108 1522.19 -347.222C1560.32 -354.849 1601.09 -362.87 1640.41 -381.531C1679.74 -400.191 1717.5 -432.208 1738.54 -469" stroke="url(#paint17_linear_1_230)" stroke-width="0.62" stroke-miterlimit="10"/>
<path opacity="0.59" d="M-574.81 -46.3258C-510.625 -67.2956 -420.937 -36.6558 -307.144 -6.81962C-234.617 12.1321 -152.559 32.8132 -75.0308 55.3277C-8.57868 75.3349 58.5721 90.7237 126.163 101.435C151.148 105.688 176.315 107.614 201.49 107.2C258.335 105.077 302.437 85.7814 339.932 69.1787C350.938 64.278 361.531 59.3791 371.713 54.4817C392.568 44.6516 412.935 32.984 432.686 19.5522C440.632 14.0253 449.369 7.64601 458.991 -0.00231738C475.601 -13.2158 495.782 -28.3701 522.442 -34.4596C551.887 -41.3617 577.786 -33.02 598.076 -28.4285C605.667 -26.6716 612.361 -25.7477 618.194 -25.0721C632.789 -23.7471 647.435 -23.9033 662.013 -25.5396C675.075 -26.6111 688.284 -27.8942 701.614 -29.4914C735.747 -33.3722 773.703 -33.2736 835.223 -46.4724C873.717 -54.7661 920.324 -70.522 970.711 -89.2249C1003.49 -101.403 1036.7 -114.044 1068.33 -128.254C1135.24 -158.202 1192.02 -189.448 1245.06 -216.68C1298.37 -244.846 1353.07 -267.807 1408.76 -285.39C1436.61 -293.964 1466 -301.071 1496.81 -307.948C1535.07 -316.613 1576 -325.295 1615.62 -344.103C1655.25 -362.91 1693.42 -394.252 1715.42 -430.006" stroke="url(#paint18_linear_1_230)" stroke-width="0.61" stroke-miterlimit="10"/>
<path opacity="0.56" d="M-601.376 -33.2429C-537.112 -43.6685 -448.659 -4.13159 -334.408 31.8939C-262.345 54.6173 -180.038 78.0478 -101.835 101.782C-35.0642 122.773 32.5796 138.18 100.721 147.915C125.921 151.852 151.3 153.231 176.65 152.041C233.737 147.875 277.61 125.451 314.493 105.49C325.314 99.6765 335.698 93.8076 345.645 87.8837C366.061 75.8629 385.87 62.0013 404.943 46.3902C412.573 40.1152 421.093 32.8467 430.453 24.5174C446.738 10.0045 466.673 -6.21038 493.532 -12.513C523.124 -19.6266 549.093 -10.1152 569.386 -3.90385C576.936 -1.59421 583.642 0.018604 589.409 1.28217C603.934 4.30527 618.574 6.18568 633.257 6.91428C646.43 7.94157 659.597 8.62459 673.115 9.22726C707.389 10.6498 745.539 16.188 807.903 6.65016C846.888 0.615515 894.099 -13.7468 944.947 -32.0508C977.934 -44.0291 1011.46 -56.7827 1043.14 -71.6144C1110.27 -102.88 1166.55 -136.936 1219.18 -167.257C1271.82 -197.578 1321.8 -223.609 1381.67 -244.82C1409.44 -254.185 1439.14 -262.577 1469.98 -270.144C1508.37 -279.779 1549.47 -289.121 1589.4 -308.007C1629.32 -326.893 1667.91 -357.558 1690.93 -392.518" stroke="url(#paint19_linear_1_230)" stroke-width="0.61" stroke-miterlimit="10"/>
<path opacity="0.54" d="M-629.461 -22.0076C-565.168 -21.8875 -477.874 26.51 -363.263 68.8658C-291.517 95.1493 -209.136 121.507 -130.256 146.46C-63.1653 168.41 4.97745 183.834 73.6612 192.618C99.0489 196.223 124.608 197.01 150.089 194.971C207.525 189.106 251.086 163.176 287.334 139.961C297.988 133.165 308.203 126.29 317.981 119.337C337.984 105.318 357.273 89.4686 375.716 71.8966C383.081 64.8718 391.283 56.6484 400.48 47.7039C416.441 31.8916 436.107 14.6514 463.114 8.20621C493.058 1.01247 518.969 11.5251 539.136 19.257C546.752 22.4606 553.387 24.3859 559.092 26.3752C576.049 32.0726 589.808 34.9425 602.991 38.003C616.173 41.0635 629.503 43.9125 643.083 46.6157C677.524 53.3752 715.792 64.3897 778.997 58.375C818.425 54.601 866.314 41.5959 917.572 23.6924C950.944 12.1499 984.645 -0.850749 1016.41 -16.3057C1083.78 -48.8887 1139.53 -85.7195 1191.7 -119.266C1243.88 -152.812 1293.33 -182.031 1353.21 -205.655C1380.97 -216.571 1410.58 -225.753 1441.61 -234.222C1480.06 -244.927 1521.45 -254.83 1561.6 -273.827C1601.75 -292.823 1640.76 -322.744 1664.9 -356.912" stroke="url(#paint20_linear_1_230)" stroke-width="0.6" stroke-miterlimit="10"/>
<path opacity="0.51" d="M-659.02 -12.9652C-594.699 -2.29936 -508.565 54.8895 -393.617 103.68C-322.435 133.876 -239.831 162.949 -160.152 188.945C-92.7392 211.89 -24.0812 227.346 45.1521 235.163C70.7494 238.427 96.5058 238.644 122.13 235.809C179.96 227.898 223.089 198.777 258.752 172.306C269.204 164.528 279.202 156.695 288.745 148.808C308.309 132.72 327.042 114.814 344.813 95.2164L368.781 68.7055C384.366 51.5266 403.838 33.2931 431.044 26.6347C461.211 19.2615 487.166 30.9102 507.388 40.3292C514.856 43.7443 521.559 46.7013 527.249 49.2771C544.139 56.9756 557.882 61.8449 571.176 67.0043C584.47 72.1637 597.835 77.0797 611.476 81.8834C646.108 93.9446 684.495 110.435 748.567 107.978C788.585 106.322 837.03 94.8498 888.698 77.3469C922.323 66.1902 955.489 52.5915 988.055 36.6087C1055.62 2.74389 1110.87 -36.8283 1162.69 -73.4649C1213.94 -109.704 1263.38 -142.715 1323.01 -169.088C1350.83 -181.35 1380.44 -191.394 1411.56 -200.693C1450.23 -212.335 1491.7 -222.999 1532.16 -242.005C1572.61 -261.011 1612.08 -290.464 1637.21 -323.733" stroke="url(#paint21_linear_1_230)" stroke-width="0.6" stroke-miterlimit="10"/>
<path opacity="0.49" d="M-690.084 -6.42466C-625.684 14.7854 -540.737 80.7321 -425.428 135.922C-354.686 169.854 -271.833 201.677 -191.527 228.963C-123.802 252.884 -54.6304 268.361 15.1381 275.206C40.9581 278.134 66.9214 277.767 92.6916 274.11C150.843 264.328 193.662 231.907 228.617 202.289C238.875 193.517 248.706 184.725 258.005 175.846C277.139 157.672 295.325 137.698 312.43 116.068C319.189 107.512 326.961 97.7167 335.603 87.239C350.863 68.7607 370.09 49.4666 397.495 42.6641C427.836 35.113 453.86 47.8622 474.059 58.8674C481.538 62.9715 488.176 66.5166 493.826 69.714C510.648 79.3449 524.478 86.3484 537.831 93.4705C551.183 100.593 564.661 107.676 578.363 114.58C613.161 131.979 651.717 153.944 716.632 155.078C756.968 155.791 806.215 145.568 858.319 128.499C892.256 117.62 925.664 103.857 958.349 87.2917C1026.12 52.0763 1080.79 9.59302 1132.21 -29.9948C1182.95 -69.3198 1231.9 -105.727 1291.67 -134.552C1320.78 -148.258 1350.41 -159.822 1380.42 -169.196C1419.22 -181.808 1460.83 -193.165 1501.59 -212.25C1542.34 -231.335 1582.22 -260.18 1608.38 -292.655" stroke="url(#paint22_linear_1_230)" stroke-width="0.59" stroke-miterlimit="10"/>
<path opacity="0.46" d="M-722.607 -2.73335C-658.152 29.0561 -574.318 103.655 -458.696 165.383C-388.494 203.124 -305.319 237.59 -224.361 266.131C-156.536 290.127 -86.2803 307.393 -16.3346 312.399C9.70407 314.986 35.8658 314.047 61.7695 309.597C120.266 297.908 162.777 262.189 197.169 229.141C207.252 219.399 216.855 209.614 225.978 199.787C244.67 179.552 262.284 157.52 278.686 133.861C285.18 124.554 292.61 113.909 301.187 102.606C316.097 82.7944 335.105 62.4732 362.683 55.4928C393.248 47.7623 419.317 61.6477 439.493 74.308C446.931 78.9649 453.555 83.1653 459.165 86.9844C475.817 98.4129 489.785 107.618 503.148 116.842C516.511 126.066 530.151 135.247 543.914 144.252C578.904 166.952 617.603 194.358 683.362 199.154C724.164 202.091 774.064 193.261 826.577 176.524C860.796 165.909 894.415 151.959 927.178 134.781C995.181 98.3174 1049.45 53.1585 1100.41 10.2765C1150.6 -31.9949 1199.14 -71.9045 1258.83 -103.312C1287.89 -118.222 1317.57 -130.77 1347.71 -140.89C1386.7 -154.404 1428.45 -166.524 1469.48 -185.652C1510.51 -204.78 1550.6 -233.081 1577.97 -264.525" stroke="url(#paint23_linear_1_230)" stroke-width="0.58" stroke-miterlimit="10"/>
<path opacity="0.44" d="M-756.546 -2.23627C-692.063 40.099 -609.34 123.35 -493.43 191.652C-423.599 232.748 -340.296 270.278 -258.739 300.005C-190.621 324.922 -119.86 342.241 -49.326 346.264C-23.074 348.571 3.28276 347.072 29.304 341.791C88.0943 328.128 130.17 289.01 164.13 252.84C174.029 242.184 183.423 231.43 192.31 220.577C210.576 198.246 227.641 174.146 243.375 148.464C249.579 138.374 256.793 126.908 265.007 114.996C279.767 93.8454 298.331 72.5388 326.107 65.3453C356.895 57.4353 383.082 72.3511 403.161 86.7033C410.585 91.9466 417.195 96.8021 422.612 101.179C439.3 114.674 453.2 125.811 466.596 136.965C479.992 148.118 493.745 159.536 507.569 170.641C542.7 198.644 581.568 231.525 648.268 239.772C689.536 244.935 740.091 237.497 793.04 221.194C827.544 210.811 861.385 196.661 894.235 178.88C962.469 141.169 1016.24 93.1994 1066.79 47.0907C1116.6 1.69494 1164.57 -41.5745 1224.2 -75.5651C1253.26 -91.5189 1283.04 -104.891 1313.36 -115.599C1352.43 -130.149 1394.43 -142.829 1435.73 -162.069C1477.04 -181.309 1517.72 -208.974 1546.03 -239.656" stroke="url(#paint24_linear_1_230)" stroke-width="0.58" stroke-miterlimit="10"/>
<path opacity="0.41" d="M-792.007 -5.27542C-727.47 47.5703 -645.81 139.471 -529.661 214.349C-460.121 259.108 -376.719 299.461 -294.434 330.475C-226.022 356.382 -154.757 373.754 -83.5609 376.687C-57.0724 378.621 -30.5086 376.536 -4.35565 370.472C54.806 354.936 96.6506 312.62 129.822 273.063C139.578 261.412 148.753 249.677 157.448 237.853C175.284 213.442 191.786 187.273 206.819 159.556C212.758 148.717 219.706 136.432 227.681 123.804C241.864 101.293 260.41 78.953 288.411 71.6489C319.397 63.5258 345.555 79.6829 365.685 95.5156C373.043 101.347 379.615 106.962 385.17 111.989C401.765 127.452 415.674 140.623 429.233 153.942C442.792 167.261 456.555 180.712 470.387 193.782C505.66 227.157 544.67 265.411 612.017 277.6C653.776 284.953 704.961 279.012 758.345 263.074C793.135 252.923 827.199 238.572 860.136 220.19C928.575 181.197 981.844 130.486 1031.94 81.2901C1081.24 32.8086 1128.73 -13.8576 1188.31 -50.3972C1217.31 -67.7417 1247.16 -82.284 1277.64 -93.9174C1316.87 -109.472 1359.01 -122.845 1400.64 -142.2C1442.27 -161.554 1483.4 -188.44 1512.75 -218.156" stroke="url(#paint25_linear_1_230)" stroke-width="0.57" stroke-miterlimit="10"/>
<path opacity="0.39" d="M-828.921 -12.2318C-764.33 51.1933 -683.733 151.676 -567.346 233.129C-498.172 281.518 -414.57 324.76 -331.66 356.995C-262.954 383.823 -191.209 401.284 -119.523 403.374C-92.8033 404.962 -66.039 402.304 -39.7674 395.452C19.7151 378.045 61.2514 332.43 93.8114 289.515C103.375 276.94 112.357 264.211 120.834 251.429C138.215 224.963 154.127 196.76 168.438 167.054C174.112 155.464 180.793 142.292 188.53 129.017C202.387 105.137 220.714 81.7705 248.864 74.3238C280.098 65.986 306.275 83.2455 326.382 100.733C333.75 107.116 340.307 113.317 345.7 119.211C362.227 136.606 376.196 151.808 389.816 167.228C403.437 182.648 417.413 198.264 431.359 213.57C466.823 252.247 505.976 295.942 574.288 311.547C616.465 321.196 668.328 316.612 722.147 301.039C757.227 291.173 791.519 276.642 824.534 257.654C893.227 217.308 945.996 163.856 995.556 111.402C1044.4 59.9024 1091.4 9.7708 1150.95 -29.318C1179.87 -47.9805 1209.78 -63.6359 1240.42 -76.1516C1279.81 -92.7112 1322.11 -106.744 1363.97 -126.14C1405.82 -145.536 1447.51 -172.026 1477.76 -200.978" stroke="url(#paint26_linear_1_230)" stroke-width="0.57" stroke-miterlimit="10"/>
<path opacity="0.37" d="M-867.294 -23.4489C-802.649 50.4867 -723.065 159.549 -606.464 247.682C-537.682 299.668 -453.957 345.698 -370.368 379.289C-301.345 407.004 -229.119 424.552 -156.871 425.625C-129.861 426.957 -102.833 423.78 -76.3856 416.164C-16.5833 396.816 24.6201 347.938 56.5449 301.768C65.967 288.267 74.7552 274.545 83.0128 260.736C99.9886 232.145 115.369 201.849 129.023 170.104C134.381 157.698 140.822 143.74 148.294 129.715C161.801 104.503 179.909 80.1089 208.258 72.5179C239.716 64.0006 265.937 82.3961 286.021 101.47C292.698 107.781 299.139 114.546 305.319 121.741C321.752 141.035 335.783 158.337 349.463 175.789C363.143 193.24 377.129 210.889 391.16 228.26C426.765 272.241 466.087 321.41 535.243 340.676C577.86 352.517 630.428 349.324 684.656 334.152C720.023 324.518 754.543 309.783 787.639 290.196C856.512 248.603 908.805 192.375 958.036 136.864C1006.25 82.1792 1052.74 28.6173 1112.21 -13.0542C1141.05 -32.8289 1171.01 -49.4134 1201.79 -62.6487C1241.26 -80.1761 1283.78 -94.871 1325.96 -114.312C1368.15 -133.752 1410.07 -159.458 1441.34 -187.891" stroke="url(#paint27_linear_1_230)" stroke-width="0.56" stroke-miterlimit="10"/>
<path opacity="0.34" d="M-906.837 -39.6958C-842.113 44.784 -763.543 162.357 -646.752 257.136C-578.338 312.753 -494.463 361.604 -410.223 396.45C-340.881 425.12 -268.175 442.756 -195.364 442.88C-167.639 443.03 -139.908 440.559 -114.457 431.544C-54.3334 410.325 -13.464 358.114 17.876 308.689C27.0532 294.128 35.6998 279.479 43.6878 264.645C60.2939 233.94 75.1513 201.537 88.1292 167.721C93.7312 153.052 99.9073 138.807 106.63 125.047C119.736 98.5039 137.65 73.1167 166.173 65.348C197.855 56.6512 224.145 76.1474 244.181 96.8428C250.849 103.687 257.234 111.032 263.307 118.842C279.649 140.173 293.714 159.473 307.479 178.99C321.245 198.507 335.292 218.256 349.41 237.761C385.206 287.043 424.697 341.619 494.67 364.512C537.78 378.612 590.951 376.812 645.615 362.074C681.269 352.682 716.021 337.743 749.192 317.548C818.424 274.807 870.112 215.634 918.886 156.967C966.77 99.3626 1012.83 42.4023 1072.23 -1.85199C1100.99 -22.8133 1131 -40.4084 1161.93 -54.4489C1201.59 -72.9472 1244.29 -88.4064 1286.71 -107.82C1329.12 -127.233 1371.56 -152.472 1404 -179.84" stroke="url(#paint28_linear_1_230)" stroke-width="0.56" stroke-miterlimit="10"/>
<path opacity="0.32" d="M-945.684 -63.9967C-880.932 31.0289 -803.3 157.146 -686.395 258.607C-618.223 317.748 -534.323 369.528 -449.381 405.627C-379.797 435.219 -306.535 452.906 -233.161 452.082C-205.216 451.845 -177.317 448.852 -151.703 439.039C-91.2343 415.913 -50.6733 360.404 -20.0434 307.762C-11.1568 292.416 -2.6053 276.634 5.19057 260.875C21.3307 228.093 35.5978 193.656 47.8649 157.873C53.1286 142.426 59.0492 127.414 65.5963 112.914C78.3519 85.0379 96.1453 58.4825 124.767 50.6416C156.648 41.8006 183.008 62.3977 202.996 84.7145C209.724 92.165 216.106 100.18 222.106 108.714C238.354 131.943 252.48 153.344 266.331 174.926C280.182 196.508 294.364 218.251 308.494 239.928C344.354 294.412 384.089 354.495 454.906 381.049C498.433 397.445 552.23 396.866 607.381 382.63C643.393 373.407 678.444 358.19 711.752 337.32C781.11 293.127 832.329 231.521 880.516 169.53C927.843 108.773 973.513 48.4126 1032.85 1.64443C1061.52 -20.5223 1091.59 -39.1192 1122.7 -53.9215C1162.62 -73.2898 1205.47 -89.305 1248.2 -108.901C1290.94 -128.497 1333.77 -152.956 1367.24 -179.529" stroke="url(#paint29_linear_1_230)" stroke-width="0.55" stroke-miterlimit="10"/>
<path opacity="0.29" d="M-985.293 -94.5453C-920.488 10.9908 -843.795 145.582 -726.751 253.759C-658.92 316.495 -574.896 371.132 -489.401 408.626C-419.549 439.175 -345.782 456.916 -271.819 455.107C-243.704 454.486 -215.538 450.968 -189.811 440.359C-129.023 415.292 -88.8438 356.59 -58.7014 300.482C-49.884 284.036 -41.6243 267.401 -34.0464 250.684C-18.3345 215.804 -4.62438 179.31 6.96053 141.531C11.8877 125.292 17.5522 109.491 23.921 94.219C36.2758 65.011 53.6989 37.4336 82.6711 29.4436C114.801 20.3879 141.205 42.1207 161.17 66.0238C167.905 74.0945 174.256 82.7448 180.186 91.9218C196.316 117.085 210.502 140.586 224.438 164.164C238.374 187.743 252.57 211.795 266.835 235.467C302.964 295.423 342.764 360.776 414.425 390.991C458.442 409.509 512.946 410.527 568.406 396.625C604.633 387.741 639.855 372.411 673.174 351.027C742.861 305.376 793.702 240.853 841.612 175.872C888.535 112.163 933.566 48.3427 992.907 -1.04513C1021.52 -24.3732 1051.68 -43.9606 1082.99 -59.5476C1122.89 -80.0872 1165.92 -96.7979 1208.94 -116.437C1250.55 -134.817 1290.94 -157.989 1329.68 -185.707" stroke="url(#paint30_linear_1_230)" stroke-width="0.54" stroke-miterlimit="10"/>
<path opacity="0.27" d="M-1025.97 -131.401C-961.084 -15.3209 -885.304 127.778 -768.196 242.64C-700.633 308.934 -616.56 366.465 -530.24 405.036C-460.02 436.469 -385.823 454.299 -311.375 451.372C-283.064 450.4 -254.705 446.393 -228.841 434.953C-167.707 407.98 -127.787 345.907 -98.3045 286.581C-89.6633 269.164 -81.6465 251.583 -74.2541 233.838C-58.9529 196.866 -45.8076 158.3 -34.9405 118.501C-30.351 101.497 -24.9422 84.929 -18.7499 68.9042C-6.74544 38.3632 10.5112 9.89501 39.6041 1.59102C71.9573 -7.64418 98.431 15.1895 118.323 40.7492C125.095 49.4001 131.426 58.6754 137.27 68.5103C153.332 95.6053 167.431 121.35 181.674 146.676C195.917 172.003 209.977 198.438 224.303 224.209C260.573 289.469 300.567 360.262 373.046 394.105C417.606 414.948 472.713 417.291 528.631 403.72C565.146 395.076 600.607 379.538 633.995 357.551C703.814 310.793 754.154 243.46 801.582 175.358C848.102 108.698 892.594 41.3443 951.891 -10.5926C980.41 -35.113 1010.62 -55.737 1042.1 -72.1667C1082.04 -93.2591 1125.26 -110.596 1168.58 -130.314C1210.58 -148.813 1251.54 -171.5 1291.11 -198.193" stroke="url(#paint31_linear_1_230)" stroke-width="0.54" stroke-miterlimit="10"/>
<path opacity="0.24" d="M-1067.79 -174.735C-1002.85 -48.0756 -927.958 103.496 -810.76 225.076C-743.489 294.895 -659.341 355.352 -572.443 395.284C-501.93 427.638 -427.253 445.556 -352.114 441.781C-323.608 440.457 -295.006 435.891 -269.029 423.654C-207.55 394.775 -167.964 329.37 -139.117 266.789C-130.643 248.436 -122.819 229.885 -115.645 211.136C-100.762 172.068 -88.1738 131.444 -77.9993 89.6473C-73.7266 71.8888 -68.5832 54.5446 -62.6042 37.7325C-50.9513 5.78961 -33.8879 -23.6722 -4.62054 -32.0852C27.9307 -41.5335 54.4993 -17.5654 74.3435 9.61578C81.1102 18.84 87.3927 28.7057 93.1439 39.1394C109.089 68.2372 123.346 95.8724 137.581 123.681C151.816 151.489 166.03 179.608 180.418 207.48C216.88 278.11 256.919 354.485 330.339 391.779C375.288 414.747 431.101 418.619 487.455 405.412C524.249 396.993 559.94 381.234 593.388 358.64C663.386 310.566 713.275 240.49 760.168 169.062C806.182 99.3161 850.11 28.465 909.441 -25.92C937.853 -51.6655 968.143 -73.3077 999.823 -90.4984C1040.07 -112.876 1083.36 -131.007 1126.92 -150.802C1169.35 -169.512 1210.9 -191.764 1251.34 -217.432" stroke="url(#paint32_linear_1_230)" stroke-width="0.53" stroke-miterlimit="10"/>
<path opacity="0.22" d="M-1110.78 -224.788C-1045.81 -87.5827 -971.759 72.4599 -854.547 200.795C-782.837 278.021 -702.123 338.168 -615.796 378.71C-544.966 411.95 -469.782 429.99 -394.08 425.266C-365.379 423.523 -336.584 418.468 -310.42 405.398C-248.646 374.613 -209.393 305.945 -181.156 240.075C-172.867 220.716 -165.228 201.183 -158.239 181.475C-143.811 140.273 -131.798 97.57 -122.312 53.7683C-118.387 35.2422 -113.508 17.1192 -107.712 -0.464873C-96.4588 -33.6703 -79.5642 -64.1605 -50.0988 -72.7866C-17.4738 -82.3407 9.34096 -57.2431 29.0376 -28.3684C35.867 -18.5536 42.169 -8.07676 47.8943 2.98025C63.7202 33.943 78.0628 63.6435 92.2554 93.4176C106.448 123.192 120.902 153.509 135.399 183.411C172.028 259.309 212.332 340.949 286.473 382.08C331.913 407.238 388.356 412.537 445.17 399.73C482.25 391.583 518.186 375.637 551.699 352.456C621.952 303.099 671.393 230.349 717.88 155.831C763.438 82.9983 806.854 8.71689 866.092 -48.1468C894.373 -75.0483 924.682 -97.7267 956.498 -115.793C996.848 -139.311 1040.25 -158.171 1084.32 -177.982C1127.11 -196.787 1169.18 -218.513 1210.38 -243.078" stroke="url(#paint33_linear_1_230)" stroke-width="0.53" stroke-miterlimit="10"/>
<path opacity="0.2" d="M-1155.07 -281.794C-1090.05 -134.078 -1016.81 34.4686 -899.613 169.525C-828.544 250.277 -747.549 313.116 -660.404 355.111C-589.254 389.307 -513.616 407.401 -437.326 401.693C-408.404 399.632 -379.416 394.02 -353.09 380.152C-290.918 347.528 -252.051 275.46 -224.449 206.336C-216.345 186.018 -208.907 165.503 -202.137 144.791C-188.115 101.506 -176.65 56.7552 -167.851 10.9673C-164.241 -8.30228 -159.619 -27.1907 -154.022 -45.5506C-143.169 -80.0874 -126.444 -111.675 -96.8303 -120.444C-63.8315 -130.251 -37.1234 -104.013 -17.3763 -73.6573C-10.5783 -63.1534 -4.34054 -51.9953 1.28852 -40.2691C17.022 -7.33882 31.3998 24.4286 45.6781 56.2679C59.9564 88.1073 74.373 120.666 88.9805 152.598C125.851 233.865 166.298 320.877 241.257 365.636C287.164 393.019 344.26 399.711 401.484 387.304C438.876 379.45 475.083 363.325 508.686 339.56C579.144 288.921 628.057 213.327 674.164 135.755C719.242 59.8693 762.146 -17.8423 821.364 -77.3592C849.612 -105.393 880.042 -129.066 912.097 -147.946C952.558 -172.398 996.281 -191.784 1040.37 -211.769C1084.46 -231.753 1129.46 -253.11 1168.17 -275.472" stroke="url(#paint34_linear_1_230)" stroke-width="0.52" stroke-miterlimit="10"/>
<path opacity="0.17" d="M-1200.63 -346.172C-1135.55 -187.876 -1063.15 -10.8578 -945.913 130.918C-875.536 215.091 -794.312 280.605 -706.397 324.111C-634.955 359.228 -558.812 377.375 -481.958 370.718C-452.866 368.273 -423.61 362.136 -397.172 347.471C-334.732 312.839 -296.095 237.573 -269.104 165.16C-261.25 143.977 -254.022 122.492 -247.421 100.705C-233.82 55.2964 -222.912 8.46426 -214.804 -39.3377C-211.52 -59.3532 -207.155 -79.008 -201.744 -98.1402C-191.371 -134.178 -174.761 -166.589 -144.923 -175.538C-111.727 -185.558 -84.9493 -158.219 -65.2502 -126.242C-58.4281 -115.127 -52.2205 -103.332 -46.6791 -90.9554C-31.0639 -56.0912 -16.6004 -22.2588 -2.26222 11.6122C12.0759 45.4831 26.7036 80.0686 41.2737 114.242C78.2597 200.779 118.951 293.229 194.776 341.544C241.175 371.187 298.899 379.237 356.559 367.264C394.207 359.585 430.624 343.201 464.253 318.815C534.942 266.929 583.404 188.523 629.028 107.76C673.651 28.8562 716.069 -52.252 775.218 -114.352C803.339 -143.576 833.815 -168.301 866.049 -188.044C906.643 -213.534 950.531 -233.581 994.95 -253.541C1039.37 -273.501 1084.86 -293.874 1124.67 -315.41" stroke="url(#paint35_linear_1_230)" stroke-width="0.52" stroke-miterlimit="10"/>
<path opacity="0.15" d="M-1247.5 -418.125C-1182.39 -249.284 -1110.65 -63.6968 -993.577 84.6676C-923.851 172.363 -842.308 240.656 -753.499 285.736C-681.739 321.738 -605.14 340.008 -527.698 332.368C-498.362 329.502 -468.913 322.875 -442.361 307.414C-379.602 270.842 -341.298 192.312 -314.967 116.68C-307.215 94.4206 -300.172 71.9538 -293.838 49.2797C-280.658 1.78337 -270.316 -47.0964 -262.913 -96.879C-259.945 -117.657 -255.837 -138.1 -250.624 -158.035C-240.523 -195.236 -224.211 -228.844 -194.2 -237.97C-160.729 -248.172 -133.859 -219.836 -114.28 -186.064C-107.474 -174.338 -101.307 -161.943 -95.8296 -148.981C-80.2822 -112.184 -65.8572 -76.179 -51.3596 -40.3486C-36.862 -4.51815 -22.2472 32.2736 -7.61601 68.5479C29.5367 160.421 70.5441 258.135 146.991 310.359C193.803 342.091 252.234 351.67 310.304 340.098C348.26 332.7 384.953 316.137 418.671 291.179C489.563 237.942 537.677 156.858 582.718 72.9091C626.988 -8.94761 668.766 -93.5856 727.896 -158.27C755.941 -188.572 786.496 -214.256 818.931 -234.794C859.66 -261.254 903.713 -281.961 948.432 -301.999C993.152 -322.038 1038.93 -342.248 1079.65 -362.986" stroke="url(#paint36_linear_1_230)" stroke-width="0.51" stroke-miterlimit="10"/>
<path opacity="0.12" d="M-1295.79 -497.925C-1230.63 -318.573 -1159.75 -124.618 -1042.64 30.6043C-973.594 121.723 -891.757 192.745 -802.074 239.377C-730.047 276.268 -652.942 294.66 -574.936 286.07C-545.379 282.818 -515.787 275.704 -489.05 259.341C-425.943 220.932 -387.974 139.069 -362.204 60.0775C-354.653 36.8821 -347.811 13.4565 -341.679 -10.1991C-328.912 -59.819 -319.128 -110.781 -312.423 -162.578C-309.769 -184.102 -305.927 -205.321 -300.93 -226.052C-291.203 -264.551 -275.11 -299.186 -244.875 -308.491C-211.255 -318.835 -184.39 -289.293 -164.685 -254.008C-157.868 -241.635 -151.724 -228.595 -146.302 -214.993C-130.899 -176.296 -116.339 -138.296 -101.829 -100.295C-87.3201 -62.2936 -72.52 -23.5086 -57.8278 14.8661C-20.5343 112.043 20.5426 215.303 97.9304 270.979C145.262 305.072 204.373 316.077 262.8 304.769C301.035 297.635 337.972 280.868 371.737 255.315C442.86 200.83 490.474 117.005 535.106 29.8291C578.896 -55.0798 620.188 -143.114 679.274 -210.348C707.219 -241.812 737.845 -268.538 770.483 -289.945C811.372 -317.41 855.59 -338.776 900.585 -358.927C945.58 -379.078 991.82 -398.613 1033.64 -418.456" stroke="url(#paint37_linear_1_230)" stroke-width="0.5" stroke-miterlimit="10"/>
<path opacity="0.07" d="M-1396.19 -682.872C-1330.9 -482.397 -1261.55 -271.367 -1144.54 -102.803C-1076.87 -5.08518 -994.507 71.3914 -903.131 121.349C-830.419 159.941 -752.402 178.649 -673.22 168.092C-643.298 164.104 -613.246 155.907 -586.232 138.019C-522.486 95.7286 -485.133 7.26811 -460.609 -78.2669C-453.426 -103.381 -446.979 -128.758 -441.267 -154.4C-429.33 -208.234 -420.668 -263.326 -415.372 -319.113C-413.363 -342.081 -410.068 -364.805 -405.518 -387.084C-396.541 -428.179 -380.786 -464.871 -350.255 -474.6C-316.164 -485.338 -289.058 -453.529 -269.626 -415.03C-262.768 -401.422 -256.678 -387.122 -251.406 -372.252C-236.239 -329.688 -221.483 -287.593 -206.878 -245.493C-192.274 -203.393 -177.25 -160.341 -162.411 -117.801C-124.76 -9.9853 -83.2732 103.981 -4.32205 167.086C44.0161 205.524 104.284 219.387 163.556 208.845C202.37 202.198 239.822 185.007 273.709 158.284C345.267 101.2 391.903 11.7882 435.674 -81.6333C478.527 -172.682 518.82 -267.543 577.792 -339.977C605.565 -373.654 636.327 -402.415 669.353 -425.583C710.51 -454.986 755.032 -477.776 800.656 -497.981C846.28 -518.186 893.296 -536.575 937.191 -554.726" stroke="url(#paint38_linear_1_230)" stroke-width="0.49" stroke-miterlimit="10"/>
<path opacity="0.05" d="M-1448.58 -788.701C-1383.24 -577.716 -1314.52 -358.29 -1197.69 -182.896C-1132.13 -84.5185 -1048.09 -1.10308 -955.725 49.1315C-882.721 88.6443 -804.25 107.338 -724.479 95.8658C-694.311 91.5255 -664.04 82.8049 -636.915 64.0515C-572.775 19.7839 -535.803 -71.8009 -511.89 -160.694C-504.892 -186.767 -498.655 -213.114 -493.178 -239.736C-481.646 -295.686 -473.534 -352.849 -468.925 -410.636C-467.224 -434.381 -464.162 -457.908 -459.767 -480.998C-451.145 -523.632 -435.682 -561.245 -404.901 -571.051C-370.586 -581.969 -343.435 -549.023 -324.026 -508.938C-317.176 -494.705 -311.125 -479.781 -305.926 -464.296C-290.827 -419.799 -276.036 -375.637 -261.294 -331.405C-246.552 -287.172 -231.519 -242.087 -216.619 -197.446C-178.801 -84.2939 -137.121 35.1117 -57.3518 101.844C-8.52262 142.473 52.4472 157.588 112.034 147.794C151.092 141.443 188.766 124.105 222.685 96.8729C294.473 38.4714 340.607 -53.7502 383.922 -150.259C426.319 -244.395 466.101 -342.618 524.956 -417.495C552.618 -452.284 583.443 -482.054 616.668 -506.07C657.959 -536.512 702.723 -559.86 748.546 -580.21C794.369 -600.559 841.876 -618.24 886.82 -635.494" stroke="url(#paint39_linear_1_230)" stroke-width="0.49" stroke-miterlimit="10"/>
<path opacity="0.02" d="M-1502.26 -903.691C-1436.88 -682.16 -1368.88 -454.163 -1252.17 -272.183C-1186.76 -170.181 -1102.78 -83.938 -1009.87 -32.5147C-936.543 7.9531 -857.566 26.7682 -777.259 14.2453C-746.895 9.55413 -716.382 0.274227 -689.242 -19.0656C-624.831 -65.203 -588.144 -160.191 -564.841 -252.304C-558.044 -279.359 -552 -306.7 -546.708 -334.327C-535.629 -392.392 -528.075 -451.611 -524.123 -511.377C-522.752 -535.869 -519.956 -560.173 -515.761 -584.057C-507.612 -627.848 -492.245 -666.665 -461.29 -676.579C-426.776 -687.71 -399.581 -653.629 -380.171 -611.992C-373.28 -597.181 -367.196 -581.697 -361.966 -565.665C-347.027 -519.221 -332.174 -472.89 -317.407 -426.671L-272.472 -286.379C-234.463 -167.925 -192.638 -43.0093 -112.078 27.2477C-62.757 70.1356 -1.23179 86.7845 58.9623 77.1091C98.3489 70.9791 136.317 53.3726 170.307 25.4762C242.324 -34.2423 288.06 -129.14 330.866 -228.872C372.732 -326.059 412.078 -427.68 470.962 -505.281C498.53 -541.172 529.423 -571.962 562.849 -596.86C604.378 -628.136 649.277 -652.454 695.303 -672.741C741.329 -693.028 789.348 -710.242 835.363 -726.703" stroke="url(#paint40_linear_1_230)" stroke-width="0.48" stroke-miterlimit="10"/>
<defs>
<linearGradient id="paint0_linear_1_230" x1="1265.87" y1="4.29566" x2="57.3319" y2="-839.111" gradientUnits="userSpaceOnUse">
<stop offset="0.0103967" stop-color="#FAA60A"/>
<stop offset="0.364578" stop-color="#FF629A" stop-opacity="0.94"/>
<stop offset="1" stop-color="#90A1F6"/>
</linearGradient>
<linearGradient id="paint1_linear_1_230" x1="1245.39" y1="3.01987" x2="53.7742" y2="-828.578" gradientUnits="userSpaceOnUse">
<stop offset="0.0103967" stop-color="#FAA60A"/>
<stop offset="0.364578" stop-color="#FF629A" stop-opacity="0.94"/>
<stop offset="1" stop-color="#90A1F6"/>
</linearGradient>
<linearGradient id="paint2_linear_1_230" x1="1246.93" y1="8.02439" x2="49.7834" y2="-827.431" gradientUnits="userSpaceOnUse">
<stop offset="0.0103967" stop-color="#FAA60A"/>
<stop offset="0.364578" stop-color="#FF629A" stop-opacity="0.94"/>
<stop offset="1" stop-color="#90A1F6"/>
</linearGradient>
<linearGradient id="paint3_linear_1_230" x1="1246.92" y1="17.3719" x2="43.8201" y2="-822.237" gradientUnits="userSpaceOnUse">
<stop offset="0.0103967" stop-color="#FAA60A"/>
<stop offset="0.364578" stop-color="#FF629A" stop-opacity="0.94"/>
<stop offset="1" stop-color="#90A1F6"/>
</linearGradient>
<linearGradient id="paint4_linear_1_230" x1="1245.99" y1="31.075" x2="36.0349" y2="-813.316" gradientUnits="userSpaceOnUse">
<stop offset="0.0103967" stop-color="#FAA60A"/>
<stop offset="0.364578" stop-color="#FF629A" stop-opacity="0.94"/>
<stop offset="1" stop-color="#90A1F6"/>
</linearGradient>
<linearGradient id="paint5_linear_1_230" x1="1243.76" y1="48.3412" x2="26.4976" y2="-801.151" gradientUnits="userSpaceOnUse">
<stop offset="0.0103967" stop-color="#FAA60A"/>
<stop offset="0.364578" stop-color="#FF629A" stop-opacity="0.94"/>
<stop offset="1" stop-color="#90A1F6"/>
</linearGradient>
<linearGradient id="paint6_linear_1_230" x1="1240.16" y1="69.0393" x2="15.0542" y2="-785.927" gradientUnits="userSpaceOnUse">
<stop offset="0.0103967" stop-color="#FAA60A"/>
<stop offset="0.364578" stop-color="#FF629A" stop-opacity="0.94"/>
<stop offset="1" stop-color="#90A1F6"/>
</linearGradient>
<linearGradient id="paint7_linear_1_230" x1="1235.59" y1="93.0477" x2="1.75216" y2="-768.011" gradientUnits="userSpaceOnUse">
<stop offset="0.0103967" stop-color="#FAA60A"/>
<stop offset="0.364578" stop-color="#FF629A" stop-opacity="0.94"/>
<stop offset="1" stop-color="#90A1F6"/>
</linearGradient>
<linearGradient id="paint8_linear_1_230" x1="1229.58" y1="119.465" x2="-13.3869" y2="-747.97" gradientUnits="userSpaceOnUse">
<stop offset="0.0103967" stop-color="#FAA60A"/>
<stop offset="0.364578" stop-color="#FF629A" stop-opacity="0.94"/>
<stop offset="1" stop-color="#90A1F6"/>
</linearGradient>
<linearGradient id="paint9_linear_1_230" x1="1222.51" y1="148.332" x2="-30.3192" y2="-725.986" gradientUnits="userSpaceOnUse">
<stop offset="0.0103967" stop-color="#FAA60A"/>
<stop offset="0.364578" stop-color="#FF629A" stop-opacity="0.94"/>
<stop offset="1" stop-color="#90A1F6"/>
</linearGradient>
<linearGradient id="paint10_linear_1_230" x1="1214" y1="179.248" x2="-49.2611" y2="-702.345" gradientUnits="userSpaceOnUse">
<stop offset="0.0103967" stop-color="#FAA60A"/>
<stop offset="0.364578" stop-color="#FF629A" stop-opacity="0.94"/>
<stop offset="1" stop-color="#90A1F6"/>
</linearGradient>
<linearGradient id="paint11_linear_1_230" x1="1204.68" y1="212.117" x2="-70.0945" y2="-677.513" gradientUnits="userSpaceOnUse">
<stop offset="0.0103967" stop-color="#FAA60A"/>
<stop offset="0.364578" stop-color="#FF629A" stop-opacity="0.94"/>
<stop offset="1" stop-color="#90A1F6"/>
</linearGradient>
<linearGradient id="paint12_linear_1_230" x1="1193.95" y1="246.103" x2="-92.838" y2="-651.909" gradientUnits="userSpaceOnUse">
<stop offset="0.0103967" stop-color="#FAA60A"/>
<stop offset="0.364578" stop-color="#FF629A" stop-opacity="0.94"/>
<stop offset="1" stop-color="#90A1F6"/>
</linearGradient>
<linearGradient id="paint13_linear_1_230" x1="1181.72" y1="281.275" x2="-117.157" y2="-625.178" gradientUnits="userSpaceOnUse">
<stop offset="0.0103967" stop-color="#FAA60A"/>
<stop offset="0.364578" stop-color="#FF629A" stop-opacity="0.94"/>
<stop offset="1" stop-color="#90A1F6"/>
</linearGradient>
<linearGradient id="paint14_linear_1_230" x1="1168.3" y1="315.932" x2="-142.586" y2="-598.903" gradientUnits="userSpaceOnUse">
<stop offset="0.0103967" stop-color="#FAA60A"/>
<stop offset="0.364578" stop-color="#FF629A" stop-opacity="0.94"/>
<stop offset="1" stop-color="#90A1F6"/>
</linearGradient>
<linearGradient id="paint15_linear_1_230" x1="1153.31" y1="351.06" x2="-169.813" y2="-572.311" gradientUnits="userSpaceOnUse">
<stop offset="0.0103967" stop-color="#FAA60A"/>
<stop offset="0.364578" stop-color="#FF629A" stop-opacity="0.94"/>
<stop offset="1" stop-color="#90A1F6"/>
</linearGradient>
<linearGradient id="paint16_linear_1_230" x1="1136.86" y1="385.798" x2="-198.559" y2="-546.154" gradientUnits="userSpaceOnUse">
<stop offset="0.0103967" stop-color="#FAA60A"/>
<stop offset="0.364578" stop-color="#FF629A" stop-opacity="0.94"/>
<stop offset="1" stop-color="#90A1F6"/>
</linearGradient>
<linearGradient id="paint17_linear_1_230" x1="1119.07" y1="419.834" x2="-228.706" y2="-520.74" gradientUnits="userSpaceOnUse">
<stop offset="0.0103967" stop-color="#FAA60A"/>
<stop offset="0.364578" stop-color="#FF629A" stop-opacity="0.94"/>
<stop offset="1" stop-color="#90A1F6"/>
</linearGradient>
<linearGradient id="paint18_linear_1_230" x1="1099.68" y1="452.795" x2="-260.628" y2="-496.526" gradientUnits="userSpaceOnUse">
<stop offset="0.0103967" stop-color="#FAA60A"/>
<stop offset="0.364578" stop-color="#FF629A" stop-opacity="0.94"/>
<stop offset="1" stop-color="#90A1F6"/>
</linearGradient>
<linearGradient id="paint19_linear_1_230" x1="1079.01" y1="484.425" x2="-293.966" y2="-473.74" gradientUnits="userSpaceOnUse">
<stop offset="0.0103967" stop-color="#FAA60A"/>
<stop offset="0.364578" stop-color="#FF629A" stop-opacity="0.94"/>
<stop offset="1" stop-color="#90A1F6"/>
</linearGradient>
<linearGradient id="paint20_linear_1_230" x1="1056.9" y1="514.303" x2="-328.843" y2="-452.771" gradientUnits="userSpaceOnUse">
<stop offset="0.0103967" stop-color="#FAA60A"/>
<stop offset="0.364578" stop-color="#FF629A" stop-opacity="0.94"/>
<stop offset="1" stop-color="#90A1F6"/>
</linearGradient>
<linearGradient id="paint21_linear_1_230" x1="1033.18" y1="541.806" x2="-365.155" y2="-434.053" gradientUnits="userSpaceOnUse">
<stop offset="0.0103967" stop-color="#FAA60A"/>
<stop offset="0.364578" stop-color="#FF629A" stop-opacity="0.94"/>
<stop offset="1" stop-color="#90A1F6"/>
</linearGradient>
<linearGradient id="paint22_linear_1_230" x1="1008.3" y1="567.227" x2="-403.055" y2="-417.717" gradientUnits="userSpaceOnUse">
<stop offset="0.0103967" stop-color="#FAA60A"/>
<stop offset="0.364578" stop-color="#FF629A" stop-opacity="0.94"/>
<stop offset="1" stop-color="#90A1F6"/>
</linearGradient>
<linearGradient id="paint23_linear_1_230" x1="981.839" y1="589.681" x2="-442.397" y2="-404.254" gradientUnits="userSpaceOnUse">
<stop offset="0.0103967" stop-color="#FAA60A"/>
<stop offset="0.364578" stop-color="#FF629A" stop-opacity="0.94"/>
<stop offset="1" stop-color="#90A1F6"/>
</linearGradient>
<linearGradient id="paint24_linear_1_230" x1="953.877" y1="608.857" x2="-483.145" y2="-394.001" gradientUnits="userSpaceOnUse">
<stop offset="0.0103967" stop-color="#FAA60A"/>
<stop offset="0.364578" stop-color="#FF629A" stop-opacity="0.94"/>
<stop offset="1" stop-color="#90A1F6"/>
</linearGradient>
<linearGradient id="paint25_linear_1_230" x1="924.56" y1="624.682" x2="-525.446" y2="-387.237" gradientUnits="userSpaceOnUse">
<stop offset="0.0103967" stop-color="#FAA60A"/>
<stop offset="0.364578" stop-color="#FF629A" stop-opacity="0.94"/>
<stop offset="1" stop-color="#90A1F6"/>
</linearGradient>
<linearGradient id="paint26_linear_1_230" x1="893.518" y1="636.202" x2="-569.108" y2="-384.525" gradientUnits="userSpaceOnUse">
<stop offset="0.0103967" stop-color="#FAA60A"/>
<stop offset="0.364578" stop-color="#FF629A" stop-opacity="0.94"/>
<stop offset="1" stop-color="#90A1F6"/>
</linearGradient>
<linearGradient id="paint27_linear_1_230" x1="861.07" y1="643.597" x2="-614.275" y2="-386.006" gradientUnits="userSpaceOnUse">
<stop offset="0.0103967" stop-color="#FAA60A"/>
<stop offset="0.364578" stop-color="#FF629A" stop-opacity="0.94"/>
<stop offset="1" stop-color="#90A1F6"/>
</linearGradient>
<linearGradient id="paint28_linear_1_230" x1="827.321" y1="646.503" x2="-660.91" y2="-392.091" gradientUnits="userSpaceOnUse">
<stop offset="0.0103967" stop-color="#FAA60A"/>
<stop offset="0.364578" stop-color="#FF629A" stop-opacity="0.94"/>
<stop offset="1" stop-color="#90A1F6"/>
</linearGradient>
<linearGradient id="paint29_linear_1_230" x1="792.079" y1="644.632" x2="-709.102" y2="-403.001" gradientUnits="userSpaceOnUse">
<stop offset="0.0103967" stop-color="#FAA60A"/>
<stop offset="0.364578" stop-color="#FF629A" stop-opacity="0.94"/>
<stop offset="1" stop-color="#90A1F6"/>
</linearGradient>
<linearGradient id="paint30_linear_1_230" x1="755.332" y1="637.297" x2="-758.669" y2="-419.282" gradientUnits="userSpaceOnUse">
<stop offset="0.0103967" stop-color="#FAA60A"/>
<stop offset="0.364578" stop-color="#FF629A" stop-opacity="0.94"/>
<stop offset="1" stop-color="#90A1F6"/>
</linearGradient>
<linearGradient id="paint31_linear_1_230" x1="717.116" y1="624.302" x2="-809.736" y2="-441.246" gradientUnits="userSpaceOnUse">
<stop offset="0.0103967" stop-color="#FAA60A"/>
<stop offset="0.364578" stop-color="#FF629A" stop-opacity="0.94"/>
<stop offset="1" stop-color="#90A1F6"/>
</linearGradient>
<linearGradient id="paint32_linear_1_230" x1="677.337" y1="605.076" x2="-862.201" y2="-469.325" gradientUnits="userSpaceOnUse">
<stop offset="0.0103967" stop-color="#FAA60A"/>
<stop offset="0.364578" stop-color="#FF629A" stop-opacity="0.94"/>
<stop offset="1" stop-color="#90A1F6"/>
</linearGradient>
<linearGradient id="paint33_linear_1_230" x1="636.167" y1="579.728" x2="-916.19" y2="-503.619" gradientUnits="userSpaceOnUse">
<stop offset="0.0103967" stop-color="#FAA60A"/>
<stop offset="0.364578" stop-color="#FF629A" stop-opacity="0.94"/>
<stop offset="1" stop-color="#90A1F6"/>
</linearGradient>
<linearGradient id="paint34_linear_1_230" x1="593.568" y1="547.887" x2="-971.74" y2="-544.498" gradientUnits="userSpaceOnUse">
<stop offset="0.0103967" stop-color="#FAA60A"/>
<stop offset="0.364578" stop-color="#FF629A" stop-opacity="0.94"/>
<stop offset="1" stop-color="#90A1F6"/>
</linearGradient>
<linearGradient id="paint35_linear_1_230" x1="549.472" y1="508.804" x2="-1028.69" y2="-592.55" gradientUnits="userSpaceOnUse">
<stop offset="0.0103967" stop-color="#FAA60A"/>
<stop offset="0.364578" stop-color="#FF629A" stop-opacity="0.94"/>
<stop offset="1" stop-color="#90A1F6"/>
</linearGradient>
<linearGradient id="paint36_linear_1_230" x1="503.744" y1="462.249" x2="-1087.1" y2="-647.959" gradientUnits="userSpaceOnUse">
<stop offset="0.0103967" stop-color="#FAA60A"/>
<stop offset="0.364578" stop-color="#FF629A" stop-opacity="0.94"/>
<stop offset="1" stop-color="#90A1F6"/>
</linearGradient>
<linearGradient id="paint37_linear_1_230" x1="456.776" y1="408.154" x2="-1147.02" y2="-711.092" gradientUnits="userSpaceOnUse">
<stop offset="0.0103967" stop-color="#FAA60A"/>
<stop offset="0.364578" stop-color="#FF629A" stop-opacity="0.94"/>
<stop offset="1" stop-color="#90A1F6"/>
</linearGradient>
<linearGradient id="paint38_linear_1_230" x1="358.206" y1="274.917" x2="-1271.1" y2="-862.128" gradientUnits="userSpaceOnUse">
<stop offset="0.0103967" stop-color="#FAA60A"/>
<stop offset="0.364578" stop-color="#FF629A" stop-opacity="0.94"/>
<stop offset="1" stop-color="#90A1F6"/>
</linearGradient>
<linearGradient id="paint39_linear_1_230" x1="306.777" y1="195.665" x2="-1335.64" y2="-950.534" gradientUnits="userSpaceOnUse">
<stop offset="0.0103967" stop-color="#FAA60A"/>
<stop offset="0.364578" stop-color="#FF629A" stop-opacity="0.94"/>
<stop offset="1" stop-color="#90A1F6"/>
</linearGradient>
<linearGradient id="paint40_linear_1_230" x1="253.883" y1="106.515" x2="-1401.19" y2="-1048.52" gradientUnits="userSpaceOnUse">
<stop offset="0.0103967" stop-color="#FAA60A"/>
<stop offset="0.364578" stop-color="#FF629A" stop-opacity="0.94"/>
<stop offset="1" stop-color="#90A1F6"/>
</linearGradient>
</defs>
</svg>
