<svg width="1920" height="2691" viewBox="0 0 1920 2691" fill="none" xmlns="http://www.w3.org/2000/svg">
<path d="M-513.537 979.548C-485.79 947.781 -426.295 956.186 -389.681 960.324C-353.068 964.462 -323.916 983.726 -299 1005.71C-235.016 1062.17 -193.467 1138.32 -140.196 1204.35C-86.9258 1270.38 -15.7977 1328.5 79.9183 1334.06C229.407 1342.72 383.317 1225.76 522.75 1127.79C559.255 1102.17 598.211 1076.44 639.121 1068.71C691.574 1058.78 737.844 1080.91 767.107 1114.3C796.37 1147.69 811.621 1191.36 827.594 1233.75C878.941 1370.26 945.266 1505.54 1069.64 1582.22C1194.01 1658.89 1449.26 1680.87 1703.37 1499.71" stroke="url(#paint0_linear_1_187)" stroke-width="0.71" stroke-miterlimit="10"/>
<path d="M-491.22 996.261C-463.464 964.563 -418.27 950.574 -381.652 954.746C-345.035 958.918 -315.744 978.065 -290.846 999.911C-226.857 1056.4 -185.308 1132.56 -132.037 1198.59C-78.7669 1264.62 -7.63871 1322.73 88.0773 1328.29C237.584 1337.09 391.42 1220.15 530.94 1122.26C567.44 1096.61 606.364 1070.93 647.311 1063.18C699.944 1053.16 746.029 1075.35 775.297 1108.77C804.564 1142.2 819.807 1185.8 835.78 1228.19C887.131 1364.74 953.455 1500.02 1077.83 1576.69C1202.2 1653.36 1457.45 1675.35 1711.56 1494.18" stroke="url(#paint1_linear_1_187)" stroke-width="0.71" stroke-miterlimit="10"/>
<path opacity="0.98" d="M1708.39 1504.05C1565.36 1602.51 1422.08 1633.09 1302.13 1626.2C1216.54 1621.26 1143.04 1597.3 1091.21 1564.21C1044 1533.54 1002.87 1495.54 968.938 1451.25C955.66 1434.15 943.269 1416.76 931.398 1398.61C904.294 1356.17 880.317 1311.49 859.602 1264.81C853.514 1251.34 847.641 1237.83 841.983 1224.31C830.042 1195.98 818.411 1166.76 802.119 1141.15C795.492 1130.55 787.87 1120.7 779.328 1111.69C764.515 1096.29 746.529 1084.12 726.124 1075.69C703.326 1066.36 678.156 1061.97 651.495 1066.09C641.357 1067.73 631.179 1070.44 621.144 1074.18C592.562 1084.67 565.127 1102.31 538.983 1119.81C512.838 1137.31 486.395 1155.48 459.46 1173.42C390.915 1218.92 319.841 1262.11 246.99 1286.88C199.823 1303.55 151.825 1310.78 106.135 1308.09C75.7767 1305.88 46.9422 1299.13 20.5442 1288.05C-34.9755 1265.26 -80.2949 1226.17 -117.699 1183.63C-155.457 1140.73 -187.683 1093.21 -225.358 1049.75C-242.631 1029.55 -261.458 1010.77 -281.73 993.5C-307.225 972.106 -336.941 953.247 -373.872 949.036C-410.803 944.825 -455.969 958.123 -484.305 988.901" stroke="url(#paint2_linear_1_187)" stroke-width="0.71" stroke-miterlimit="10"/>
<path opacity="0.95" d="M1708.43 1511.62C1570.47 1602.99 1432.47 1627.58 1315.29 1616.81C1231.9 1609.15 1159.55 1583.62 1107.77 1549.4C1060.77 1517.9 1019.38 1479.73 984.518 1435.76C970.82 1418.98 958.038 1401.54 945.868 1384.07C917.85 1343.44 892.645 1300.68 870.377 1256.01C863.975 1243.29 857.793 1230.49 851.81 1217.73C839.229 1191.02 827.057 1163.59 810.36 1139.63C803.531 1129.65 795.732 1120.43 787.042 1112.08C771.545 1097.61 753.298 1086.12 732.928 1078C709.9 1068.68 685.163 1063.45 659.341 1066.61C649.574 1067.82 639.726 1070.11 629.984 1073.44C602.404 1082.72 575.926 1098.82 550.59 1115.11C525.254 1131.4 499.875 1147.96 473.907 1164.43C407.816 1206.22 339.269 1245.68 267.595 1267.62C187.996 1293.45 107.904 1292.75 40.8632 1265.65C-15.444 1243.63 -61.7157 1206.73 -100.294 1166.45C-139.114 1125.78 -172.598 1080.77 -211.505 1039.12C-229.455 1019.65 -248.8 1001.5 -269.445 984.765C-295.552 964.008 -325.758 945.529 -362.896 941.209C-400.033 936.888 -445.312 949.612 -473.903 979.291" stroke="url(#paint3_linear_1_187)" stroke-width="0.7" stroke-miterlimit="10"/>
<path opacity="0.93" d="M1711.47 1517.03C1578.57 1601.3 1445.86 1619.91 1331.47 1605.4C1250.31 1595.01 1179.17 1567.81 1127.3 1532.62C1080.59 1500.17 1038.9 1461.84 1002.97 1418.3C989.017 1401.68 975.768 1384.5 963.03 1367.41C934.18 1328.69 907.783 1288.03 883.947 1245.59C877.261 1233.46 870.77 1221.45 864.473 1209.55C851.188 1184.26 838.356 1158.6 821.323 1136.23C814.295 1126.87 806.333 1118.3 797.52 1110.6C781.349 1097.06 762.837 1086.22 742.488 1078.38C719.193 1069.07 694.971 1063.06 669.939 1065.16C660.533 1065.98 651.005 1067.87 641.546 1070.8C615.005 1078.87 589.503 1093.57 565.461 1108.24C541.42 1122.9 516.651 1138.21 491.613 1153.22C427.984 1191.38 361.938 1226.91 291.246 1246.28C243.991 1259.5 196.617 1264.38 151.485 1260.69C120.906 1257.87 91.6656 1251.2 64.4147 1240.83C7.27874 1219.55 -39.9673 1184.67 -79.7019 1146.79C-119.618 1108.4 -154.356 1065.93 -194.466 1026.02C-213.096 1007.29 -232.97 989.79 -254.005 973.601C-280.885 953.428 -311.591 935.261 -348.967 930.877C-386.344 926.493 -431.706 938.562 -460.734 967.238" stroke="url(#paint4_linear_1_187)" stroke-width="0.69" stroke-miterlimit="10"/>
<path opacity="0.9" d="M1717.31 1520.53C1589.47 1597.7 1462.11 1610.34 1350.41 1591.8C1271.72 1578.75 1201.48 1549.88 1149.67 1513.59C1103.12 1480.36 1061.12 1441.87 1024.25 1398.66C1009.94 1382.2 996.225 1365.29 983.189 1348.58C951.925 1309.18 924.475 1271.3 900.47 1232.66C893.436 1221.41 886.616 1210.15 880.012 1198.86C866.123 1175.17 852.664 1151.24 835.221 1130.48C828.005 1121.73 819.891 1113.78 810.965 1106.72C794.108 1094.19 775.334 1084.02 755.023 1076.42C731.424 1067.15 707.747 1060.27 683.508 1061.35C674.472 1061.8 665.281 1063.28 656.112 1065.76C630.536 1072.64 606.042 1085.88 582.75 1099.18C559.458 1112.49 535.845 1126.29 511.778 1139.86C450.717 1174.32 387.038 1206.06 317.421 1222.7C270.222 1234.12 223.2 1237.79 178.362 1233.57C147.583 1230.57 118.036 1224.05 90.2671 1214.12C32.3436 1193.61 -15.9656 1160.96 -56.7677 1125.27C-97.5698 1089.59 -133.775 1049.19 -175.125 1011.03C-194.19 993.544 -214.215 976.383 -236.261 960.585C-263.526 941.009 -294.677 923.279 -332.334 918.81C-369.991 914.34 -415.354 925.799 -444.827 953.402" stroke="url(#paint5_linear_1_187)" stroke-width="0.69" stroke-miterlimit="10"/>
<path opacity="0.88" d="M1725.79 1522.35C1603.04 1592.42 1481.01 1599.09 1372.02 1576.73C1298.99 1561.86 1232.2 1533.58 1174.67 1493.17C1128.37 1459.08 1086.06 1420.41 1048.21 1377.59C1033.57 1361.28 1019.42 1344.62 1005.72 1328.45C973.219 1290.19 944.439 1254.55 919.359 1218.64C912.004 1208.11 904.881 1197.58 897.989 1187.05C883.608 1164.94 869.227 1142.82 851.373 1123.67C844.028 1115.52 835.823 1108.18 826.848 1101.74C809.323 1090.21 790.281 1080.68 769.989 1073.29C746.122 1064.03 722.957 1056.34 699.511 1056.4C690.804 1056.44 681.894 1057.54 672.97 1059.65C648.386 1065.27 624.864 1077.06 602.51 1088.97C580.157 1100.88 557.469 1113.19 534.373 1125.31C475.659 1156.14 414.798 1184.03 346.063 1197.93C298.989 1207.57 252.33 1210.14 207.742 1205.53C176.946 1202.08 147.285 1195.49 119.192 1185.84C60.4398 1166.08 11.1368 1135.59 -30.8022 1102.16C-72.7412 1068.72 -110.14 1030.74 -152.684 994.381C-172.339 977.707 -192.934 961.205 -215.424 945.844C-243.306 926.871 -274.91 909.51 -312.806 904.977C-350.702 900.444 -396.123 911.455 -426.027 937.801" stroke="url(#paint6_linear_1_187)" stroke-width="0.68" stroke-miterlimit="10"/>
<path opacity="0.85" d="M1736.77 1522.68C1619.12 1585.6 1502.31 1586.46 1396.1 1560C1324.4 1542.32 1258.89 1512.26 1202.14 1471.02C1156.03 1436.09 1113.39 1397.24 1074.56 1354.78C1059.56 1338.66 1045.02 1322.24 1030.77 1306.58C997.097 1269.43 966.963 1236.15 940.814 1202.72C933.139 1192.9 925.688 1183.12 918.464 1173.41C903.253 1152.94 888.572 1132.39 870.387 1114.87C862.733 1107.38 854.279 1100.72 845.118 1094.94C826.944 1084.42 807.626 1075.51 787.336 1068.31C763.055 1059.13 740.585 1050.55 717.933 1049.59C709.634 1049.26 701.098 1049.92 692.5 1051.57C668.91 1055.91 646.367 1066.34 624.948 1076.82C603.528 1087.3 581.844 1098.12 559.719 1108.8C503.468 1136 444.973 1160.11 377.46 1171.23C330.538 1179.02 284.225 1180.42 239.855 1175.38C208.923 1171.67 179.026 1165.12 150.512 1155.82C94.5781 1137.42 43.1576 1111.02 -2.40006 1077.32C-45.7697 1045.95 -84.0783 1010.79 -127.862 976.179C-148.102 960.348 -169.235 944.459 -192.208 929.548C-220.669 911.165 -252.763 894.184 -290.903 889.554C-329.042 884.923 -374.523 895.164 -404.873 920.726" stroke="url(#paint7_linear_1_187)" stroke-width="0.68" stroke-miterlimit="10"/>
<path opacity="0.83" d="M1750.06 1521.8C1637.47 1577.66 1526.17 1572.53 1422.51 1542.19C1352.23 1521.64 1288 1489.83 1231.95 1447.83C1186.04 1412.07 1143.06 1373.04 1103.24 1330.96C1087.91 1314.95 1072.95 1298.82 1058.22 1283.61C1023.34 1247.62 991.893 1216.69 964.597 1185.73C956.58 1176.64 948.826 1167.61 941.336 1158.63C925.485 1139.77 910.14 1120.97 891.582 1105.04C883.718 1098.19 875.102 1092.16 865.827 1087.04C849.628 1078.11 829.073 1070.65 807.136 1062.33C782.85 1053.11 760.67 1043.79 738.775 1041.81C730.847 1041.11 722.646 1041.36 714.339 1042.56C691.645 1045.78 670.175 1054.66 649.689 1063.71C629.204 1072.76 608.491 1082.14 587.3 1091.4C533.465 1114.91 477.383 1135.29 411.08 1143.52C364.345 1149.45 318.359 1149.7 274.158 1144.28C243.129 1140.23 213.019 1133.71 184.091 1124.78C127.86 1107.41 75.5762 1082.77 28.3671 1051.4C-16.2283 1022.49 -55.7388 989.678 -100.786 956.93C-121.547 941.849 -143.172 926.629 -166.723 912.308C-195.948 894.577 -228.311 877.903 -266.731 873.187C-305.152 868.471 -350.818 878.163 -381.433 902.557" stroke="url(#paint8_linear_1_187)" stroke-width="0.67" stroke-miterlimit="10"/>
<path opacity="0.8" d="M1765.45 1519.89C1657.95 1568.55 1552.07 1557.64 1451.05 1523.24C1382.23 1499.83 1319.24 1466.26 1263.84 1423.47C1217.64 1387.13 1174.87 1346.89 1134.09 1305.95C1118.4 1290.13 1103.08 1274.23 1087.75 1259.51C1051.72 1224.66 1018.91 1196.1 990.515 1167.67C982.207 1159.32 974.135 1151 966.31 1142.82C949.814 1125.55 933.879 1108.45 914.906 1094.1C906.8 1087.92 898.023 1082.54 888.666 1078.02C872.25 1070.1 851.422 1063.53 829.061 1055.2C804.434 1046.02 782.84 1035.86 761.738 1032.86C754.176 1031.8 746.312 1031.63 738.3 1032.38C716.718 1034.36 696.112 1041.87 676.57 1049.56C657.028 1057.25 637.277 1065.12 617.057 1072.94C565.684 1092.81 512.263 1109.32 446.897 1114.93C400.401 1118.98 354.739 1118.08 310.69 1112.26C279.542 1107.94 249.202 1101.47 219.872 1092.9C163.201 1076.57 109.927 1053.72 60.9671 1024.76C15.1935 998.079 -25.3713 967.56 -71.6737 936.744C-92.9998 922.358 -115.256 907.924 -139.17 894.085C-168.548 876.658 -201.734 860.476 -240.545 855.712C-279.357 850.948 -324.729 859.93 -355.97 883.348" stroke="url(#paint9_linear_1_187)" stroke-width="0.67" stroke-miterlimit="10"/>
<path opacity="0.78" d="M1782.81 1517.17C1680.32 1558.86 1579.92 1542.01 1481.54 1503.56C1414.25 1477.29 1352.51 1441.97 1297.72 1398.41C1251.77 1361.33 1208.61 1320.76 1167.07 1280.18C1151.05 1264.51 1135.23 1248.89 1119.46 1234.64C1082.15 1200.94 1047.98 1174.67 1018.39 1148.68C1009.72 1141.09 1001.34 1133.56 993.247 1126.1C976.814 1110.16 959.096 1095.53 940.202 1082.31C931.875 1076.77 922.935 1072.02 913.472 1068.12C896.57 1061.23 875.54 1055.48 853.027 1047.17C828.096 1038.02 807.05 1027.03 786.741 1023.01C779.541 1021.56 771.999 1020.99 764.264 1021.3C743.679 1022.05 724.082 1028.11 705.46 1034.27C686.839 1040.43 668.022 1046.87 648.786 1053.34C594.166 1072.13 538.797 1082.86 484.679 1085.14C438.45 1087.27 393.078 1085.24 349.113 1079.05C317.842 1074.42 287.267 1067.98 257.53 1059.74C200.517 1044.37 146.374 1023.28 95.818 996.748C49.0817 972.476 7.16552 944.64 -40.3355 915.593C-62.275 902.132 -85.078 888.242 -109.432 874.874C-139.7 858.321 -173.159 842.411 -212.099 837.547C-251.039 832.683 -296.638 841.094 -328.176 863.39" stroke="url(#paint10_linear_1_187)" stroke-width="0.66" stroke-miterlimit="10"/>
<path opacity="0.76" d="M1802 1513.91C1704.66 1548.33 1609.59 1525.88 1513.81 1483.36C1448.14 1454.18 1387.65 1417.1 1333.42 1372.78C1287.7 1334.79 1244.25 1294.07 1201.5 1253.97C1185.11 1238.46 1168.86 1223.08 1152.62 1209.32C1114.14 1176.73 1078.67 1152.91 1048.1 1129.49C1039.13 1122.59 1030.43 1115.8 1022 1109.12C1004.92 1094.81 986.651 1081.82 967.311 1070.24C958.758 1065.3 949.651 1061.16 940.077 1057.84C922.843 1051.96 901.462 1047.08 878.64 1038.77C853.447 1029.67 832.953 1017.88 813.393 1012.78C806.574 1011.03 799.401 1010.08 792.004 1009.95C772.367 1009.38 753.791 1014.08 736.103 1018.81C718.416 1023.54 700.579 1028.61 682.301 1033.54C629.197 1048.23 575.938 1055.5 524.203 1055.13C478.347 1055.3 433.305 1052.12 389.432 1045.61C357.787 1040.88 326.823 1033.94 297.125 1026.36C239.7 1011.93 184.635 992.6 132.458 968.566C84.5474 946.558 41.2536 921.199 -7.39425 893.724C-29.8865 881.06 -53.0753 867.767 -78.0539 854.933C-108.901 838.97 -142.851 823.441 -182.034 818.479C-221.218 813.517 -266.892 821.342 -298.94 842.66" stroke="url(#paint11_linear_1_187)" stroke-width="0.65" stroke-miterlimit="10"/>
<path opacity="0.73" d="M1822.82 1510.5C1730.56 1537.96 1640.94 1509.61 1547.74 1462.92C1483.73 1430.89 1424.47 1392.06 1370.74 1346.95C1325.29 1308.34 1281.29 1267.22 1237.74 1227.47C1220.99 1212.15 1204.3 1196.99 1187.55 1183.73C1147.9 1152.29 1111.11 1130.81 1079.43 1109.81C1070.11 1103.6 1061.1 1097.56 1052.39 1091.67C1034.64 1079.01 1015.83 1067.67 996.056 1057.72C987.247 1053.52 977.974 1050.06 968.313 1047.37C950.746 1042.5 929.01 1038.46 905.962 1030.18C880.538 1021.09 860.556 1008.48 841.789 1002.36C835.283 1000.24 828.408 998.854 821.274 998.234C802.648 996.524 785.025 999.652 768.317 1003.01C751.61 1006.37 734.546 1009.96 717.35 1013.41C673.314 1022.3 627.527 1027.43 565.304 1024.8C519.85 1023.08 475.106 1018.83 431.274 1012.04C399.512 1006.99 368.137 1000.16 338.229 993.043C280.401 979.397 224.454 961.703 170.752 940.079C121.631 920.347 77.207 897.596 27.2322 871.79C4.18715 859.923 -19.7197 847.339 -45.0191 835.008C-76.441 819.671 -110.844 804.51 -150.308 799.462C-189.772 794.415 -235.456 801.561 -267.987 821.819" stroke="url(#paint12_linear_1_187)" stroke-width="0.65" stroke-miterlimit="10"/>
<path opacity="0.71" d="M1845.29 1507.07C1758.07 1527.26 1673.9 1493.34 1583.34 1442.56C1521.06 1407.71 1463.01 1367.15 1409.74 1321.28C1364.53 1281.8 1320.16 1240.55 1275.61 1201.1C1258.57 1185.88 1241.45 1171.01 1224.18 1158.21C1183.33 1127.89 1145.19 1108.78 1112.44 1090.29L1084.43 1074.56C1066 1063.45 1046.56 1053.71 1026.25 1045.4C1017.27 1041.87 1007.89 1039.02 998.203 1036.87C980.266 1033.03 958.249 1029.8 934.975 1021.57C909.247 1012.51 889.744 999.125 871.84 991.924C865.669 989.476 859.134 987.68 852.323 986.561C836.263 984.388 819.434 984.607 802.342 987.21C786.653 988.896 770.624 991.237 754.251 993.297C712.567 998.593 669.409 999.893 608.256 994.49C569.575 991.048 523.766 986.375 474.937 978.262C443.062 972.925 411.752 965.996 381.123 959.269C322.805 946.597 265.894 930.76 210.615 911.817C160.51 894.322 114.843 873.895 63.6323 849.87C39.9976 838.812 15.5574 826.875 -10.1542 814.935C-42.1597 800.153 -77.012 785.395 -116.756 780.262C-156.501 775.129 -202.177 781.733 -235.111 800.941" stroke="url(#paint13_linear_1_187)" stroke-width="0.64" stroke-miterlimit="10"/>
<path opacity="0.68" d="M1868.75 1504.35C1786.64 1517.61 1707.82 1477.9 1619.9 1422.78C1559.38 1385.07 1502.51 1342.73 1449.65 1296.03C1404.64 1255.79 1359.89 1214.24 1314.44 1175.27C1297.11 1160.22 1279.49 1145.63 1261.74 1133.31C1219.69 1104.12 1180.2 1087.4 1146.35 1071.51L1117.46 1057.84C1098.41 1048.43 1078.49 1040.38 1057.8 1033.74C1048.53 1030.91 1038.93 1028.73 1029.08 1027.2C1010.81 1024.36 988.442 1021.97 964.943 1013.78C938.947 1004.74 920.029 990.513 902.845 982.315C897.011 979.526 890.814 977.318 884.325 975.718C869.352 972.462 853.525 971.358 837.269 972.435C822.495 972.843 807.415 973.57 792.013 974.189C752.86 975.794 712.188 973.346 652.213 965.103C614.27 959.903 568.583 954.075 519.56 945.344C487.644 939.697 455.846 932.86 425.026 926.449C359.822 912.849 302.789 899.303 251.563 884.197C200.338 869.091 153.198 850.993 100.806 828.876C76.5951 818.731 51.6082 807.337 25.2348 795.943C-7.38686 781.764 -42.6927 767.374 -82.6807 762.143C-122.669 756.913 -168.42 762.931 -201.791 781.136" stroke="url(#paint14_linear_1_187)" stroke-width="0.64" stroke-miterlimit="10"/>
<path opacity="0.66" d="M1893.52 1502.34C1816.46 1508.33 1743.09 1463.12 1657.84 1403.9C1599.16 1363.41 1543.46 1319.31 1490.99 1271.8C1446.27 1230.74 1401.1 1188.98 1354.73 1150.39C1336.96 1135.52 1318.99 1121.15 1300.72 1109.3C1257.51 1081.25 1216.66 1066.89 1181.89 1053.33C1171.65 1049.35 1161.68 1045.52 1151.99 1041.83C1132.31 1034.02 1111.84 1027.6 1090.7 1022.64C1081.19 1020.54 1071.44 1019.02 1061.5 1018.09C1042.86 1016.24 1020.17 1014.71 996.441 1006.52C970.165 997.396 951.813 982.475 935.372 973.165C929.854 970.053 923.984 967.45 917.817 965.38C903.881 960.961 889.031 958.427 873.605 957.834C859.769 956.848 845.66 956.133 831.225 955.277C794.534 953.25 756.385 947.041 697.292 936.057C660.091 929.134 614.624 922.01 565.358 912.894C533.325 906.927 501.301 900.13 470.065 894.075C403.938 881.396 345.911 870.017 293.508 857.141C240.613 843.935 189.177 827.652 139.429 808.365C114.615 798.926 89.1075 788.283 62.2938 777.36C29.0974 763.806 -6.70323 749.762 -46.9304 744.468C-87.1576 739.175 -132.975 744.676 -166.772 761.658" stroke="url(#paint15_linear_1_187)" stroke-width="0.63" stroke-miterlimit="10"/>
<path opacity="0.63" d="M1919.31 1501.31C1847.34 1500.2 1779.36 1449.47 1696.58 1385.79C1643.05 1344.58 1584.85 1296.85 1533.3 1248.53C1488.77 1206.59 1443.34 1164.52 1396.09 1126.29C1378.71 1111.7 1360.28 1098.27 1340.88 1086.07C1296.47 1059.19 1254.3 1047.14 1218.23 1036.14C1207.66 1032.94 1197.37 1029.86 1187.41 1026.99C1167.08 1020.83 1146.05 1016.07 1124.47 1012.74C1115.69 1011.49 1105.89 1010.48 1094.78 1010.01C1075.73 1009.23 1052.76 1008.48 1028.77 1000.35C1002.27 991.297 984.427 975.523 968.784 965.225C963.555 961.818 958.024 958.805 952.227 956.206C939.27 950.74 925.408 946.85 910.884 944.603C897.983 942.188 884.84 939.998 871.487 937.664C837.254 931.97 801.628 922.001 743.606 908.248C706.815 899.713 661.322 891.484 612.055 881.757C579.95 875.527 547.621 868.761 516.042 863.036C449.041 851.048 390.09 841.777 336.698 831.102C282.587 820.445 229.939 806.372 179.038 788.959C153.634 780.329 127.594 770.333 100.377 759.869C66.601 746.905 30.3336 733.126 -10.1564 727.885C-50.6465 722.644 -96.4999 727.259 -130.761 743.32" stroke="url(#paint16_linear_1_187)" stroke-width="0.63" stroke-miterlimit="10"/>
<path opacity="0.61" d="M1945.9 1501.42C1879.02 1493.16 1816.38 1436.94 1736.42 1369.08C1684.99 1325.28 1627.86 1275.72 1576.35 1226.17C1532.08 1183.57 1486.16 1141.26 1437.92 1103.44C1420.18 1089.01 1401.3 1075.89 1381.37 1064.15C1335.71 1038.4 1292.12 1028.77 1255.09 1020.21C1244.2 1017.74 1233.64 1015.43 1223.4 1013.27C1202.42 1008.71 1180.85 1005.59 1158.81 1003.91C1149.88 1003.33 1139.92 1003.09 1128.6 1003.12C1109.37 1003.3 1085.9 1003.48 1061.71 995.336C1034.92 986.383 1017.62 969.743 1002.76 958.389C997.834 954.641 992.627 951.222 987.166 948.148C975.182 941.556 962.321 936.259 948.75 932.325C936.704 928.472 924.681 924.792 912.077 921.091C880.302 911.73 847.236 897.988 790.284 881.467C754.527 871.075 709.253 861.55 659.744 851.437C627.578 845.335 594.915 838.358 562.969 833.08C495.366 821.798 435.453 814.648 380.841 806.181C325.469 798.111 271.554 786.242 219.444 770.65C193.455 762.865 166.877 753.48 139.224 743.523C104.832 731.162 68.1243 717.855 27.4101 712.366C-13.3042 706.877 -59.2474 711.091 -94.056 726.185" stroke="url(#paint17_linear_1_187)" stroke-width="0.62" stroke-miterlimit="10"/>
<path opacity="0.59" d="M1973.19 1503.2C1911.35 1487.86 1854.04 1426.1 1776.94 1353.82C1727.77 1307.79 1671.77 1256.23 1620.3 1205.52C1576.53 1161.57 1529.96 1120.41 1480.76 1082.2C1462.71 1067.87 1443.39 1055.03 1422.93 1043.76C1376.15 1019.11 1331.28 1011.85 1293.03 1005.82C1281.8 1004.07 1270.89 1002.5 1260.32 1001.13C1238.76 998.171 1216.7 996.676 1194.28 996.65C1185.2 996.723 1175.07 997.005 1163.61 997.736C1143.82 999.004 1120.22 999.94 1095.8 991.804C1068.75 982.939 1051.96 965.445 1037.86 953.047C1032.6 948.383 1027.66 944.69 1023.29 941.559C1012.19 933.972 1000.32 927.358 987.797 921.77C976.764 916.498 965.508 911.301 954.004 906.26C924.646 893.211 894.144 875.73 838.217 856.384C803.207 844.303 758.041 833.519 708.402 822.983C676.102 816.136 643.239 809.406 610.872 804.45C542.477 793.901 481.603 788.871 425.687 782.856C369.099 777.345 313.917 767.693 260.558 753.973C233.975 746.962 206.867 738.259 178.733 728.752C143.729 717.027 106.568 704.089 65.5406 698.561C24.5133 693.034 -21.4354 696.603 -56.5046 710.563" stroke="url(#paint18_linear_1_187)" stroke-width="0.61" stroke-miterlimit="10"/>
<path opacity="0.56" d="M2000.93 1506.58C1944.14 1484.11 1892.15 1416.94 1817.69 1340.28C1770.72 1291.94 1715.86 1238.41 1664.44 1186.57C1620.89 1141.81 1573.93 1100.41 1523.81 1062.6C1505.44 1048.39 1485.68 1035.82 1464.7 1024.99C1416.73 1001.6 1370.53 996.559 1331.15 993.065C1319.61 992.011 1308.4 991.195 1297.52 990.617C1275.25 989.337 1252.57 989.573 1229.64 991.324C1220.45 992.045 1210.06 993.025 1198.49 994.334C1178.33 996.626 1154.41 998.387 1129.73 990.305C1102.46 981.513 1086.17 963.201 1072.86 949.712C1067.9 944.695 1063.29 940.533 1059.26 937.037C1049.04 928.339 1038.17 920.358 1026.7 913.131C1016.6 906.397 1006.33 899.896 995.746 893.289C968.851 876.607 940.835 855.379 886.007 833.183C851.697 819.356 806.723 807.358 756.907 796.342C724.539 789.266 691.359 782.463 658.658 777.907C589.438 768.139 527.604 765.23 470.514 761.479C413.424 757.727 360.549 752.306 302.058 739.106C275.163 732.668 247.185 724.689 218.684 715.628C183.102 704.494 145.487 691.924 104.179 686.311C62.8712 680.698 16.9171 683.622 -18.5885 696.579" stroke="url(#paint19_linear_1_187)" stroke-width="0.61" stroke-miterlimit="10"/>
<path opacity="0.54" d="M2028.99 1511.91C1977.3 1482.33 1930.55 1409.73 1858.87 1328.65C1813.89 1278.05 1760.38 1222.53 1709.01 1169.55C1665.67 1124.01 1618.32 1082.37 1567.3 1044.94C1548.62 1030.87 1528.43 1018.62 1506.93 1008.3C1457.85 985.892 1410.2 983.35 1369.75 982.337C1357.87 982.021 1346.31 981.958 1335.06 982.15C1312.15 982.403 1288.93 984.215 1265.55 987.575C1256.21 988.921 1245.62 990.69 1233.87 992.488C1213.35 995.802 1189.14 998.377 1164.28 990.322C1136.68 981.423 1120.93 962.464 1108.45 948.01C1103.88 942.361 1099.47 938.021 1095.85 934.066C1084.97 922.453 1075.29 914.21 1066.16 906.104C1057.04 897.997 1047.69 889.964 1038.08 881.916C1013.64 861.568 988.187 836.601 934.394 811.649C900.826 796.099 855.965 782.876 806.013 771.403C773.547 763.857 740.108 757.141 707.032 752.963C636.988 743.975 574.229 743.175 515.942 741.803C457.654 740.432 403.66 737.4 343.99 725.819C316.342 720.425 288.053 713.018 258.964 704.479C222.815 694.039 184.692 681.711 143.15 676.069C101.607 670.428 55.6802 672.659 19.6556 684.569" stroke="url(#paint20_linear_1_187)" stroke-width="0.6" stroke-miterlimit="10"/>
<path opacity="0.51" d="M2057.18 1519.39C2010.58 1482.7 1969.03 1404.72 1900.21 1319.16C1857.58 1266.19 1805.22 1208.73 1753.71 1154.69C1710.59 1108.32 1662.84 1066.43 1610.91 1029.4C1591.89 1015.46 1571.27 1003.5 1549.27 993.653C1498.88 972.443 1450.02 972.246 1408.46 973.691C1396.27 974.128 1384.42 974.811 1372.91 975.738C1349.35 977.585 1325.57 981.036 1301.75 986.066L1269.58 992.903C1248.7 997.31 1224.17 1000.64 1199.04 992.639C1171.18 983.758 1155.94 964.014 1144.24 948.401C1139.89 942.677 1135.93 937.612 1132.6 933.269C1122.75 920.341 1114.05 910.76 1105.86 901.191C1097.66 891.621 1089.29 882.182 1080.65 872.692C1058.63 848.69 1035.74 819.985 982.976 792.242C949.963 774.996 905.399 760.487 855.312 748.557C822.829 740.635 789.53 734.567 755.555 730.377C684.723 722.158 621.036 723.431 561.533 724.302C502.685 725.168 446.861 724.692 386.055 715.075C357.712 710.562 328.995 703.73 299.433 695.71C262.66 685.803 224.097 673.947 182.306 668.173C140.516 662.4 94.4443 664.105 58.0527 674.952" stroke="url(#paint21_linear_1_187)" stroke-width="0.6" stroke-miterlimit="10"/>
<path opacity="0.49" d="M2085.35 1529.24C2043.82 1485.43 2007.48 1402.09 1941.47 1312.06C1901.01 1256.78 1849.78 1197.36 1798.4 1142.16C1755.5 1095 1707.35 1052.85 1654.52 1016.24C1635.16 1002.42 1614.08 990.757 1591.56 981.394C1540.01 961.296 1489.8 963.46 1447.28 967.348C1434.76 968.542 1422.58 969.946 1410.78 971.653C1386.55 975.1 1362.22 980.193 1337.94 986.896C1328.35 989.551 1317.34 992.574 1305.29 995.658C1284.03 1001.09 1259.19 1005.24 1233.83 997.248C1205.74 988.408 1190.98 967.891 1180.07 951.221C1176.04 945.029 1172.42 939.599 1169.43 934.856C1160.57 920.659 1152.84 909.603 1145.55 898.686C1138.26 887.768 1130.85 876.82 1123.18 865.889C1103.62 838.22 1083.25 805.754 1031.56 775.209C999.437 756.224 954.834 740.507 904.607 728.084C872.007 719.833 838.434 713.764 804.081 709.912C732.429 702.508 667.794 706.004 607.182 709.045C547.242 712.22 490.16 714.252 428.056 706.223C397.969 702.087 368.507 696.274 339.797 688.81C302.444 679.494 263.432 668.041 221.361 662.181C179.29 656.322 133.18 657.429 96.3525 667.273" stroke="url(#paint22_linear_1_187)" stroke-width="0.59" stroke-miterlimit="10"/>
<path opacity="0.46" d="M2113.32 1541.68C2076.89 1490.72 2045.64 1402.08 1982.56 1307.51C1944.38 1249.91 1894.18 1188.56 1842.88 1132.22C1799.94 1084.96 1751.78 1041.12 1697.91 1005.66C1678.21 991.971 1656.7 980.6 1633.69 971.709C1580.93 952.735 1529.36 957.259 1485.63 963.712C1472.78 965.64 1460.3 967.816 1448.19 970.241C1423.31 975.278 1398.44 982.017 1373.75 990.408C1364 993.689 1352.85 997.442 1340.45 1001.11C1318.83 1007.6 1293.66 1012.55 1268.08 1004.59C1239.72 995.767 1225.48 974.466 1215.39 956.693C1211.67 950.147 1208.37 944.283 1205.71 939.14C1197.86 923.812 1191.09 911.211 1184.81 898.875C1178.54 886.539 1172.02 874.105 1165.31 861.734C1148.18 830.41 1130.34 794.219 1079.74 760.824C1048.33 740.128 1003.87 723.174 953.479 710.34C920.781 701.782 886.947 695.742 852.234 692.266C779.79 685.596 714.176 691.076 652.335 696.543C591.41 701.954 532.959 706.532 469.656 700.272C439.026 696.97 409.045 691.795 379.87 684.774C341.93 675.98 302.435 664.976 260.121 659.019C217.806 653.062 171.792 653.706 134.497 662.306" stroke="url(#paint23_linear_1_187)" stroke-width="0.58" stroke-miterlimit="10"/>
<path opacity="0.44" d="M2140.88 1556.92C2109.54 1498.85 2083.39 1404.9 2023.27 1305.77C1987.03 1246.09 1938.2 1182.62 1887 1125.21C1844.27 1077.19 1795.73 1033.08 1740.91 998.012C1720.9 984.416 1698.96 973.333 1675.45 964.947C1621.5 947.166 1568.63 954.176 1523.73 962.927C1510.59 965.554 1497.81 968.479 1485.38 971.702C1459.84 978.344 1434.4 986.726 1409.26 996.785C1399.36 1000.73 1387.99 1005.13 1375.59 1009.37C1353.44 1016.83 1328.15 1022.65 1302.3 1014.74C1273.68 1005.94 1259.84 983.89 1250.65 965.023C1247.23 958.09 1244.26 951.791 1242.03 946.361C1235.15 929.627 1229.37 915.757 1224.01 902.108C1218.64 888.46 1213.12 874.469 1207.38 860.656C1192.71 825.701 1177.39 785.749 1127.71 749.6C1097.01 727.194 1052.7 709.003 1002.17 695.678C969.353 686.832 935.243 680.825 900.167 677.714C826.931 671.778 760.356 679.378 697.275 687.203C635.14 694.891 575.509 701.986 511.007 697.495C479.869 694.895 449.403 690.226 419.799 683.519C381.288 675.383 341.327 664.645 298.737 658.637C256.146 652.629 209.965 652.575 172.279 660.227" stroke="url(#paint24_linear_1_187)" stroke-width="0.58" stroke-miterlimit="10"/>
<path opacity="0.41" d="M2167.95 1575.23C2141.67 1510.07 2120.58 1410.78 2063.46 1307.13C2029.22 1245.11 1981.69 1179.7 1930.53 1121.09C1888.05 1072.27 1839.12 1027.89 1783.24 993.253C1762.86 979.8 1740.47 969.015 1716.47 961.096C1661.31 944.404 1607.08 953.672 1561.17 965.063C1547.66 968.425 1534.57 972.11 1521.83 976.075C1495.62 984.313 1469.63 994.346 1444.07 1006.09C1434.02 1010.66 1422.46 1015.74 1409.91 1020.57C1387.56 1029.21 1361.79 1035.73 1335.7 1027.8C1306.82 1019.04 1293.61 996.174 1285.1 976.288C1282.01 968.99 1279.45 962.197 1277.42 956.267C1271.57 938.251 1266.77 923.01 1262.33 907.829C1257.88 892.648 1253.34 877.286 1248.55 862.148C1236.37 823.513 1223.55 779.882 1175.26 740.784C1145.22 716.679 1101.14 697.192 1050.43 683.422C1017.5 674.289 983.114 668.315 947.676 665.569C873.653 660.401 806.149 670.075 741.936 680.187C678.709 690.182 617.82 699.786 552.115 697.029C520.353 695.394 489.265 691.481 459.079 685.321C419.952 677.789 379.542 667.453 336.634 661.372C293.726 655.292 247.568 654.51 209.506 661.031" stroke="url(#paint25_linear_1_187)" stroke-width="0.57" stroke-miterlimit="10"/>
<path opacity="0.39" d="M2194.28 1596.85C2173.1 1524.55 2157.03 1419.97 2102.91 1311.78C2070.74 1247.49 2024.45 1180.05 1973.37 1120.33C1931.1 1070.76 1881.83 1026.1 1825.15 991.8C1804.42 978.473 1781.58 967.982 1757.11 960.538C1700.78 944.958 1645.19 956.586 1598.14 970.518C1584.34 974.589 1570.93 979.031 1557.9 983.74C1531.05 993.57 1504.55 1005.24 1478.6 1018.66C1468.41 1023.85 1456.63 1029.65 1443.96 1035.03C1421.21 1044.74 1395.11 1052.05 1368.83 1044.14C1339.64 1035.42 1326.96 1011.8 1319.27 990.81C1316.44 983.137 1314.17 975.956 1312.69 969.517C1307.84 950.233 1303.98 933.598 1300.5 916.976C1297.03 900.354 1293.37 883.437 1289.57 866.742C1279.81 824.454 1269.52 777.097 1222.12 735.258C1192.86 709.417 1148.89 688.706 1098.01 674.491C1064.98 665.033 1030.32 659.075 994.527 656.702C919.642 652.327 851.209 664.074 785.844 676.622C721.518 688.857 659.338 701.015 592.43 699.994C560.087 699.279 528.41 696.088 497.668 690.448C457.925 683.518 417.061 673.551 373.951 667.394C330.841 661.238 284.423 659.933 246.012 665.53" stroke="url(#paint26_linear_1_187)" stroke-width="0.57" stroke-miterlimit="10"/>
<path opacity="0.37" d="M2219.72 1622C2203.6 1542.6 2192.51 1432.72 2141.46 1319.94C2111.35 1253.41 2066.32 1184.03 2015.35 1123.09C1973.26 1072.78 1923.65 1027.83 1866.02 993.967C1844.92 980.679 1821.63 970.416 1796.64 963.405C1739.11 948.984 1682.21 962.961 1634.09 979.372C1619.95 984.132 1606.21 989.331 1592.86 994.831C1565.31 1006.28 1538.22 1019.6 1511.81 1034.69C1501.47 1040.58 1489.51 1047.01 1476.68 1053.02C1453.56 1063.78 1427.14 1071.89 1400.64 1063.99C1371.18 1055.28 1359.01 1030.88 1352.11 1008.83C1349.8 1001.52 1347.9 994.017 1346.42 986.342C1342.57 965.823 1339.68 947.747 1337.14 929.731C1334.61 911.715 1331.92 893.426 1329.06 875.303C1321.77 829.382 1314 778.264 1267.69 733.576C1239.14 706.058 1195.28 684.089 1144.26 669.416C1111.12 659.67 1076.18 653.745 1040.03 651.738C964.392 648.118 894.994 661.952 828.41 676.707C763.046 691.375 699.613 706.077 631.506 706.824C598.686 706.893 566.521 704.306 535.319 699.088C495.038 692.771 453.68 683.149 410.285 676.873C366.889 670.597 320.659 668.654 281.682 673.435" stroke="url(#paint27_linear_1_187)" stroke-width="0.56" stroke-miterlimit="10"/>
<path opacity="0.34" d="M2243.66 1651.07C2232.59 1564.54 2226.45 1449.4 2178.48 1332.06C2150.43 1263.26 2106.64 1191.92 2055.77 1129.83C2013.88 1078.73 1963.92 1033.51 1905.38 1000.02C1883.14 987.198 1859.62 976.138 1834.75 970.525C1776.06 957.215 1717.8 973.587 1668.57 992.457C1654.12 998.042 1640.04 1003.93 1626.41 1010.24C1598.13 1023.28 1570.43 1038.26 1543.57 1055.06C1531.93 1062.35 1520.04 1069.1 1507.95 1075.27C1484.51 1087.12 1457.76 1095.98 1431.03 1088.12C1401.31 1079.43 1389.61 1054.25 1383.54 1031.14C1381.5 1023.48 1379.92 1015.61 1378.83 1007.57C1376.04 985.72 1374.09 966.284 1372.49 946.839C1370.89 927.394 1369.17 907.665 1367.28 888.066C1362.41 838.491 1357.13 783.66 1311.92 736.156C1284.07 706.892 1240.4 683.709 1189.25 668.544C1155.99 658.504 1120.76 652.61 1084.26 650.976C1007.77 647.965 937.433 664.057 869.684 681.146C803.166 697.928 738.432 715.115 669.127 717.632C635.796 718.536 603.098 716.605 571.381 711.858C530.48 706.109 488.599 696.915 445.034 690.516C401.469 684.118 355.053 681.626 315.646 685.15" stroke="url(#paint28_linear_1_187)" stroke-width="0.56" stroke-miterlimit="10"/>
<path opacity="0.32" d="M2263.12 1685.24C2257.15 1591.61 2255.92 1471.15 2211.1 1349.26C2184.96 1278.2 2142.58 1204.88 2091.74 1141.62C2050.11 1089.79 1999.73 1044.28 1940.27 1011.17C1917.66 998.509 1893.76 987.722 1868.37 982.572C1808.47 970.386 1748.86 989.119 1698.64 1010.48C1684.04 1016.72 1669.49 1023.42 1655.56 1030.44C1626.65 1045.09 1598.44 1061.71 1571.19 1080.15C1559.45 1088.13 1547.4 1095.51 1535.08 1102.26C1511.28 1115.16 1484.06 1124.86 1457.21 1117.01C1427.26 1108.33 1416.05 1082.38 1410.8 1058.19C1409 1050.1 1407.76 1041.78 1407.07 1033.28C1405.28 1010.2 1404.3 989.325 1403.63 968.452C1402.97 947.579 1402.11 926.445 1401.27 905.381C1398.87 852.276 1396.06 793.629 1351.96 743.275C1324.89 712.276 1281.31 687.984 1230.01 672.258C1196.54 661.94 1160.94 656.095 1123.99 654.853C1046.71 652.761 975.561 670.705 906.668 690.298C839.068 709.457 772.994 729.109 702.523 733.348C668.678 735.104 635.441 733.817 603.213 729.502C561.678 724.218 519.413 715.333 475.498 708.908C431.583 702.484 385.231 699.287 345.387 701.808" stroke="url(#paint29_linear_1_187)" stroke-width="0.55" stroke-miterlimit="10"/>
<path opacity="0.29" d="M2280.16 1723.96C2279.26 1623.23 2282.9 1497.51 2241.23 1371.04C2217.1 1297.71 2176.01 1222.41 2125.41 1157.96C2084.02 1105.37 2033.26 1059.59 1972.86 1026.87C1949.92 1014.39 1925.55 1003.83 1899.69 999.168C1838.58 988.141 1777.73 1009.2 1726.22 1033.11C1711.14 1040.13 1696.41 1047.53 1682.19 1055.3C1652.61 1071.55 1623.85 1089.81 1596.18 1109.91C1584.32 1118.58 1572.09 1126.61 1559.55 1133.96C1535.42 1147.94 1508 1158.5 1480.8 1150.58C1450.54 1141.93 1439.84 1115.2 1435.38 1089.96C1433.88 1081.44 1432.97 1072.71 1432.66 1063.81C1431.9 1039.48 1431.89 1017.17 1432.13 994.911C1432.36 972.656 1432.62 949.963 1432.63 927.495C1432.67 870.586 1432.38 808.363 1389.37 755.159C1362.94 722.508 1319.56 696.817 1268.17 680.724C1234.7 670.08 1198.9 664.233 1161.7 663.331C1083.44 662.069 1011.18 682.149 941.062 703.881C872.352 725.21 805.112 747.483 733.364 753.482C699.001 756.045 665.212 755.384 632.445 751.507C590.357 747.02 547.601 738.516 503.443 731.994C461.027 725.268 417.261 722.324 372.615 723.194" stroke="url(#paint30_linear_1_187)" stroke-width="0.54" stroke-miterlimit="10"/>
<path opacity="0.27" d="M2295 1767.41C2299.16 1659.56 2307.66 1528.53 2269.19 1397.53C2247.01 1321.94 2207.28 1244.67 2156.53 1179.12C2115.28 1125.75 2064.22 1079.72 2002.88 1047.53C1979.62 1035.2 1954.85 1024.88 1928.47 1020.71C1866.17 1010.81 1803.89 1034.25 1751.35 1060.63C1735.93 1068.38 1720.94 1076.53 1706.38 1085.08C1676.1 1102.93 1646.79 1122.84 1618.72 1144.63C1606.76 1153.96 1594.36 1162.63 1581.6 1170.57C1557.1 1185.6 1529.39 1196.84 1501.94 1189.07C1471.41 1180.44 1461.19 1152.94 1457.6 1126.62C1456.35 1117.69 1455.76 1108.55 1455.83 1099.25C1456.06 1073.65 1457.22 1049.87 1458.05 1026.3C1458.89 1002.72 1460.41 978.49 1461.4 954.58C1463.9 894.04 1466.09 828.068 1424.19 772.049C1398.45 737.584 1355.23 710.725 1303.63 694.2C1270.04 683.261 1233.96 677.445 1196.4 676.917C1117.5 676.34 1044.28 698.54 973.031 722.593C903.213 746.092 834.691 770.988 761.74 778.722C726.876 782.132 692.541 782.144 659.23 778.757C616.84 774.622 573.626 766.452 529.187 759.845C486.395 753.018 442.413 749.49 397.595 749.289" stroke="url(#paint31_linear_1_187)" stroke-width="0.54" stroke-miterlimit="10"/>
<path opacity="0.24" d="M2307.62 1815.75C2316.86 1700.75 2330.2 1564.43 2294.92 1428.88C2274.68 1351.04 2236.32 1271.77 2185.77 1205.04C2144.73 1150.92 2093.32 1104.61 2031.01 1072.67C2007.42 1060.49 1982.19 1050.44 1955.33 1046.75C1891.82 1037.97 1828.2 1063.81 1774.59 1092.67C1758.85 1101.13 1743.54 1110.02 1728.66 1119.34C1697.71 1138.79 1667.85 1160.35 1639.36 1183.79C1627.3 1193.78 1614.73 1203.09 1601.76 1211.65C1576.86 1227.8 1548.82 1239.79 1521.18 1232.02C1490.39 1223.44 1480.64 1195.13 1477.87 1167.74C1476.91 1158.43 1476.64 1148.91 1477.08 1139.25C1478.38 1112.36 1480.33 1087.23 1482.37 1061.99C1484.42 1036.76 1486.64 1011.32 1488.59 985.968C1493.55 921.726 1498.42 851.979 1457.43 793.207C1432.41 757.134 1389.37 728.923 1337.6 711.952C1303.89 700.735 1267.51 694.961 1229.62 694.815C1149.93 695.04 1075.74 719.292 1003.31 745.828C932.398 771.635 862.63 799.143 788.463 808.508C753.091 812.792 718.2 813.454 684.352 810.483C641.093 807.073 597.443 799.409 552.765 792.738C509.527 785.858 465.276 781.763 420.262 780.477" stroke="url(#paint32_linear_1_187)" stroke-width="0.53" stroke-miterlimit="10"/>
<path opacity="0.22" d="M2317.91 1869.15C2332.26 1747.04 2350.38 1605.41 2318.37 1465.3C2298.16 1380.45 2262.4 1302.96 2212.61 1236.08C2171.74 1181.22 2119.99 1134.59 2056.77 1103.04C2032.82 1091.04 2007.19 1081.23 1979.78 1078.02C1915.11 1070.39 1850.17 1098.57 1795.45 1129.93C1779.37 1139.15 1763.74 1148.78 1748.54 1158.84C1716.92 1179.93 1686.51 1203.15 1657.6 1228.26C1645.44 1238.92 1632.72 1248.88 1619.51 1258.05C1594.33 1275.22 1565.92 1287.98 1538.01 1280.26C1507.11 1271.72 1497.72 1242.54 1495.89 1214.08C1495.16 1204.34 1495.18 1194.4 1495.94 1184.34C1498.24 1156.25 1501.12 1129.69 1504.16 1103.15C1507.19 1076.61 1510.28 1049.58 1513.14 1022.81C1520.52 954.952 1527.73 881.541 1488.03 819.857C1463.68 782.085 1420.82 752.625 1368.87 735.175C1335.07 723.643 1298.4 717.884 1260.17 718.102C1179.65 719.073 1104.52 745.329 1030.92 774.13C958.876 802.223 887.855 832.274 812.558 843.348C776.73 848.47 741.321 849.82 706.939 847.377C663.039 844.685 618.945 837.458 573.854 830.567C530.281 823.587 485.866 818.899 440.776 816.523" stroke="url(#paint33_linear_1_187)" stroke-width="0.53" stroke-miterlimit="10"/>
<path opacity="0.2" d="M2325.88 1927.82C2345.28 1798.62 2368.19 1651.63 2339.45 1507.01C2321.47 1420.08 2286.8 1340.65 2237.05 1272.42C2196.39 1216.77 2144.3 1169.9 2080.13 1138.74C2055.85 1126.85 2029.79 1117.33 2001.86 1114.58C1935.98 1108 1869.69 1138.65 1813.91 1172.49C1797.52 1182.44 1781.57 1192.83 1766.06 1203.65C1733.75 1226.34 1702.79 1251.18 1673.47 1277.95C1661.2 1289.25 1648.31 1299.84 1634.89 1309.62C1609.38 1327.88 1580.58 1341.45 1552.48 1333.76C1521.16 1325.22 1512.4 1295.32 1511.25 1265.84C1510.88 1255.65 1511.28 1245.28 1512.45 1234.81C1515.78 1205.44 1519.63 1177.48 1523.6 1149.51C1527.57 1121.54 1531.78 1093.02 1535.54 1064.84C1545.33 993.254 1555.03 916.164 1516.44 851.664C1492.79 812.182 1450.08 781.485 1398 763.577C1364.09 751.706 1327.11 745.942 1288.53 746.511C1207.22 748.251 1131.14 776.662 1056.35 807.692C983.215 838.059 910.94 870.652 834.371 883.521C798.02 889.419 762.031 891.383 727.06 889.377C682.618 887.263 638.011 880.245 592.818 873.46C547.625 866.675 501.033 860.396 459.018 857.681" stroke="url(#paint34_linear_1_187)" stroke-width="0.52" stroke-miterlimit="10"/>
<path opacity="0.17" d="M2331.28 1992.02C2355.78 1855.68 2383.48 1703.38 2357.97 1554.22C2342.2 1465.31 2308.65 1383.97 2259.02 1314.37C2218.57 1257.97 2166.1 1210.83 2101.01 1180.05C2076.4 1168.35 2049.87 1159.05 2021.47 1156.79C1954.4 1151.44 1886.74 1184.34 1829.85 1220.67C1813.24 1231.32 1796.99 1242.46 1781.09 1254.08C1748.09 1278.39 1716.57 1304.89 1686.83 1333.33C1674.46 1345.29 1661.4 1356.51 1647.76 1366.89C1621.9 1386.38 1592.79 1400.56 1564.43 1392.89C1532.85 1384.4 1524.57 1353.72 1524.25 1323.18C1524.15 1312.57 1524.89 1301.79 1526.44 1290.92C1530.8 1260.3 1535.59 1230.9 1540.5 1201.54C1545.41 1172.18 1550.43 1142.2 1555.3 1112.53C1567.56 1037.35 1579.71 956.485 1542.15 889.195C1519.2 847.967 1476.65 816.068 1424.42 797.669C1390.39 785.563 1353.12 779.876 1314.21 780.851C1232.12 783.324 1155.03 813.834 1079.09 847.232C1004.85 879.838 931.315 914.939 853.547 929.577C816.719 936.334 780.182 938.985 744.649 937.477C699.595 936 654.535 929.35 609.089 922.399C563.644 915.447 517.131 908.279 474.633 904.505" stroke="url(#paint35_linear_1_187)" stroke-width="0.52" stroke-miterlimit="10"/>
<path opacity="0.15" d="M2334.05 2061.93C2363.65 1918.48 2396.05 1760.72 2373.87 1607.2C2360.34 1516.22 2327.88 1432.87 2278.29 1361.8C2238.02 1304.66 2185.24 1257.22 2119.2 1226.83C2094.19 1215.3 2067.27 1206.25 2038.39 1204.47C1970.12 1200.28 1901.15 1235.53 1843.22 1274.33C1826.17 1285.75 1809.59 1297.63 1793.48 1309.97C1759.8 1335.88 1727.74 1364.02 1697.6 1394.11C1685.12 1406.72 1671.89 1418.59 1658.01 1429.61C1631.81 1450 1602.36 1465.13 1573.77 1457.5C1541.88 1449 1534.01 1417.61 1534.66 1385.91C1534.87 1374.9 1535.93 1363.73 1537.82 1352.5C1543.17 1320.61 1549.05 1289.78 1554.78 1259.02C1560.52 1228.27 1566.62 1196.81 1572.46 1165.7C1587.18 1086.85 1601.63 1002.3 1565.46 932.097C1543.2 889.274 1500.82 856.023 1448.46 837.165C1414.32 824.728 1376.74 819.036 1337.48 820.355C1254.56 823.643 1176.46 856.114 1099.43 891.923C1024.05 926.678 949.314 964.447 870.306 980.832C833.016 988.349 795.949 991.609 759.868 990.544C714.236 989.657 668.722 983.376 622.996 976.339C577.27 969.302 530.611 961.896 487.759 957.162" stroke="url(#paint36_linear_1_187)" stroke-width="0.51" stroke-miterlimit="10"/>
<path opacity="0.12" d="M2334.16 2137.77C2368.83 1987.22 2405.98 1824.23 2387.1 1666.08C2375.78 1573.11 2344.41 1487.79 2294.87 1415.27C2254.82 1357.41 2201.69 1309.66 2134.73 1279.65C2109.36 1268.28 2082.09 1259.49 2052.62 1258.23C1983.17 1255.11 1912.86 1292.76 1853.75 1334.08C1836.41 1346.22 1819.52 1358.84 1803.1 1371.94C1768.72 1399.46 1736.1 1429.25 1705.54 1461.02C1692.95 1474.28 1679.56 1486.79 1665.47 1498.45C1638.94 1519.88 1609.17 1535.8 1580.31 1528.19C1548.23 1519.72 1540.95 1487.52 1542.23 1454.74C1542.75 1443.29 1544.14 1431.7 1546.38 1420.06C1552.78 1386.97 1559.51 1354.72 1566.29 1322.5C1573.07 1290.28 1579.99 1257.4 1586.81 1224.85C1603.98 1142.36 1621.07 1054.05 1585.83 981.097C1564.29 936.447 1522.06 901.925 1469.54 882.726C1435.3 869.982 1397.42 864.316 1357.84 866.014C1274.13 870.036 1195.1 904.58 1116.83 942.747C1040.35 979.775 964.358 1020.05 884.148 1038.17C846.374 1046.52 808.744 1050.45 772.077 1049.87C725.828 1049.59 679.861 1043.67 633.859 1036.59C587.856 1029.5 541.151 1021.43 497.85 1015.59" stroke="url(#paint37_linear_1_187)" stroke-width="0.5" stroke-miterlimit="10"/>
<path opacity="0.07" d="M2325.16 2308.25C2369.97 2143.43 2416.64 1969.65 2404.32 1802.57C2397.32 1705.79 2368.17 1616.56 2318.89 1541.03C2279.11 1481.71 2225.4 1433.33 2156.54 1404.11C2130.52 1393.06 2102.35 1384.79 2071.92 1384.43C2000.07 1383.63 1927.04 1426 1865.76 1472.29C1847.79 1485.89 1830.27 1500 1813.22 1514.63C1777.47 1545.37 1743.74 1578.45 1712.38 1613.55C1699.61 1628.08 1685.92 1641.86 1671.44 1654.76C1644.25 1678.28 1613.75 1695.74 1584.45 1688.27C1551.8 1679.86 1545.43 1646.02 1548.49 1611.21C1549.58 1598.91 1551.62 1586.5 1554.6 1574.07C1563.06 1538.48 1571.63 1503.39 1580.32 1468.37C1589.02 1433.35 1597.83 1397.5 1606.55 1362.07C1628.61 1272.27 1650.57 1176.57 1617.67 1097.9C1597.43 1049.86 1555.65 1012.89 1502.83 992.786C1468.36 979.45 1429.87 973.832 1389.61 976.261C1304.29 981.832 1223.33 1020.58 1142.73 1063.35C1064.02 1104.94 985.516 1150.26 902.871 1171.93C864.162 1181.85 825.433 1187.08 787.599 1187.51C740.192 1188.41 693.29 1183.31 646.755 1175.98C600.22 1168.64 553.447 1159.43 509.301 1151.51" stroke="url(#paint38_linear_1_187)" stroke-width="0.49" stroke-miterlimit="10"/>
<path opacity="0.05" d="M2315.92 2403.47C2365.8 2231.56 2417.06 2052.43 2408.21 1880.84C2403.22 1784.58 2376.09 1689.91 2326.15 1613.74C2286.58 1553.67 2232.5 1505.09 2162.72 1476.21C2136.33 1465.29 2107.73 1457.27 2076.79 1457.44C2003.66 1457.79 1929.43 1502.44 1867.01 1551.27C1848.71 1565.59 1830.89 1580.46 1813.56 1595.85C1777.1 1628.2 1742.81 1662.93 1711.03 1699.69C1698.13 1714.88 1684.24 1729.31 1669.49 1742.82C1641.84 1767.55 1611.13 1785.75 1581.59 1778.23C1548.67 1769.83 1542.82 1735.21 1546.67 1699.34C1548.07 1686.62 1550.44 1673.81 1553.78 1661C1563.24 1624.14 1572.78 1587.65 1582.4 1551.13C1592.01 1514.61 1601.81 1477.39 1611.5 1440.52C1636.01 1347.05 1660.46 1247.61 1628.66 1166.12C1609.1 1116.38 1567.36 1078.24 1514.65 1057.49C1480.12 1043.85 1441.38 1038.23 1400.85 1040.98C1314.71 1047.33 1232.79 1088.21 1151.05 1133.26C1071.21 1177.13 991.486 1224.95 907.749 1248.32C868.589 1259.03 829.32 1264.92 790.914 1265.83C742.895 1267.36 695.526 1262.53 648.761 1255.2C601.995 1247.86 555.171 1237.96 510.617 1228.95" stroke="url(#paint39_linear_1_187)" stroke-width="0.49" stroke-miterlimit="10"/>
<path opacity="0.02" d="M2303.28 2505.46C2358.25 2326.44 2414.25 2141.86 2408.69 1965.9C2405.59 1867.27 2379.88 1770.73 2330.07 1693.51C2290.71 1632.64 2236.28 1583.75 2165.56 1555.33C2138.84 1544.56 2109.77 1536.8 2078.54 1537.36C2004.29 1538.84 1928.63 1585.91 1865.13 1637.19C1846.52 1652.27 1828.38 1667.89 1810.7 1684.04C1773.58 1718.02 1738.74 1754.39 1706.54 1792.78C1693.54 1808.63 1679.48 1823.7 1664.51 1837.84C1636.68 1863.56 1605.46 1882.62 1575.73 1875.09C1542.54 1866.74 1537.21 1831.34 1541.81 1794.42C1543.45 1781.3 1546.08 1768.09 1549.65 1754.91C1560.18 1716.81 1570.73 1678.83 1581.29 1640.96L1613.26 1525.97C1640.2 1428.85 1667.2 1325.63 1636.48 1241.41C1617.62 1189.93 1576.18 1150.5 1523.03 1129.39C1488.35 1115.45 1449.24 1109.87 1408.34 1113.04C1321.37 1120.17 1238.47 1163.03 1155.58 1210.48C1074.68 1256.65 993.656 1306.96 908.573 1332.15C868.952 1343.64 829.134 1350.18 790.137 1351.59C741.522 1353.58 693.573 1349.34 646.675 1341.87C599.777 1334.4 552.767 1323.95 507.736 1313.91" stroke="url(#paint40_linear_1_187)" stroke-width="0.48" stroke-miterlimit="10"/>
<defs>
<linearGradient id="paint0_linear_1_187" x1="516.268" y1="624.65" x2="912.733" y2="1802.57" gradientUnits="userSpaceOnUse">
<stop stop-color="#90A1F6"/>
<stop offset="1" stop-color="#FD1ACB"/>
</linearGradient>
<linearGradient id="paint1_linear_1_187" x1="532.118" y1="634.909" x2="923.032" y2="1796.34" gradientUnits="userSpaceOnUse">
<stop stop-color="#90A1F6"/>
<stop offset="1" stop-color="#FD1ACB"/>
</linearGradient>
<linearGradient id="paint2_linear_1_187" x1="533.31" y1="630.836" x2="926.038" y2="1797.65" gradientUnits="userSpaceOnUse">
<stop stop-color="#90A1F6"/>
<stop offset="1" stop-color="#FD1ACB"/>
</linearGradient>
<linearGradient id="paint3_linear_1_187" x1="537.861" y1="624.554" x2="932.541" y2="1797.17" gradientUnits="userSpaceOnUse">
<stop stop-color="#90A1F6"/>
<stop offset="1" stop-color="#FD1ACB"/>
</linearGradient>
<linearGradient id="paint4_linear_1_187" x1="545.266" y1="615.763" x2="942.194" y2="1795.06" gradientUnits="userSpaceOnUse">
<stop stop-color="#90A1F6"/>
<stop offset="1" stop-color="#FD1ACB"/>
</linearGradient>
<linearGradient id="paint5_linear_1_187" x1="555.445" y1="605.171" x2="954.771" y2="1791.59" gradientUnits="userSpaceOnUse">
<stop stop-color="#90A1F6"/>
<stop offset="1" stop-color="#FD1ACB"/>
</linearGradient>
<linearGradient id="paint6_linear_1_187" x1="568.395" y1="592.899" x2="970.294" y2="1786.96" gradientUnits="userSpaceOnUse">
<stop stop-color="#90A1F6"/>
<stop offset="1" stop-color="#FD1ACB"/>
</linearGradient>
<linearGradient id="paint7_linear_1_187" x1="583.734" y1="578.845" x2="988.498" y2="1781.42" gradientUnits="userSpaceOnUse">
<stop stop-color="#90A1F6"/>
<stop offset="1" stop-color="#FD1ACB"/>
</linearGradient>
<linearGradient id="paint8_linear_1_187" x1="601.396" y1="563.827" x2="1009.16" y2="1775.31" gradientUnits="userSpaceOnUse">
<stop stop-color="#90A1F6"/>
<stop offset="1" stop-color="#FD1ACB"/>
</linearGradient>
<linearGradient id="paint9_linear_1_187" x1="621.105" y1="547.653" x2="1032.1" y2="1768.74" gradientUnits="userSpaceOnUse">
<stop stop-color="#90A1F6"/>
<stop offset="1" stop-color="#FD1ACB"/>
</linearGradient>
<linearGradient id="paint10_linear_1_187" x1="642.975" y1="530.762" x2="1057.39" y2="1762.01" gradientUnits="userSpaceOnUse">
<stop stop-color="#90A1F6"/>
<stop offset="1" stop-color="#FD1ACB"/>
</linearGradient>
<linearGradient id="paint11_linear_1_187" x1="666.439" y1="512.927" x2="1084.63" y2="1755.4" gradientUnits="userSpaceOnUse">
<stop stop-color="#90A1F6"/>
<stop offset="1" stop-color="#FD1ACB"/>
</linearGradient>
<linearGradient id="paint12_linear_1_187" x1="691.583" y1="494.988" x2="1113.72" y2="1749.17" gradientUnits="userSpaceOnUse">
<stop stop-color="#90A1F6"/>
<stop offset="1" stop-color="#FD1ACB"/>
</linearGradient>
<linearGradient id="paint13_linear_1_187" x1="718.504" y1="476.935" x2="1144.61" y2="1742.91" gradientUnits="userSpaceOnUse">
<stop stop-color="#90A1F6"/>
<stop offset="1" stop-color="#FD1ACB"/>
</linearGradient>
<linearGradient id="paint14_linear_1_187" x1="746.136" y1="459.779" x2="1176.18" y2="1737.46" gradientUnits="userSpaceOnUse">
<stop stop-color="#90A1F6"/>
<stop offset="1" stop-color="#FD1ACB"/>
</linearGradient>
<linearGradient id="paint15_linear_1_187" x1="775.265" y1="443.027" x2="1209.32" y2="1732.63" gradientUnits="userSpaceOnUse">
<stop stop-color="#90A1F6"/>
<stop offset="1" stop-color="#FD1ACB"/>
</linearGradient>
<linearGradient id="paint16_linear_1_187" x1="805.378" y1="427.206" x2="1243.47" y2="1728.79" gradientUnits="userSpaceOnUse">
<stop stop-color="#90A1F6"/>
<stop offset="1" stop-color="#FD1ACB"/>
</linearGradient>
<linearGradient id="paint17_linear_1_187" x1="836.229" y1="412.473" x2="1278.37" y2="1726.1" gradientUnits="userSpaceOnUse">
<stop stop-color="#90A1F6"/>
<stop offset="1" stop-color="#FD1ACB"/>
</linearGradient>
<linearGradient id="paint18_linear_1_187" x1="867.842" y1="399.194" x2="1314.1" y2="1725.04" gradientUnits="userSpaceOnUse">
<stop stop-color="#90A1F6"/>
<stop offset="1" stop-color="#FD1ACB"/>
</linearGradient>
<linearGradient id="paint19_linear_1_187" x1="899.837" y1="387.398" x2="1350.25" y2="1725.59" gradientUnits="userSpaceOnUse">
<stop stop-color="#90A1F6"/>
<stop offset="1" stop-color="#FD1ACB"/>
</linearGradient>
<linearGradient id="paint20_linear_1_187" x1="932.144" y1="377.443" x2="1386.74" y2="1728.08" gradientUnits="userSpaceOnUse">
<stop stop-color="#90A1F6"/>
<stop offset="1" stop-color="#FD1ACB"/>
</linearGradient>
<linearGradient id="paint21_linear_1_187" x1="964.597" y1="369.827" x2="1423.32" y2="1732.73" gradientUnits="userSpaceOnUse">
<stop stop-color="#90A1F6"/>
<stop offset="1" stop-color="#FD1ACB"/>
</linearGradient>
<linearGradient id="paint22_linear_1_187" x1="996.97" y1="364.142" x2="1459.97" y2="1739.74" gradientUnits="userSpaceOnUse">
<stop stop-color="#90A1F6"/>
<stop offset="1" stop-color="#FD1ACB"/>
</linearGradient>
<linearGradient id="paint23_linear_1_187" x1="1029.17" y1="361.175" x2="1496.4" y2="1749.33" gradientUnits="userSpaceOnUse">
<stop stop-color="#90A1F6"/>
<stop offset="1" stop-color="#FD1ACB"/>
</linearGradient>
<linearGradient id="paint24_linear_1_187" x1="1060.99" y1="361.104" x2="1532.41" y2="1761.72" gradientUnits="userSpaceOnUse">
<stop stop-color="#90A1F6"/>
<stop offset="1" stop-color="#FD1ACB"/>
</linearGradient>
<linearGradient id="paint25_linear_1_187" x1="1092.27" y1="363.909" x2="1567.95" y2="1777.18" gradientUnits="userSpaceOnUse">
<stop stop-color="#90A1F6"/>
<stop offset="1" stop-color="#FD1ACB"/>
</linearGradient>
<linearGradient id="paint26_linear_1_187" x1="1122.85" y1="370.402" x2="1602.67" y2="1795.97" gradientUnits="userSpaceOnUse">
<stop stop-color="#90A1F6"/>
<stop offset="1" stop-color="#FD1ACB"/>
</linearGradient>
<linearGradient id="paint27_linear_1_187" x1="1152.56" y1="380.313" x2="1636.55" y2="1818.28" gradientUnits="userSpaceOnUse">
<stop stop-color="#90A1F6"/>
<stop offset="1" stop-color="#FD1ACB"/>
</linearGradient>
<linearGradient id="paint28_linear_1_187" x1="1181.14" y1="393.842" x2="1669.36" y2="1844.37" gradientUnits="userSpaceOnUse">
<stop stop-color="#90A1F6"/>
<stop offset="1" stop-color="#FD1ACB"/>
</linearGradient>
<linearGradient id="paint29_linear_1_187" x1="1208.59" y1="411.269" x2="1701.06" y2="1874.42" gradientUnits="userSpaceOnUse">
<stop stop-color="#90A1F6"/>
<stop offset="1" stop-color="#FD1ACB"/>
</linearGradient>
<linearGradient id="paint30_linear_1_187" x1="1234.61" y1="433.064" x2="1731.28" y2="1908.71" gradientUnits="userSpaceOnUse">
<stop stop-color="#90A1F6"/>
<stop offset="1" stop-color="#FD1ACB"/>
</linearGradient>
<linearGradient id="paint31_linear_1_187" x1="1259.06" y1="459.338" x2="1759.94" y2="1947.51" gradientUnits="userSpaceOnUse">
<stop stop-color="#90A1F6"/>
<stop offset="1" stop-color="#FD1ACB"/>
</linearGradient>
<linearGradient id="paint32_linear_1_187" x1="1281.74" y1="490.521" x2="1786.79" y2="1991.05" gradientUnits="userSpaceOnUse">
<stop stop-color="#90A1F6"/>
<stop offset="1" stop-color="#FD1ACB"/>
</linearGradient>
<linearGradient id="paint33_linear_1_187" x1="1302.56" y1="526.462" x2="1811.82" y2="2039.49" gradientUnits="userSpaceOnUse">
<stop stop-color="#90A1F6"/>
<stop offset="1" stop-color="#FD1ACB"/>
</linearGradient>
<linearGradient id="paint34_linear_1_187" x1="1321.38" y1="567.425" x2="1834.89" y2="2093.07" gradientUnits="userSpaceOnUse">
<stop stop-color="#90A1F6"/>
<stop offset="1" stop-color="#FD1ACB"/>
</linearGradient>
<linearGradient id="paint35_linear_1_187" x1="1337.89" y1="613.948" x2="1855.61" y2="2152.12" gradientUnits="userSpaceOnUse">
<stop stop-color="#90A1F6"/>
<stop offset="1" stop-color="#FD1ACB"/>
</linearGradient>
<linearGradient id="paint36_linear_1_187" x1="1352.09" y1="666.245" x2="1873.97" y2="2216.79" gradientUnits="userSpaceOnUse">
<stop stop-color="#90A1F6"/>
<stop offset="1" stop-color="#FD1ACB"/>
</linearGradient>
<linearGradient id="paint37_linear_1_187" x1="1363.62" y1="724.183" x2="1889.75" y2="2287.35" gradientUnits="userSpaceOnUse">
<stop stop-color="#90A1F6"/>
<stop offset="1" stop-color="#FD1ACB"/>
</linearGradient>
<linearGradient id="paint38_linear_1_187" x1="1378.25" y1="859.036" x2="1912.75" y2="2447.06" gradientUnits="userSpaceOnUse">
<stop stop-color="#90A1F6"/>
<stop offset="1" stop-color="#FD1ACB"/>
</linearGradient>
<linearGradient id="paint39_linear_1_187" x1="1381.15" y1="935.944" x2="1919.95" y2="2536.75" gradientUnits="userSpaceOnUse">
<stop stop-color="#90A1F6"/>
<stop offset="1" stop-color="#FD1ACB"/>
</linearGradient>
<linearGradient id="paint40_linear_1_187" x1="1380.43" y1="1020.18" x2="1923.38" y2="2633.32" gradientUnits="userSpaceOnUse">
<stop stop-color="#90A1F6"/>
<stop offset="1" stop-color="#FD1ACB"/>
</linearGradient>
</defs>
</svg>
