<svg width="1873" height="3449" viewBox="0 0 1873 3449" fill="none" xmlns="http://www.w3.org/2000/svg">
<path d="M1495.76 -239.673C1533.85 -228.054 1563.26 -166.264 1582.06 -128.737C1600.87 -91.2092 1604.93 -53.6333 1604.64 -18.8569C1603.88 70.4487 1576.41 147.475 1562.79 230.996C1549.16 314.517 1551.49 411.554 1604.25 507.125C1686.65 656.379 1857.46 749.378 2006.75 837.483C2045.82 860.563 2086.4 885.97 2115.85 921.948C2153.62 968.068 2165.85 1023.64 2160.33 1068.13C2154.82 1112.62 2134 1148.47 2114.48 1184.4C2051.58 1300.02 1998.37 1429.59 2019.48 1587.24C2040.59 1744.9 2176.38 2003.21 2450.24 2162.51" stroke="url(#paint0_linear_1_274)" stroke-width="0.71" stroke-miterlimit="10"/>
<path d="M1497.53 -209.96C1535.58 -198.299 1571.83 -161.181 1590.62 -123.633C1609.4 -86.0843 1613.63 -48.4309 1613.42 -13.7381C1612.64 75.5884 1585.17 152.615 1571.55 236.136C1557.92 319.657 1560.25 416.694 1613 512.265C1695.32 661.602 1866.08 754.541 2015.36 842.769C2054.45 865.828 2094.99 891.226 2124.47 927.233C2162.41 973.482 2174.48 1028.9 2168.94 1073.41C2163.41 1117.93 2142.63 1153.74 2123.11 1189.67C2060.19 1305.31 2006.98 1434.87 2028.09 1592.53C2049.2 1750.19 2184.99 2008.5 2458.85 2167.8" stroke="url(#paint1_linear_1_274)" stroke-width="0.71" stroke-miterlimit="10"/>
<path opacity="0.98" d="M2450.24 2169.48C2298.49 2078.12 2192.96 1953.81 2126.79 1834.07C2079.6 1748.63 2052.55 1665.75 2044.52 1599.5C2037.58 1538.91 2039.23 1480.67 2049.44 1426.39C2053.27 1405.27 2057.83 1384.86 2063.21 1364.6C2076.18 1317.84 2092.53 1273.03 2112.17 1230.44C2117.78 1218.03 2123.53 1205.82 2129.43 1193.81C2141.72 1168.57 2154.81 1143.2 2162.68 1115.05C2166 1103.51 2168.22 1091.37 2169.33 1078.73C2171.1 1056.94 2168.78 1033.61 2162.49 1009.75C2155.39 983.128 2143.52 956.582 2124.95 932.694C2117.85 923.644 2109.98 915.075 2101.49 907.14C2077.45 884.453 2049.19 866.331 2021.79 849.391C1994.39 832.45 1966.36 815.546 1938.19 798.053C1866.62 753.458 1795.13 705.295 1735.17 646.531C1695.92 608.791 1662.63 565.691 1637.47 520.053C1621.04 489.528 1608.62 458.291 1600.59 427.331C1583.35 362.466 1583.28 299.645 1590.24 242.84C1597.22 185.525 1610.64 131.347 1618.07 73.8375C1621.66 47.3408 1623.37 20.0142 1623.18 -7.98097C1622.73 -43.035 1618.06 -80.963 1599.11 -118.834C1580.17 -156.704 1544.4 -194.13 1506.64 -206.796" stroke="url(#paint2_linear_1_274)" stroke-width="0.71" stroke-miterlimit="10"/>
<path opacity="0.95" d="M2445.09 2173.17C2301.18 2083.31 2202.86 1961.23 2140.98 1842.32C2096.95 1757.7 2071.64 1675.18 2064.42 1608.43C2058.17 1547.64 2059.78 1489.07 2069.22 1434.05C2072.58 1412.67 2076.95 1391.86 2081.69 1371.63C2092.89 1324.86 2107.2 1279.79 2124.55 1236.65C2129.46 1224.3 2134.55 1212.14 2139.73 1200.18C2150.54 1175.1 2162.08 1150.07 2168.58 1122.32C2171.37 1110.88 2173.05 1098.87 2173.62 1086.41C2174.35 1064.39 2171.42 1041.15 2164.93 1017.46C2157.69 990.624 2146.64 964.099 2129.23 940.56C2122.63 931.666 2115.25 923.212 2107.23 915.359C2084.59 893.066 2057.95 875.129 2031.86 858.392C2005.76 841.655 1979.46 825.004 1952.87 807.739C1885.28 763.741 1817.83 716.234 1760.5 657.244C1695.83 592.443 1648.99 514.379 1627.89 436.254C1609.67 370.995 1607.53 308.305 1612.25 251.452C1617.09 194.178 1628.05 139.988 1633.51 82.1595C1636.21 55.3545 1637.17 27.8328 1636.41 -0.268171C1635.16 -35.6087 1629.94 -73.8292 1610.95 -111.953C1591.96 -150.078 1556.51 -187.888 1519.35 -201.333" stroke="url(#paint3_linear_1_274)" stroke-width="0.7" stroke-miterlimit="10"/>
<path opacity="0.93" d="M2443.2 2178.73C2307.12 2090.36 2216 1970.53 2158.34 1852.52C2117.48 1768.75 2094.03 1686.6 2087.42 1619.3C2081.99 1558.33 2083.53 1499.39 2092.04 1443.54C2095.15 1421.99 2099.06 1400.86 2103.21 1380.25C2112.61 1333.6 2124.78 1288.38 2139.69 1244.79C2144.02 1232.46 2148.39 1220.37 2152.8 1208.53C2162.22 1183.45 2172.16 1158.63 2177.38 1131.32C2179.62 1119.98 2180.77 1108.13 2180.82 1095.86C2180.52 1073.64 2176.98 1050.45 2170.32 1026.92C2162.91 999.832 2152.71 973.43 2136.48 950.148C2130.37 941.411 2123.45 933.076 2115.86 925.31C2094.66 903.442 2069.56 885.774 2045.34 869.511C2021.12 853.249 1996.03 836.589 1970.99 819.521C1907.33 776.162 1844.04 729.187 1789.04 669.917C1752.1 630.426 1720.78 586.803 1696.64 541.223C1680.5 510.187 1667.78 478.594 1658.76 447.149C1639.53 381.446 1635.45 318.782 1637.84 261.964C1640.48 204.723 1648.97 150.541 1652.53 92.3812C1654.32 65.2725 1654.52 37.5521 1653.15 9.33561C1651.05 -26.4735 1645.32 -65.0283 1626.23 -103.415C1607.14 -141.802 1572.1 -180.009 1535.36 -194.361" stroke="url(#paint4_linear_1_274)" stroke-width="0.69" stroke-miterlimit="10"/>
<path opacity="0.9" d="M2444.26 2186.08C2316.02 2099.2 2232.14 1981.7 2178.81 1864.35C2141.24 1781.69 2119.46 1699.62 2113.63 1631.84C2108.83 1570.65 2110.3 1511.34 2118.03 1454.74C2120.82 1432.91 2124.27 1411.45 2127.98 1390.75C2136.42 1341.42 2146.07 1296.52 2158.28 1254.6C2161.81 1242.35 2165.47 1230.31 2169.28 1218.46C2177.25 1193.56 2185.65 1168.97 2189.52 1142.03C2191.24 1130.81 2191.87 1119.11 2191.41 1107.04C2190.02 1084.64 2185.87 1061.52 2179.06 1038.15C2171.45 1010.78 2162.16 984.484 2147.1 961.479C2141.46 952.925 2135.02 944.717 2127.91 937.015C2108.1 915.511 2084.58 898.12 2061.74 881.927C2038.89 865.733 2015.51 849.471 1992.03 832.65C1932.41 789.999 1873.11 743.5 1820.61 683.955C1784.93 643.651 1754.64 599.787 1731.04 554.235C1714.9 522.92 1701.9 491.102 1692.27 459.368C1672.06 393.27 1665.82 330.647 1666.09 273.851C1666.36 217.054 1672.56 162.448 1674.19 103.926C1674.87 76.9973 1674.76 49.2926 1672.53 20.2835C1669.79 -15.6122 1663.49 -54.3879 1644.3 -93.088C1625.1 -131.788 1590.48 -170.291 1554.21 -185.591" stroke="url(#paint5_linear_1_274)" stroke-width="0.69" stroke-miterlimit="10"/>
<path opacity="0.88" d="M2448.02 2195.18C2327.65 2109.83 2250.99 1994.61 2201.87 1878.05C2168.88 1800.02 2148.74 1721.57 2142.35 1646.26C2138.28 1584.89 2139.69 1525.2 2146.58 1467.83C2149.07 1445.76 2152.09 1424 2155.04 1402.92C2161.97 1352.93 2169.3 1307.82 2179.01 1266.18C2181.86 1253.96 2184.85 1241.97 2187.96 1230.21C2194.57 1205.6 2201.18 1180.98 2203.71 1154.43C2204.94 1143.37 2205.1 1131.87 2204.2 1120.05C2201.73 1097.49 2196.98 1074.42 2190.04 1051.16C2182.26 1023.54 2173.83 997.349 2159.94 974.622C2154.76 966.195 2148.75 958.075 2142.04 950.433C2123.68 929.281 2101.72 912.138 2080.38 896.183C2059.04 880.229 2037.23 864.143 2015.31 847.57C1959.56 805.448 1904.56 759.823 1854.46 699.814C1820.06 658.777 1790.74 614.729 1767.55 569.235C1751.71 537.687 1738.69 505.723 1728.68 473.809C1707.46 407.267 1699.16 344.725 1697.22 287.909C1695.28 231.094 1699.12 176.494 1698.82 117.683C1698.6 90.5717 1697.7 62.6311 1694.91 33.4011C1691.39 -2.80209 1684.58 -41.8404 1665.28 -80.8031C1645.99 -119.766 1611.64 -158.54 1575.97 -174.864" stroke="url(#paint6_linear_1_274)" stroke-width="0.68" stroke-miterlimit="10"/>
<path opacity="0.85" d="M2454.28 2206C2341.79 2122.14 2272.2 2009.2 2227.53 1893.37C2197.24 1815.26 2179.06 1737.19 2173.71 1662.25C2170.33 1600.66 2171.67 1540.56 2177.73 1482.41C2179.87 1460.08 2182.5 1438.05 2184.77 1416.68C2190.25 1366.1 2195.18 1320.82 2202.56 1279.33C2204.74 1267.14 2207.01 1255.2 2209.38 1243.51C2214.38 1218.88 2219.73 1194.73 2220.96 1168.64C2221.55 1157.6 2221.11 1146.18 2219.64 1134.51C2216.09 1111.8 2210.76 1088.76 2203.69 1065.6C2195.62 1037.61 2188.2 1011.67 2175.48 989.218C2170.8 981.005 2165.3 973.042 2159.1 965.492C2142.19 944.692 2121.75 927.839 2101.94 912.102C2082.13 896.366 2061.93 880.536 2041.56 864.212C1989.75 822.729 1938.72 777.579 1891.25 717.415C1858.2 675.631 1829.89 631.359 1807.11 585.872C1791.37 554.063 1778.18 521.892 1767.69 489.736C1747.21 426.585 1734.86 363.96 1730.96 303.505C1726.77 246.295 1728.15 192.172 1725.92 133C1724.77 105.727 1723.14 77.5597 1719.75 48.079C1715.49 11.5982 1708.13 -27.7327 1688.76 -66.9788C1669.39 -106.225 1635.52 -145.429 1600.13 -162.564" stroke="url(#paint7_linear_1_274)" stroke-width="0.68" stroke-miterlimit="10"/>
<path opacity="0.83" d="M2462.73 2218.47C2358.06 2136.13 2295.81 2025.65 2255.29 1910.42C2227.81 1832.3 2211.58 1754.63 2207.16 1680C2204.46 1618.21 2205.72 1557.69 2210.94 1498.77C2212.82 1476.17 2214.99 1453.87 2216.68 1432.25C2220.66 1381.06 2223.2 1335.63 2228.22 1294.22C2229.69 1282.06 2231.28 1270.18 2232.99 1258.58C2236.5 1234.11 2240.28 1210.16 2240.2 1184.47C2240.23 1173.53 2239.25 1162.27 2237.27 1150.8C2233.8 1130.78 2226.75 1107.23 2219.47 1081.93C2211.42 1053.92 2204.68 1027.9 2193.1 1005.7C2188.89 997.667 2183.88 989.829 2178.15 982.347C2162.54 961.872 2143.79 945.315 2125.51 929.797C2107.22 914.278 2088.58 898.697 2069.74 882.59C2021.88 841.675 1974.82 797.071 1930.03 736.69C1898.37 694.19 1871.03 649.684 1848.62 604.175C1833.05 572.11 1819.71 539.746 1808.72 507.368C1787.37 444.421 1773.31 381.806 1766.84 320.873C1760.24 263.66 1759.31 209.501 1755.06 150C1753.1 122.584 1750.72 94.2611 1746.58 64.5029C1741.43 27.5952 1733.7 -11.8491 1714.22 -51.4086C1694.74 -90.968 1661.14 -130.616 1626.39 -148.572" stroke="url(#paint8_linear_1_274)" stroke-width="0.67" stroke-miterlimit="10"/>
<path opacity="0.8" d="M2473.13 2232.49C2376.39 2151.61 2321.29 2043.6 2285.1 1928.98C2260.43 1850.9 2246.14 1773.6 2242.63 1699.21C2240.16 1636.86 2242.38 1575.96 2246.25 1516.65C2247.78 1493.8 2249.59 1471.26 2250.59 1449.3C2253.1 1397.53 2253.23 1351.93 2255.87 1310.67C2256.66 1298.58 2257.57 1286.74 2258.54 1275.2C2260.59 1250.87 2262.86 1227.16 2261.45 1201.83C2260.88 1190.99 2259.37 1179.88 2256.93 1168.62C2252.63 1148.87 2244.82 1125.49 2237.29 1099.78C2229.01 1071.45 2223.2 1045.6 2212.78 1023.67C2209.04 1015.82 2204.5 1008.11 2199.26 1000.69C2185.16 980.701 2167.85 964.323 2151.06 949.065C2134.26 933.806 2117.21 918.43 2099.93 902.572C2056 862.295 2013.17 818.406 1970.72 757.673C1940.48 714.499 1914.12 669.751 1892.07 624.195C1876.62 591.884 1863.11 559.324 1851.64 526.728C1829.31 463.856 1813.44 401.144 1804.3 339.671C1795.48 282.389 1792.36 228.313 1786.05 168.525C1783.27 140.895 1779.98 112.339 1775.31 82.4613C1769.85 45.5507 1761.3 5.54533 1741.62 -34.417C1721.95 -74.3793 1689.01 -114.084 1654.56 -133.117" stroke="url(#paint9_linear_1_274)" stroke-width="0.67" stroke-miterlimit="10"/>
<path opacity="0.78" d="M2485.25 2248.03C2396.22 2168.65 2348.41 2063.09 2316.55 1949.09C2294.74 1871.12 2282.38 1794.18 2279.77 1720.02C2277.95 1657.55 2280.16 1596.11 2283.33 1536.24C2284.57 1513.14 2285.89 1490.25 2286.31 1468.09C2287.28 1415.63 2285.04 1369.81 2285.3 1328.58C2285.37 1316.5 2285.56 1304.73 2285.88 1293.28C2287.05 1269.65 2286.57 1245.41 2284.44 1220.7C2283.31 1209.95 2281.27 1198.99 2278.34 1187.92C2273.06 1168.2 2264.56 1145.02 2256.94 1119.16C2248.46 1090.56 2243.53 1064.84 2234.28 1043.19C2231.02 1035.5 2226.95 1027.91 2222.17 1020.55C2209.49 1000.93 2193.78 984.834 2178.57 969.731C2163.36 954.628 2147.85 939.471 2132.06 923.922C2086.96 879.966 2046.92 831.402 2013.38 779.983C1984.62 736.145 1959.2 691.129 1937.45 645.482C1922.14 612.902 1908.48 580.121 1896.54 547.293C1873.35 484.553 1855.77 421.845 1844.02 359.993C1832.99 302.938 1827.23 248.844 1819.01 188.745C1815.24 160.965 1811.26 132.141 1806 102.063C1799.42 64.7108 1790.52 24.5711 1770.84 -15.5643C1751.15 -55.6997 1718.47 -95.8997 1684.61 -115.762" stroke="url(#paint10_linear_1_274)" stroke-width="0.66" stroke-miterlimit="10"/>
<path opacity="0.76" d="M2498.81 2265.08C2417.79 2187.2 2376.96 2084.11 2349.41 1970.67C2330.54 1892.87 2320.13 1816.3 2318.36 1742.3C2317.3 1679.63 2319.45 1617.83 2321.57 1557.02C2322.49 1533.64 2323.38 1510.45 2323.19 1488.06C2322.71 1435.01 2318.03 1389.11 2315.96 1348.15C2315.38 1336.12 2314.88 1324.4 2314.46 1313.01C2314.14 1289.53 2312.22 1265.54 2308.7 1241.19C2307.02 1230.51 2304.47 1219.68 2301.08 1208.79C2294.92 1189.23 2285.62 1166.13 2277.81 1139.97C2269.14 1111.14 2265.09 1085.56 2257.01 1064.13C2254.18 1056.66 2250.59 1049.24 2246.31 1042C2235.1 1022.67 2220.91 1006.91 2207.23 992.022C2193.55 977.137 2179.55 962.269 2165.38 946.907C2123.98 902.447 2087.55 854.263 2057.24 803.876C2030.03 759.455 2005.59 714.209 1984.12 668.492C1968.65 635.5 1955.1 602.106 1942.73 569.631C1918.66 506.945 1899.33 444.191 1884.91 381.97C1871.64 324.867 1863.38 270.629 1853.41 210.175C1848.77 182.243 1844.15 153.332 1838.16 122.905C1830.83 85.2748 1821.38 44.8426 1801.62 4.42374C1781.86 -35.9951 1749.53 -76.5501 1716.04 -97.3793" stroke="url(#paint11_linear_1_274)" stroke-width="0.65" stroke-miterlimit="10"/>
<path opacity="0.73" d="M2513.44 2283.64C2440.17 2207.33 2406.59 2106.7 2383.42 1993.74C2367.48 1916.19 2358.99 1839.96 2358.06 1766.08C2357.58 1703.36 2359.66 1640.84 2361.08 1579.41C2361.65 1555.78 2362.14 1532.28 2361.31 1509.62C2359.36 1456 2352.29 1409.95 2347.91 1369.08C2346.65 1357.04 2345.45 1345.38 2344.33 1334.09C2342.49 1310.76 2339.12 1287.04 2334.23 1263.06C2331.9 1252.48 2328.78 1241.82 2324.92 1231.14C2317.86 1211.75 2307.78 1188.7 2299.82 1162.35C2291 1133.29 2287.81 1107.82 2280.9 1086.66C2278.51 1079.32 2275.4 1071.98 2271.6 1064.76C2261.77 1045.86 2249.22 1030.27 2237.05 1015.67C2224.89 1001.07 2212.36 986.243 2199.84 971.218C2167.75 932.766 2137.2 890.803 2102.23 829.146C2076.55 784.208 2053.02 738.732 2031.76 692.924C2016.45 659.664 2002.58 625.921 1989.77 593.467C1964.92 530.768 1943.95 467.944 1927 405.405C1911.45 348.224 1900.74 294.146 1888.85 233.209C1883.34 205.124 1877.81 175.858 1871.28 145.363C1863.19 107.476 1853.22 66.781 1833.35 26.0488C1813.49 -14.6834 1781.62 -55.5755 1748.56 -77.3833" stroke="url(#paint12_linear_1_274)" stroke-width="0.65" stroke-miterlimit="10"/>
<path opacity="0.71" d="M2529.06 2303.8C2463.74 2228.88 2437.18 2130.85 2418.36 2018.48C2405.37 1941.25 2398.77 1865.36 2398.63 1791.56C2398.88 1728.65 2400.85 1665.72 2401.47 1603.46C2401.79 1579.59 2401.84 1555.81 2400.38 1532.88C2396.95 1478.63 2387.47 1432.4 2380.75 1391.7L2374.95 1356.94C2371.64 1333.69 2366.81 1310.14 2360.49 1286.43C2357.59 1276 2354 1265.53 2349.74 1255.09C2341.77 1235.83 2330.97 1212.91 2322.84 1186.35C2313.83 1157.02 2311.45 1131.64 2305.79 1110.8C2303.81 1103.63 2301.18 1096.42 2297.92 1089.27C2289.92 1072.64 2279.82 1056.41 2267.95 1041.08C2257.53 1026.66 2246.46 1012.23 2235.38 997.337C2207.13 959.436 2180.75 918.177 2148.31 856.225C2127.81 817.027 2103.94 770.317 2080.63 719.019C2065.44 685.511 2051.68 651.786 2038.18 618.819C2012.38 556.114 1989.57 493.25 1969.85 430.473C1952.2 373.413 1939.17 319.249 1925.32 257.971C1918.91 229.704 1912.63 200.232 1905.59 169.525C1896.78 131.339 1886.27 90.4028 1866.29 49.3573C1846.32 8.31184 1814.82 -32.8338 1782.24 -55.5397" stroke="url(#paint13_linear_1_274)" stroke-width="0.64" stroke-miterlimit="10"/>
<path opacity="0.68" d="M2544.77 2325.25C2487.21 2251.96 2467.76 2156.32 2453.47 2044.43C2443.47 1967.53 2438.79 1891.92 2439.45 1818.11C2440.35 1755.04 2442.29 1691.59 2442.05 1628.69C2442.09 1604.62 2441.65 1580.49 2439.58 1557.33C2434.67 1502.45 2422.76 1456.07 2413.61 1415.56L2405.88 1380.93C2401.05 1357.91 2394.78 1334.7 2387.09 1311.43C2383.55 1301.06 2379.37 1290.7 2374.59 1280.4C2365.74 1261.3 2354.15 1238.44 2345.86 1211.69C2336.68 1182.1 2335.22 1156.88 2330.67 1136.25C2329.13 1129.25 2326.97 1122.17 2324.23 1115.1C2317.61 1099 2309.01 1083.11 2298.67 1067.85C2289.67 1053.71 2280.26 1039.43 2270.74 1024.78C2246.51 987.552 2224.15 946.9 2194.35 884.722C2175.49 845.392 2152.48 798.244 2129.48 746.46C2114.48 712.764 2100.36 678.609 2086.53 645.609C2057.3 575.774 2032.85 513.895 2012.91 456.901C1992.96 399.907 1977.47 345.435 1961.62 283.93C1954.25 255.544 1947.27 225.803 1939.47 194.717C1929.88 156.224 1918.85 115.025 1898.8 73.6956C1878.75 32.3666 1847.61 -9.1341 1815.46 -32.747" stroke="url(#paint14_linear_1_274)" stroke-width="0.64" stroke-miterlimit="10"/>
<path opacity="0.66" d="M2560.78 2348.32C2511.16 2276.42 2498.7 2183.43 2488.78 2072.16C2481.76 1995.69 2478.98 1920.38 2480.43 1846.56C2482.04 1783.37 2483.89 1719.41 2482.85 1655.81C2482.51 1631.4 2481.7 1607.04 2479.01 1583.59C2472.63 1528.14 2458.31 1481.57 2447.02 1441.29C2443.69 1429.43 2440.42 1417.91 2437.22 1406.73C2430.93 1383.87 2423.21 1360.91 2414.11 1338C2409.93 1327.76 2405.21 1317.57 2399.97 1307.47C2390.22 1288.48 2377.86 1265.73 2369.43 1238.76C2360.14 1208.86 2359.49 1183.86 2356.14 1163.41C2355 1156.56 2353.31 1149.61 2351.08 1142.62C2345.87 1126.97 2338.82 1111.34 2330.11 1096.08C2322.61 1082.18 2314.77 1068.14 2306.82 1053.72C2286.53 1017.13 2268.23 977.116 2240.82 914.473C2223.57 875.033 2201.58 827.474 2178.7 775.268C2163.85 741.304 2149.57 706.949 2135.25 673.716C2104.84 603.431 2078.33 541.632 2056.17 484.569C2033.94 426.87 2014.67 369.104 1998.45 311.528C1990.24 282.897 1982.44 253.013 1974.06 221.726C1963.7 182.977 1952.14 141.464 1931.99 99.8728C1911.84 58.2812 1881.01 16.4673 1849.45 -8.14808" stroke="url(#paint15_linear_1_274)" stroke-width="0.63" stroke-miterlimit="10"/>
<path opacity="0.63" d="M2576.72 2372.86C2534.96 2302.48 2529.44 2212.05 2524.03 2101.02C2520.56 2029.21 2518.77 1949.72 2521.32 1876.41C2523.66 1812.98 2525.55 1748.61 2523.74 1684.34C2523.44 1660.43 2521.72 1636.08 2518.59 1611.38C2510.72 1555.31 2494.03 1508.59 2480.24 1468.28C2476.18 1456.47 2472.2 1445 2468.28 1433.96C2460.47 1411.25 2451.3 1388.56 2440.83 1366.01C2436.49 1356.88 2431.39 1346.88 2425.15 1335.87C2414.43 1317.02 2401.37 1294.36 2392.75 1267.16C2383.28 1237.08 2383.51 1212.16 2381.3 1192.01C2380.54 1185.29 2379.33 1178.48 2377.68 1171.6C2373.75 1156.39 2368.22 1141.06 2361.18 1125.88C2355.2 1112.2 2348.93 1098.39 2342.64 1084.3C2326.3 1048.34 2312.06 1008.96 2287.18 946.018C2271.27 906.199 2250.01 858.082 2227.55 805.581C2212.84 771.42 2198.36 736.784 2183.61 703.378C2152.22 632.576 2123.72 570.897 2099.47 513.935C2074.78 456.284 2053.29 398.407 2035.11 340.616C2025.99 311.803 2017.43 281.713 2008.5 250.256C1997.4 211.229 1985.39 169.391 1965.04 127.569C1944.7 85.7481 1914.46 43.4717 1883.25 17.9612" stroke="url(#paint16_linear_1_274)" stroke-width="0.63" stroke-miterlimit="10"/>
<path opacity="0.61" d="M2592.35 2398.71C2558.49 2329.83 2559.88 2241.94 2558.99 2131.63C2558.51 2060.61 2558.61 1981.28 2562.02 1907.41C2564.97 1843.92 2566.73 1778.96 2564.06 1713.92C2563.44 1689.75 2561.24 1665.1 2557.49 1640.1C2548.1 1583.38 2528.92 1536.43 2512.9 1496.37C2508.15 1484.61 2503.48 1473.24 2498.91 1462.27C2489.63 1439.71 2479.02 1417.27 2467.14 1395.08C2462.27 1386.13 2456.54 1376.34 2449.83 1365.37C2438.35 1346.8 2424.36 1324.1 2415.63 1296.71C2405.92 1266.39 2407.06 1241.58 2406.04 1221.69C2405.69 1215.1 2404.95 1208.4 2403.82 1201.62C2401.24 1186.81 2397.26 1171.78 2391.93 1156.71C2387.45 1143.17 2382.86 1129.72 2377.94 1115.71C2365.56 1080.36 2355.41 1041.65 2333.05 978.412C2319.02 938.701 2298.78 890.172 2276.43 837.251C2261.6 803.093 2247.07 768.031 2231.8 734.484C2199.56 663.438 2169.05 601.847 2142.57 544.765C2115.37 487.138 2091.62 429.093 2071.48 371.007C2061.45 342.032 2052.15 311.715 2042.62 280.079C2030.74 240.745 2018.14 198.707 1997.84 156.548C1977.53 114.39 1947.51 71.833 1916.64 45.326" stroke="url(#paint17_linear_1_274)" stroke-width="0.62" stroke-miterlimit="10"/>
<path opacity="0.59" d="M2607.27 2426.06C2581.21 2358.64 2589.53 2273.26 2593.35 2163.61C2595.73 2093.7 2597.86 2014.51 2602.09 1940.12C2606.25 1876.46 2606.85 1811.42 2603.88 1745.26C2603 1720.84 2600.36 1695.9 2595.97 1670.61C2585.16 1613.32 2563.61 1566.28 2545.14 1526.26C2539.7 1514.51 2534.32 1503.17 2529.01 1492.25C2518.3 1469.9 2506.28 1447.77 2493.06 1426C2487.64 1417.22 2481.46 1407.52 2474.19 1396.76C2461.64 1378.16 2447.05 1355.71 2438.19 1328.09C2428.26 1297.57 2430.29 1272.84 2430.42 1253.18C2430.5 1245.83 2430.11 1239.25 2429.67 1233.51C2428.29 1219.07 2425.8 1204.37 2422.21 1189.52C2419.29 1176.27 2416.19 1162.84 2412.84 1149.25C2404.41 1114.47 2398.33 1076.44 2378.5 1012.84C2366.06 973.042 2346.75 924.012 2324.62 870.759C2310.21 836.112 2295.39 800.975 2279.65 767.175C2246.45 695.714 2213.92 634.212 2184.99 577.047C2155.33 519.472 2129.32 461.267 2107.16 402.869C2096.25 373.692 2086.18 343.19 2076.05 311.303C2063.37 271.682 2050.26 229.381 2029.79 186.901C2009.33 144.42 1979.75 101.547 1949.49 74.2402" stroke="url(#paint18_linear_1_274)" stroke-width="0.61" stroke-miterlimit="10"/>
<path opacity="0.56" d="M2621.34 2454.61C2603.14 2388.67 2618.3 2305.83 2626.67 2196.63C2631.94 2127.75 2636.08 2048.7 2641.11 1973.82C2645.95 1909.98 2646.48 1844.46 2642.7 1777.59C2641.55 1752.92 2638.46 1727.68 2633.47 1702.1C2621.1 1644.27 2597.25 1597 2576.37 1557.1C2570.27 1545.4 2564.21 1534.13 2558.17 1523.29C2545.89 1501.06 2532.33 1479.16 2517.59 1457.75C2511.67 1449.18 2504.86 1439.57 2497.12 1428.97C2483.65 1410.51 2468.32 1388.14 2459.26 1360.3C2449.15 1329.59 2452.04 1304.96 2453.38 1285.54C2453.88 1278.31 2454 1271.83 2454 1266.23C2453.91 1252.12 2452.93 1237.73 2451.1 1223.12C2449.73 1210.07 2448.1 1196.97 2446.36 1183.51C2441.86 1149.37 2439.81 1111.95 2422.58 1048.04C2411.75 1008.08 2393.38 958.649 2371.47 904.994C2357.18 870.171 2342.22 834.691 2326.01 800.759C2291.79 728.874 2257.25 667.462 2226.08 610.248C2194.91 553.035 2167.38 499.107 2141.84 435.98C2130.34 406.776 2119.26 375.778 2108.61 343.751C2095.2 303.853 2081.56 261.289 2060.99 218.495C2040.42 175.701 2011.27 132.512 1981.44 104.298" stroke="url(#paint19_linear_1_274)" stroke-width="0.61" stroke-miterlimit="10"/>
<path opacity="0.54" d="M2634.28 2484.41C2623.95 2419.99 2645.91 2339.62 2658.94 2230.99C2666.92 2162.95 2673.24 2084.26 2679.07 2008.87C2684.57 1944.86 2685.04 1878.84 2680.45 1811.29C2679.03 1786.38 2675.47 1760.88 2669.82 1735.04C2656.12 1676.61 2629.71 1629.14 2606.5 1589.39C2599.7 1577.71 2592.91 1566.46 2586.14 1555.64C2572.43 1533.53 2557.47 1511.87 2541.36 1490.8C2534.93 1482.38 2527.46 1472.95 2519.29 1462.42C2504.9 1444.09 2488.84 1421.85 2479.65 1393.83C2469.43 1362.76 2473.07 1338.34 2475.57 1319.26C2476.73 1312.1 2477.09 1305.74 2477.65 1300.31C2479.15 1284.15 2479.06 1270.79 2479.21 1258.03C2479.36 1245.26 2479.32 1232.32 2479.14 1219.11C2478.6 1185.59 2480.61 1148.85 2465.87 1084.62C2456.66 1044.55 2439.19 994.64 2417.51 940.633C2403.49 905.487 2388.32 869.799 2371.63 835.685C2336.39 763.376 2299.86 702.082 2266.36 644.854C2232.86 587.625 2203.03 533.762 2175.68 470.271C2163.03 440.84 2151.38 409.816 2140.03 377.469C2125.8 337.356 2111.7 294.416 2091.01 251.381C2070.32 208.345 2041.66 164.848 2012.24 135.626" stroke="url(#paint20_linear_1_274)" stroke-width="0.6" stroke-miterlimit="10"/>
<path opacity="0.51" d="M2645.82 2515.37C2643.35 2452.47 2672.07 2374.56 2689.85 2266.53C2700.84 2199.63 2709.15 2121.12 2715.63 2045.09C2721.82 1980.9 2722.22 1914.36 2716.83 1846.12C2715.12 1820.95 2711.1 1795.17 2704.83 1769.07C2689.55 1709.94 2660.82 1662.44 2635.28 1622.8C2627.78 1611.18 2620.31 1600 2612.87 1589.28C2597.69 1567.3 2581.29 1545.89 2563.78 1525.2L2540.11 1497.28C2524.76 1479.13 2507.99 1456.93 2498.61 1428.68C2488.21 1397.37 2492.7 1373.07 2496.45 1354.18C2497.79 1347.2 2498.91 1340.92 2499.91 1335.6C2502.91 1319.8 2504.32 1306.74 2506.01 1294.18C2507.71 1281.61 2509.21 1268.94 2510.59 1255.98C2513.97 1223.04 2520.05 1187 2507.83 1122.42C2500.1 1082.07 2483.69 1031.83 2462.24 977.466C2448.46 942.124 2432.93 906.883 2415.72 871.892C2379.49 799.188 2340.99 737.993 2305.24 680.666C2269.89 623.971 2237.23 569.565 2207.87 505.918C2194.21 476.236 2181.91 445.074 2169.92 412.519C2154.97 372.056 2140.28 328.917 2119.53 285.577C2098.79 242.237 2070.4 198.346 2041.49 168.256" stroke="url(#paint21_linear_1_274)" stroke-width="0.6" stroke-miterlimit="10"/>
<path opacity="0.49" d="M2655.74 2547.46C2661.13 2486.04 2696.58 2410.6 2719.07 2303.16C2732.93 2237.25 2743.24 2158.89 2750.59 2082.42C2757.46 2018.06 2757.79 1951.02 2751.59 1882.1C2749.58 1856.65 2745.1 1830.58 2738.19 1804.21C2721.46 1744.49 2690.32 1696.8 2662.54 1657.41C2654.33 1645.84 2646.18 1634.69 2638.04 1624.07C2621.37 1602.22 2603.51 1581.05 2584.6 1560.72C2577.11 1552.69 2568.54 1543.46 2559.32 1533.26C2543.05 1515.24 2525.53 1493.13 2516.01 1464.67C2505.46 1433.15 2510.75 1408.94 2515.69 1390.32C2517.54 1383.42 2519.11 1377.29 2520.58 1372.1C2525.04 1356.66 2528.03 1343.83 2531.18 1331.49C2534.33 1319.16 2537.43 1306.69 2540.36 1293.98C2547.7 1261.66 2557.85 1226.25 2548.16 1161.36C2542.16 1121.03 2526.54 1070.17 2505.35 1015.44C2491.73 979.826 2476.04 944.318 2458.37 909.122C2421.1 836.016 2380.52 774.973 2342.63 717.615C2305.05 660.973 2269.94 606.555 2238.73 542.413C2223.78 511.221 2210.35 479.827 2198.48 448.366C2182.78 407.625 2167.55 364.244 2146.7 320.591C2125.85 276.937 2097.85 232.722 2069.37 201.725" stroke="url(#paint22_linear_1_274)" stroke-width="0.59" stroke-miterlimit="10"/>
<path opacity="0.46" d="M2663.77 2580.6C2677.05 2520.68 2719.13 2447.63 2746.46 2340.84C2763.24 2276.03 2775.48 2197.74 2783.65 2120.8C2790.56 2056.35 2792.06 1988.48 2784.45 1919.11C2782.16 1893.4 2777.22 1867.04 2769.69 1840.42C2751.48 1780.07 2717.93 1732.21 2687.69 1692.88C2678.78 1681.34 2669.92 1670.28 2661.1 1659.69C2642.97 1637.98 2623.67 1617.08 2603.35 1597.16C2595.35 1589.28 2586.2 1580.27 2576.37 1570.01C2559.17 1552.15 2540.92 1530.11 2531.23 1501.44C2520.51 1469.67 2526.64 1445.59 2532.82 1427.23C2535.09 1420.46 2537.15 1414.44 2539.09 1409.38C2544.92 1394.37 2549.53 1381.73 2554.25 1369.69C2558.96 1357.66 2563.6 1345.34 2568.09 1332.87C2579.36 1301.14 2593.54 1266.39 2586.46 1201.19C2582.03 1160.72 2567.35 1109.41 2546.34 1054.32C2532.87 1018.46 2517.01 982.714 2498.87 947.351C2460.63 873.829 2418.12 812.792 2377.85 755.41C2338.16 698.89 2300.5 644.37 2267.38 579.918C2251.54 548.6 2237.36 517.01 2224.92 485.312C2208.51 444.252 2192.69 400.62 2171.76 356.683C2150.83 312.747 2123.2 268.4 2095.3 236.349" stroke="url(#paint23_linear_1_274)" stroke-width="0.58" stroke-miterlimit="10"/>
<path opacity="0.44" d="M2669.65 2614.69C2690.79 2556.29 2739.51 2485.63 2771.7 2379.51C2791.05 2315.57 2805.55 2237.6 2814.51 2160.24C2822.06 2095.63 2823.51 2027.26 2815.08 1957.16C2812.54 1931.19 2807.15 1904.55 2798.99 1877.7C2779.26 1816.76 2743.24 1768.84 2710.73 1729.48C2701.17 1717.99 2691.62 1706.99 2682.08 1696.49C2662.45 1674.9 2641.7 1654.25 2619.97 1634.7C2611.44 1627 2601.71 1618.08 2591.49 1608.1C2573.31 1590.19 2554.39 1568.45 2544.52 1539.55C2533.62 1507.53 2540.51 1483.48 2547.96 1465.47C2550.67 1458.8 2553.23 1452.89 2555.61 1448.1C2562.98 1433.36 2569.04 1421.07 2575.19 1409.29C2581.34 1397.5 2587.64 1385.4 2593.68 1373.18C2608.89 1342.09 2627.13 1307.97 2622.47 1242.33C2619.63 1201.73 2605.88 1149.97 2585.12 1094.5C2571.78 1058.39 2555.73 1022.4 2537.13 986.856C2497.92 912.92 2453.39 851.972 2410.78 794.524C2368.82 737.926 2328.74 683.474 2293.7 618.711C2277.08 587.238 2262.27 555.421 2249.36 523.458C2232.17 482.162 2215.89 438.205 2194.83 393.976C2173.77 349.746 2146.53 304.901 2119.04 272.015" stroke="url(#paint24_linear_1_274)" stroke-width="0.58" stroke-miterlimit="10"/>
<path opacity="0.41" d="M2673.13 2649.78C2702.11 2592.88 2757.46 2524.56 2794.51 2419.16C2816.64 2356.05 2833.24 2278.4 2843.04 2200.5C2851.28 2135.74 2852.69 2066.87 2843.34 1995.95C2840.48 1969.69 2834.62 1942.76 2825.85 1915.65C2804.66 1854.07 2766.29 1805.91 2731.39 1766.84C2721.11 1755.35 2710.86 1744.43 2700.63 1733.97C2679.52 1712.5 2657.31 1692.12 2634.18 1672.97C2625.13 1665.42 2614.83 1656.65 2604.11 1646.8C2585.01 1629.27 2565.33 1607.4 2555.34 1578.26C2544.25 1546.01 2552.07 1522.17 2560.62 1504.33C2563.78 1497.81 2566.9 1492.05 2569.76 1487.22C2578.61 1472.86 2586.18 1460.86 2593.92 1449.23C2601.67 1437.6 2609.47 1425.79 2616.99 1413.85C2636.18 1383.41 2658.4 1349.94 2656.58 1284.23C2655.3 1243.46 2642.56 1191.29 2622.01 1135.44C2608.79 1099.08 2592.55 1062.83 2573.49 1027.11C2533.29 952.78 2486.8 891.93 2441.96 834.485C2397.78 777.941 2355.24 723.477 2318.31 658.382C2300.66 626.769 2284.97 594.712 2271.34 562.448C2253.37 520.845 2236.55 476.646 2215.36 432.074C2194.16 387.501 2167.42 342.328 2140.48 308.532" stroke="url(#paint25_linear_1_274)" stroke-width="0.57" stroke-miterlimit="10"/>
<path opacity="0.39" d="M2673.92 2685.76C2710.79 2630.35 2772.72 2564.36 2814.64 2459.7C2839.54 2397.49 2858.26 2320.06 2868.87 2241.71C2877.76 2176.8 2879.15 2107.46 2869.09 2035.92C2865.94 2009.37 2859.62 1982.16 2850.24 1954.82C2827.6 1892.64 2786.82 1844.3 2749.51 1805.35C2738.57 1793.92 2727.61 1783.04 2716.7 1772.67C2694.13 1751.35 2670.5 1731.25 2646 1712.54C2636.43 1705.15 2625.52 1696.51 2614.35 1686.81C2594.28 1669.41 2573.87 1647.6 2563.75 1618.29C2552.46 1585.76 2561.1 1562.06 2570.89 1544.48C2574.46 1538.04 2578.02 1532.38 2581.55 1527.84C2591.85 1513.84 2600.93 1502.07 2610.23 1490.69C2619.53 1479.31 2628.92 1467.6 2638.08 1455.87C2661.2 1426.02 2687.47 1393.21 2688.04 1327.04C2688.4 1286.19 2676.57 1233.54 2656.21 1177.31C2643.16 1140.69 2626.75 1104.19 2607.23 1068.3C2565.97 993.521 2517.52 932.769 2470.33 875.38C2423.97 818.847 2378.93 764.362 2340.1 698.936C2321.48 667.202 2304.95 634.922 2290.64 602.369C2271.89 560.458 2254.55 515.997 2233.29 471.191C2212.02 426.386 2185.49 380.709 2158.98 346.128" stroke="url(#paint26_linear_1_274)" stroke-width="0.57" stroke-miterlimit="10"/>
<path opacity="0.37" d="M2671.78 2722.57C2716.48 2668.65 2784.97 2604.94 2831.85 2501.04C2859.49 2439.76 2880.27 2362.62 2891.79 2283.78C2901.28 2218.68 2902.67 2148.88 2891.75 2076.63C2888.37 2049.75 2881.61 2022.19 2871.64 1994.57C2847.5 1931.78 2804.34 1883.3 2764.7 1844.51C2753.09 1833.08 2741.43 1822.25 2729.78 1811.94C2705.69 1790.72 2680.58 1770.85 2654.67 1752.49C2644.54 1745.3 2633.08 1736.79 2621.4 1727.24C2600.39 1709.99 2579.25 1688.25 2568.98 1658.72C2557.53 1625.94 2567 1602.37 2577.98 1585.04C2581.61 1579.28 2585.62 1573.82 2589.98 1568.69C2601.72 1555.05 2612.36 1543.54 2623.17 1532.4C2633.97 1521.25 2644.88 1509.83 2655.57 1498.33C2682.62 1469.11 2712.94 1436.94 2716.11 1370.46C2718.04 1329.49 2707.13 1276.33 2687.01 1219.75C2674.08 1182.89 2657.49 1146.12 2637.5 1110.07C2595.29 1034.92 2544.84 974.239 2495.42 916.73C2446.79 860.365 2399.27 805.888 2358.52 740.151C2339.08 708.333 2321.85 675.87 2306.98 643.073C2287.5 600.936 2269.63 556.161 2248.28 511.021C2226.93 465.882 2200.94 420.079 2174.65 384.556" stroke="url(#paint27_linear_1_274)" stroke-width="0.56" stroke-miterlimit="10"/>
<path opacity="0.34" d="M2666.06 2759.81C2718.62 2707.37 2793.63 2645.92 2845.44 2542.81C2875.85 2482.43 2898.71 2405.55 2911.06 2326.25C2921.22 2260.97 2922.59 2190.7 2910.87 2117.74C2906.49 2089.98 2900.15 2061.82 2889.29 2034.99C2863.7 1971.61 2818.11 1922.96 2776.13 1884.28C2763.78 1872.94 2751.44 1862.12 2739.07 1851.93C2713.46 1830.77 2686.87 1811.11 2659.52 1793.13C2647.67 1785.36 2636.03 1777.07 2624.67 1768.31C2602.74 1751.27 2580.88 1729.58 2570.46 1699.85C2558.83 1666.81 2569.12 1643.33 2581.31 1626.3C2585.34 1620.62 2589.79 1615.3 2594.63 1610.37C2607.9 1597.13 2620.03 1585.87 2632.36 1574.94C2644.7 1564.02 2657.16 1552.85 2669.43 1541.57C2700.41 1512.94 2734.74 1481.39 2740.48 1414.63C2744.01 1373.5 2734.05 1319.94 2714.18 1262.99C2701.39 1225.87 2684.6 1188.85 2664.15 1152.63C2621.02 1076.95 2568.47 1016.44 2516.78 958.926C2466.01 902.459 2416.03 847.918 2373.37 781.871C2353.06 749.959 2335.06 717.294 2319.56 684.226C2299.32 641.761 2280.86 596.684 2259.49 551.321C2238.12 505.958 2212.4 459.711 2186.72 423.164" stroke="url(#paint28_linear_1_274)" stroke-width="0.56" stroke-miterlimit="10"/>
<path opacity="0.32" d="M2654.22 2795.16C2714.65 2744.25 2796.19 2685 2852.96 2582.76C2886.05 2523.14 2911.09 2446.67 2924.26 2366.85C2935.06 2301.46 2936.39 2230.64 2923.87 2156.98C2919.16 2128.94 2912.4 2100.54 2900.93 2073.42C2873.86 2009.41 2825.85 1960.59 2781.59 1922.15C2768.7 1910.98 2755.53 1900.09 2742.5 1889.96C2715.42 1868.96 2687.4 1849.59 2658.7 1832.03C2646.32 1824.49 2634.16 1816.34 2622.27 1807.65C2599.4 1790.76 2576.69 1769.02 2566.2 1739.18C2554.43 1705.93 2565.53 1682.54 2578.94 1665.79C2583.41 1660.14 2588.36 1654.93 2593.75 1650.17C2608.46 1637.3 2622.14 1626.29 2636 1615.59C2649.87 1604.88 2663.79 1593.87 2677.68 1582.89C2712.53 1554.97 2750.94 1523.99 2759.27 1456.92C2764.45 1415.71 2755.29 1361.7 2735.72 1304.33C2723 1266.88 2705.96 1229.51 2684.98 1193.06C2640.75 1117.04 2586.46 1056.65 2532.37 999.23C2479.35 942.858 2426.89 888.204 2382.36 821.855C2361.17 789.855 2342.41 756.979 2326.32 723.622C2305.39 680.765 2286.49 635.465 2264.93 589.75C2243.37 544.034 2218.17 497.51 2192.91 460.056" stroke="url(#paint29_linear_1_274)" stroke-width="0.55" stroke-miterlimit="10"/>
<path opacity="0.29" d="M2637.84 2830.37C2706.11 2780.95 2794.13 2723.88 2855.89 2622.49C2891.71 2563.74 2918.87 2487.57 2932.99 2407.4C2944.46 2341.89 2945.74 2270.56 2932.4 2196.17C2927.38 2167.9 2920.18 2139.15 2908.09 2111.81C2879.52 2047.19 2829.19 1998.29 2782.43 1959.82C2768.72 1948.57 2754.97 1937.84 2741.26 1927.78C2712.68 1906.91 2683.22 1887.79 2653.14 1870.62C2640.22 1863.3 2627.51 1855.3 2615.08 1846.67C2591.27 1829.98 2567.86 1808.47 2557.2 1778.25C2545.23 1744.72 2557.17 1721.45 2571.77 1704.96C2576.7 1699.4 2582.13 1694.3 2588.02 1689.71C2604.18 1677.25 2619.43 1666.49 2634.76 1655.99C2650.1 1645.49 2665.75 1634.8 2681.11 1623.99C2720 1596.6 2762.32 1566.33 2773.26 1498.95C2779.94 1457.56 2771.86 1403.08 2752.49 1345.46C2739.98 1307.84 2722.83 1270.28 2701.47 1233.74C2656.09 1157.18 2599.69 1096.73 2543.42 1039.15C2488.26 982.752 2433.32 928.23 2386.83 861.489C2364.78 829.376 2345.27 796.265 2328.56 762.597C2306.76 719.588 2287.31 673.995 2265.67 627.996C2245.21 583.59 2221.36 539.696 2194.39 496.787" stroke="url(#paint30_linear_1_274)" stroke-width="0.54" stroke-miterlimit="10"/>
<path opacity="0.27" d="M2616.93 2865.71C2693.05 2817.76 2787.57 2762.87 2854.31 2662.4C2892.84 2604.44 2922.14 2528.64 2936.93 2447.8C2949.01 2382.05 2950.28 2310.31 2936.03 2235.26C2930.71 2206.75 2923.12 2177.73 2910.39 2150.13C2880.34 2084.89 2827.54 2035.75 2778.47 1997.47C2764.07 1986.25 2749.65 1975.62 2735.21 1965.6C2705.13 1944.83 2674.21 1925.98 2642.74 1909.23C2629.31 1902.13 2616.07 1894.27 2603.1 1885.71C2578.36 1869.18 2554.31 1847.7 2543.4 1817.32C2531.26 1783.53 2544.01 1760.36 2559.86 1744.18C2565.22 1738.67 2571.11 1733.69 2577.5 1729.28C2595.12 1717.17 2612.05 1706.82 2628.65 1696.28C2645.24 1685.73 2662.69 1675.53 2679.6 1664.96C2722.43 1638.21 2768.78 1608.54 2782.29 1540.88C2790.62 1499.29 2783.43 1444.4 2764.24 1386.36C2751.86 1348.49 2734.52 1310.67 2712.69 1273.97C2666.47 1197.11 2608.05 1136.75 2549.53 1079.2C2492.23 1022.77 2434.74 968.264 2386.36 901.192C2363.43 869.001 2343.14 835.684 2325.77 801.723C2303.55 758.592 2283.6 712.716 2261.86 666.403C2241.24 621.584 2217.67 577.199 2191.32 533.607" stroke="url(#paint31_linear_1_274)" stroke-width="0.54" stroke-miterlimit="10"/>
<path opacity="0.24" d="M2591.37 2901.25C2675.38 2854.8 2776.36 2802.04 2848.1 2702.47C2889.31 2645.32 2920.79 2569.88 2936.5 2488.67C2949.21 2422.75 2950.48 2350.55 2935.47 2274.68C2929.86 2245.92 2921.82 2216.58 2908.47 2188.75C2876.94 2122.88 2821.71 2073.58 2770.32 2035.46C2755.25 2024.27 2740.13 2013.7 2724.97 2003.75C2693.4 1983.08 2661.04 1964.49 2628.19 1948.14C2614.24 1941.25 2600.46 1933.54 2586.95 1925.07C2561.21 1908.69 2536.46 1887.26 2525.43 1856.69C2513.1 1822.67 2526.68 1799.57 2543.75 1783.68C2549.54 1778.26 2555.88 1773.41 2562.74 1769.18C2581.87 1757.48 2600.19 1747.26 2618.63 1737.09C2637.08 1726.91 2655.76 1716.8 2674.23 1706.48C2721.04 1680.33 2771.55 1651.44 2787.48 1583.34C2797.33 1541.67 2791.17 1486.3 2772.18 1427.88C2759.93 1389.77 2742.38 1351.67 2720.09 1314.83C2672.85 1237.6 2612.46 1177.29 2551.54 1119.78C2492.02 1063.4 2432.02 1008.95 2381.8 941.483C2357.98 909.218 2336.91 875.676 2318.94 841.396C2295.72 797.769 2275.16 751.713 2253.32 705.139C2232.48 659.86 2209.13 614.941 2183.41 570.635" stroke="url(#paint32_linear_1_274)" stroke-width="0.53" stroke-miterlimit="10"/>
<path opacity="0.22" d="M2560.98 2936.97C2652.86 2892.05 2760.3 2841.38 2837.08 2742.78C2883.09 2682.28 2914.9 2610.23 2931.16 2529.68C2944.48 2463.58 2945.75 2390.88 2929.95 2314.31C2924 2285.29 2915.55 2255.69 2901.56 2227.54C2868.56 2161.1 2810.94 2111.66 2757.2 2073.66C2741.4 2062.51 2725.59 2051.98 2709.74 2042.07C2676.65 2021.55 2642.83 2003.23 2608.6 1987.27C2594.13 1980.61 2579.82 1973.06 2565.75 1964.66C2539.14 1948.5 2513.64 1927.08 2502.43 1896.28C2490.01 1862.17 2504.39 1838.99 2522.75 1823.5C2528.97 1818.1 2535.76 1813.32 2543.09 1809.21C2563.63 1797.91 2583.47 1787.9 2603.4 1778.06C2623.32 1768.22 2643.6 1758.19 2663.57 1748.06C2714.28 1722.52 2768.68 1694.13 2787.35 1625.88C2798.76 1584.04 2793.57 1528.25 2774.79 1469.42C2762.7 1431.06 2744.97 1392.7 2722.23 1355.7C2674 1278.03 2611.68 1217.77 2548.52 1160.22C2486.77 1103.84 2424.29 1049.4 2372.24 981.658C2347.58 949.355 2325.73 915.642 2307.09 881.096C2282.99 837.194 2261.88 790.918 2239.94 743.836C2218.97 698.185 2195.93 652.821 2170.91 607.916" stroke="url(#paint33_linear_1_274)" stroke-width="0.53" stroke-miterlimit="10"/>
<path opacity="0.2" d="M2525.62 2972.98C2625.33 2929.55 2739.25 2880.94 2821.05 2783.35C2869.8 2724 2903.57 2652.07 2920.78 2570.91C2934.76 2504.63 2936 2431.49 2919.37 2354.19C2913.14 2324.9 2904.25 2295.02 2889.63 2266.59C2855.2 2199.48 2795.11 2149.92 2739.04 2112.09C2722.56 2100.98 2706.04 2090.5 2689.48 2080.67C2654.9 2060.25 2619.64 2042.17 2584.04 2026.62C2569.07 2020.16 2554.22 2012.75 2539.61 2004.44C2512.07 1988.48 2485.78 1967.07 2474.44 1936.1C2461.76 1901.59 2477.02 1878.68 2496.47 1863.35C2503.21 1858.09 2510.53 1853.48 2518.37 1849.56C2540.39 1838.64 2561.77 1828.9 2583.22 1819.28C2604.67 1809.65 2626.63 1799.99 2648.1 1790.05C2702.78 1765.05 2761.16 1737.32 2782.41 1668.78C2795.41 1626.8 2791.14 1570.56 2772.6 1511.38C2760.68 1472.75 2742.77 1434.09 2719.58 1396.91C2670.36 1318.85 2606.01 1258.7 2540.63 1201.07C2476.68 1144.73 2411.72 1090.3 2357.69 1022.19C2332.19 989.752 2309.58 955.771 2290.29 920.865C2265.48 876.716 2243.92 830.043 2221.85 782.913C2199.79 735.783 2176.55 687.54 2153.58 645.456" stroke="url(#paint34_linear_1_274)" stroke-width="0.52" stroke-miterlimit="10"/>
<path opacity="0.17" d="M2484.95 3009.16C2592.55 2967.23 2712.93 2920.72 2799.74 2824.07C2851.16 2765.92 2886.88 2694.16 2905.1 2612.45C2919.72 2546.01 2920.92 2472.37 2903.49 2394.36C2896.95 2364.85 2887.62 2334.62 2872.39 2305.97C2836.41 2238.29 2773.97 2188.49 2715.54 2150.79C2698.46 2139.8 2681.25 2129.39 2663.92 2119.57C2627.82 2099.26 2591.1 2081.43 2554.1 2066.27C2538.63 2060.04 2523.25 2052.77 2508.1 2044.53C2479.51 2028.83 2452.63 2007.42 2441.11 1976.2C2428.25 1941.45 2444.31 1918.64 2464.99 1903.6C2472.18 1898.4 2479.97 1893.91 2488.31 1890.18C2511.8 1879.66 2534.71 1870.14 2557.66 1860.75C2580.62 1851.37 2604.06 1841.79 2627.21 1832.22C2685.8 1807.88 2748.2 1780.7 2771.97 1711.82C2786.57 1669.68 2783.22 1613.01 2764.93 1553.46C2753.09 1514.59 2734.96 1475.69 2711.3 1438.39C2661.11 1359.91 2594.73 1299.8 2527.05 1242.19C2460.92 1185.86 2393.51 1131.41 2337.56 1062.99C2311.19 1030.51 2287.79 996.328 2267.83 961.117C2242.22 916.681 2220.14 869.745 2198.04 822.29C2175.94 774.835 2153.36 726.24 2130.83 683.177" stroke="url(#paint35_linear_1_274)" stroke-width="0.52" stroke-miterlimit="10"/>
<path opacity="0.15" d="M2438.85 3045.55C2554.31 3005.14 2681.2 2960.55 2772.95 2865.04C2827.1 2808.06 2864.85 2736.38 2884.09 2654.01C2899.33 2587.38 2900.54 2513.3 2882.28 2434.56C2875.39 2404.74 2865.66 2374.25 2849.82 2345.36C2812.34 2277.08 2747.52 2227.14 2686.8 2189.62C2668.93 2178.57 2651.01 2168.21 2633.06 2158.52C2595.48 2138.33 2557.31 2120.77 2518.96 2106.02C2502.97 2099.99 2487.04 2092.87 2471.32 2084.71C2441.91 2069.11 2414.18 2047.82 2402.5 2016.4C2389.46 1981.35 2406.25 1958.59 2428.29 1943.94C2435.93 1938.84 2444.19 1934.48 2452.97 1930.9C2477.92 1920.73 2502.45 1911.57 2526.84 1902.31C2551.24 1893.06 2576.33 1883.82 2601.03 1874.5C2663.58 1850.78 2729.86 1824.06 2756.44 1755.12C2772.54 1712.87 2770.21 1655.72 2752.16 1595.82C2740.48 1556.69 2722.17 1517.48 2698.07 1480.01C2646.84 1401.13 2578.51 1340.97 2508.55 1283.48C2440.27 1227.07 2370.33 1172.74 2312.46 1103.96C2285.29 1071.39 2261.17 1036.99 2240.58 1001.46C2214.22 956.748 2191.62 909.55 2169.42 861.781C2147.21 814.013 2124.7 765.161 2102.62 721.293" stroke="url(#paint36_linear_1_274)" stroke-width="0.51" stroke-miterlimit="10"/>
<path opacity="0.12" d="M2387.12 3082.2C2510.42 3043.29 2643.69 3000.79 2740.56 2906.25C2797.37 2850.46 2837.11 2778.89 2857.37 2695.87C2873.22 2629.11 2874.45 2554.54 2855.39 2475.09C2848.17 2444.99 2838.06 2414.29 2821.51 2385.08C2782.61 2316.18 2715.35 2266.08 2652.21 2228.63C2633.67 2217.65 2615.08 2207.35 2596.43 2197.72C2557.32 2177.62 2517.7 2160.32 2477.95 2145.98C2461.45 2140.15 2444.99 2133.18 2428.71 2125.12C2398.4 2109.71 2369.93 2088.48 2358.09 2056.81C2344.91 2021.59 2362.61 1999.01 2385.75 1984.46C2393.88 1979.44 2402.61 1975.21 2411.89 1971.77C2438.27 1962.03 2464.27 1953.03 2490.28 1944.08C2516.3 1935.13 2542.84 1926 2569.1 1916.92C2635.59 1893.84 2706 1867.87 2735.01 1798.5C2752.78 1756.08 2751.4 1698.45 2733.49 1638.23C2721.96 1598.86 2703.46 1559.37 2678.91 1521.77C2626.71 1442.47 2556.42 1382.42 2484.12 1324.86C2413.64 1268.48 2341.24 1214.14 2281.47 1145.03C2253.46 1112.39 2228.54 1077.76 2207.27 1041.9C2180.14 996.882 2157.02 949.421 2134.68 901.36C2112.35 853.299 2090.27 804.081 2068.67 759.242" stroke="url(#paint37_linear_1_274)" stroke-width="0.5" stroke-miterlimit="10"/>
<path opacity="0.07" d="M2265.36 3155.63C2404.4 3119.69 2550.67 3081.23 2657.51 2988.75C2719.47 2935.31 2763.19 2864.02 2785.66 2779.79C2802.68 2712.59 2803.99 2637.15 2783.27 2556.24C2775.44 2525.66 2764.45 2494.34 2746.71 2464.63C2704.81 2394.52 2632.73 2344.07 2564.91 2306.9C2545 2296.01 2525.01 2285.81 2504.95 2276.32C2462.83 2256.43 2420.3 2239.64 2377.81 2226.13C2360.34 2220.73 2342.84 2214.09 2325.48 2206.25C2293.35 2191.21 2263.41 2170.02 2251.19 2137.99C2237.65 2102.24 2257 2079.75 2282.58 2065.94C2291.62 2061.07 2301.31 2057.07 2311.55 2053.97C2340.86 2045.04 2369.89 2036.44 2398.95 2028C2428 2019.55 2457.7 2010.83 2487.04 2002.22C2561.41 1980.35 2639.74 1955.54 2674.04 1885.69C2694.89 1842.9 2695.47 1784.54 2677.99 1723.58C2666.73 1683.7 2647.83 1643.64 2622.39 1605.74C2568.17 1525.63 2493.87 1465.73 2417.05 1408.11C2342.14 1351.77 2264.8 1297.43 2201.17 1227.66C2171.54 1194.87 2145.08 1159.81 2122.43 1123.3C2093.81 1077.73 2069.58 1029.75 2047.1 981.053C2024.62 932.353 2003.27 882.526 1982.61 835.862" stroke="url(#paint38_linear_1_274)" stroke-width="0.49" stroke-miterlimit="10"/>
<path opacity="0.05" d="M2194.86 3192.56C2341.74 3158.11 2494.38 3121.53 2606.35 3030.24C2669.14 2979.01 2717.77 2907.06 2740.29 2821.87C2757.94 2754.52 2759.17 2678.62 2737.67 2596.99C2729.54 2566.11 2718.12 2534.49 2699.72 2504.54C2656.28 2433.75 2581.93 2383.22 2511.7 2346.17C2491.11 2335.32 2470.43 2325.19 2449.67 2315.79C2406.04 2296 2362.06 2279.45 2318.18 2266.33C2300.18 2261.13 2282.12 2254.6 2264.18 2246.8C2230.96 2231.89 2200.38 2210.85 2188.06 2178.56C2174.35 2142.56 2194.54 2120.2 2221.31 2106.64C2230.82 2101.87 2240.98 2098 2251.7 2095.07C2282.46 2086.49 2313.02 2078.16 2343.65 2069.89C2374.27 2061.63 2405.48 2053.19 2436.39 2044.83C2514.71 2023.58 2597.07 1999.37 2633.95 1929.24C2656.35 1886.28 2657.75 1827.4 2640.77 1766.24C2629.7 1726.16 2610.65 1685.85 2584.82 1647.85C2529.59 1567.3 2453.28 1507.5 2374.22 1449.88C2297.08 1393.54 2217.32 1339.22 2151.88 1269.21C2121.43 1236.37 2094.21 1201.1 2070.9 1164.26C2041.48 1118.4 2016.8 1070.1 1994.18 1021.18C1971.56 972.26 1950.66 922.045 1930.49 874.462" stroke="url(#paint39_linear_1_274)" stroke-width="0.49" stroke-miterlimit="10"/>
<path opacity="0.02" d="M2117.74 3229.44C2272.49 3196.51 2431.63 3161.9 2548.54 3071.7C2614.06 3021.16 2664.82 2949.68 2688.13 2864.12C2706.44 2796.59 2707.68 2720.2 2685.31 2637.87C2676.88 2606.75 2665.01 2574.81 2646.17 2544.76C2601.29 2473.41 2524.44 2422.67 2451.91 2385.76C2430.62 2374.97 2409.23 2364.89 2387.75 2355.52C2342.61 2335.87 2297.19 2319.59 2251.94 2306.83C2233.44 2301.85 2214.84 2295.48 2196.33 2287.76C2162.33 2273.15 2130.86 2252.03 2118.44 2219.55C2104.54 2183.32 2125.57 2161.08 2153.5 2147.75C2163.43 2143.03 2174 2139.21 2185.12 2136.32C2217.36 2128.18 2249.54 2120.11 2281.64 2112.12L2379.07 2087.72C2461.31 2067.06 2547.77 2043.52 2587.14 1973.12C2611.16 1929.99 2613.61 1870.78 2596.62 1809.03C2585.66 1768.65 2566.36 1728.01 2540.03 1689.84C2483.77 1608.87 2405.53 1549.07 2324.15 1491.49C2244.82 1435.23 2162.59 1380.85 2095.12 1310.41C2063.86 1277.5 2035.87 1242.01 2011.86 1204.84C1981.78 1158.62 1956.35 1110.04 1933.75 1060.93C1911.14 1011.81 1890.5 961.155 1870.76 912.614" stroke="url(#paint40_linear_1_274)" stroke-width="0.48" stroke-miterlimit="10"/>
<defs>
<linearGradient id="paint0_linear_1_274" x1="2346.56" y1="588.709" x2="1589.59" y2="1357.3" gradientUnits="userSpaceOnUse">
<stop stop-color="#FF629A" stop-opacity="0.94"/>
<stop offset="1" stop-color="#FFB834"/>
</linearGradient>
<linearGradient id="paint1_linear_1_274" x1="2348.92" y1="609.036" x2="1602.54" y2="1366.86" gradientUnits="userSpaceOnUse">
<stop stop-color="#FF629A" stop-opacity="0.94"/>
<stop offset="1" stop-color="#FFB834"/>
</linearGradient>
<linearGradient id="paint2_linear_1_274" x1="2352.41" y1="608.23" x2="1602.57" y2="1369.57" gradientUnits="userSpaceOnUse">
<stop stop-color="#FF629A" stop-opacity="0.94"/>
<stop offset="1" stop-color="#FFB834"/>
</linearGradient>
<linearGradient id="paint3_linear_1_274" x1="2359.39" y1="609.619" x2="1605.82" y2="1374.75" gradientUnits="userSpaceOnUse">
<stop stop-color="#FF629A" stop-opacity="0.94"/>
<stop offset="1" stop-color="#FFB834"/>
</linearGradient>
<linearGradient id="paint4_linear_1_274" x1="2369.77" y1="612.569" x2="1611.91" y2="1382.05" gradientUnits="userSpaceOnUse">
<stop stop-color="#FF629A" stop-opacity="0.94"/>
<stop offset="1" stop-color="#FFB834"/>
</linearGradient>
<linearGradient id="paint5_linear_1_274" x1="2383.01" y1="617.343" x2="1620.58" y2="1391.48" gradientUnits="userSpaceOnUse">
<stop stop-color="#FF629A" stop-opacity="0.94"/>
<stop offset="1" stop-color="#FFB834"/>
</linearGradient>
<linearGradient id="paint6_linear_1_274" x1="2399.05" y1="623.996" x2="1631.7" y2="1403.12" gradientUnits="userSpaceOnUse">
<stop stop-color="#FF629A" stop-opacity="0.94"/>
<stop offset="1" stop-color="#FFB834"/>
</linearGradient>
<linearGradient id="paint7_linear_1_274" x1="2417.71" y1="632.11" x2="1644.89" y2="1416.79" gradientUnits="userSpaceOnUse">
<stop stop-color="#FF629A" stop-opacity="0.94"/>
<stop offset="1" stop-color="#FFB834"/>
</linearGradient>
<linearGradient id="paint8_linear_1_274" x1="2438.4" y1="642.013" x2="1659.86" y2="1432.5" gradientUnits="userSpaceOnUse">
<stop stop-color="#FF629A" stop-opacity="0.94"/>
<stop offset="1" stop-color="#FFB834"/>
</linearGradient>
<linearGradient id="paint9_linear_1_274" x1="2461.09" y1="653.346" x2="1676.37" y2="1450.1" gradientUnits="userSpaceOnUse">
<stop stop-color="#FF629A" stop-opacity="0.94"/>
<stop offset="1" stop-color="#FFB834"/>
</linearGradient>
<linearGradient id="paint10_linear_1_274" x1="2485.55" y1="666.43" x2="1694.3" y2="1469.82" gradientUnits="userSpaceOnUse">
<stop stop-color="#FF629A" stop-opacity="0.94"/>
<stop offset="1" stop-color="#FFB834"/>
</linearGradient>
<linearGradient id="paint11_linear_1_274" x1="2511.59" y1="680.607" x2="1713.13" y2="1491.32" gradientUnits="userSpaceOnUse">
<stop stop-color="#FF629A" stop-opacity="0.94"/>
<stop offset="1" stop-color="#FFB834"/>
</linearGradient>
<linearGradient id="paint12_linear_1_274" x1="2538.7" y1="696.363" x2="1732.71" y2="1514.71" gradientUnits="userSpaceOnUse">
<stop stop-color="#FF629A" stop-opacity="0.94"/>
<stop offset="1" stop-color="#FFB834"/>
</linearGradient>
<linearGradient id="paint13_linear_1_274" x1="2566.93" y1="713.789" x2="1753.37" y2="1539.83" gradientUnits="userSpaceOnUse">
<stop stop-color="#FF629A" stop-opacity="0.94"/>
<stop offset="1" stop-color="#FFB834"/>
</linearGradient>
<linearGradient id="paint14_linear_1_274" x1="2594.98" y1="732.338" x2="1773.89" y2="1566.02" gradientUnits="userSpaceOnUse">
<stop stop-color="#FF629A" stop-opacity="0.94"/>
<stop offset="1" stop-color="#FFB834"/>
</linearGradient>
<linearGradient id="paint15_linear_1_274" x1="2623.63" y1="752.534" x2="1794.88" y2="1593.99" gradientUnits="userSpaceOnUse">
<stop stop-color="#FF629A" stop-opacity="0.94"/>
<stop offset="1" stop-color="#FFB834"/>
</linearGradient>
<linearGradient id="paint16_linear_1_274" x1="2652.23" y1="774.133" x2="1815.78" y2="1623.41" gradientUnits="userSpaceOnUse">
<stop stop-color="#FF629A" stop-opacity="0.94"/>
<stop offset="1" stop-color="#FFB834"/>
</linearGradient>
<linearGradient id="paint17_linear_1_274" x1="2680.51" y1="796.974" x2="1836.33" y2="1654.11" gradientUnits="userSpaceOnUse">
<stop stop-color="#FF629A" stop-opacity="0.94"/>
<stop offset="1" stop-color="#FFB834"/>
</linearGradient>
<linearGradient id="paint18_linear_1_274" x1="2708.26" y1="821.254" x2="1856.22" y2="1686.36" gradientUnits="userSpaceOnUse">
<stop stop-color="#FF629A" stop-opacity="0.94"/>
<stop offset="1" stop-color="#FFB834"/>
</linearGradient>
<linearGradient id="paint19_linear_1_274" x1="2735.22" y1="846.62" x2="1875.25" y2="1719.79" gradientUnits="userSpaceOnUse">
<stop stop-color="#FF629A" stop-opacity="0.94"/>
<stop offset="1" stop-color="#FFB834"/>
</linearGradient>
<linearGradient id="paint20_linear_1_274" x1="2761.11" y1="873.176" x2="1893.14" y2="1754.46" gradientUnits="userSpaceOnUse">
<stop stop-color="#FF629A" stop-opacity="0.94"/>
<stop offset="1" stop-color="#FFB834"/>
</linearGradient>
<linearGradient id="paint21_linear_1_274" x1="2785.48" y1="901.001" x2="1909.63" y2="1790.29" gradientUnits="userSpaceOnUse">
<stop stop-color="#FF629A" stop-opacity="0.94"/>
<stop offset="1" stop-color="#FFB834"/>
</linearGradient>
<linearGradient id="paint22_linear_1_274" x1="2808.49" y1="929.68" x2="1924.48" y2="1827.25" gradientUnits="userSpaceOnUse">
<stop stop-color="#FF629A" stop-opacity="0.94"/>
<stop offset="1" stop-color="#FFB834"/>
</linearGradient>
<linearGradient id="paint23_linear_1_274" x1="2829.54" y1="959.5" x2="1937.46" y2="1865.26" gradientUnits="userSpaceOnUse">
<stop stop-color="#FF629A" stop-opacity="0.94"/>
<stop offset="1" stop-color="#FFB834"/>
</linearGradient>
<linearGradient id="paint24_linear_1_274" x1="2848.39" y1="990.347" x2="1948.3" y2="1904.24" gradientUnits="userSpaceOnUse">
<stop stop-color="#FF629A" stop-opacity="0.94"/>
<stop offset="1" stop-color="#FFB834"/>
</linearGradient>
<linearGradient id="paint25_linear_1_274" x1="2864.95" y1="1022.06" x2="1956.73" y2="1944.21" gradientUnits="userSpaceOnUse">
<stop stop-color="#FF629A" stop-opacity="0.94"/>
<stop offset="1" stop-color="#FFB834"/>
</linearGradient>
<linearGradient id="paint26_linear_1_274" x1="2878.59" y1="1054.87" x2="1962.46" y2="1985.04" gradientUnits="userSpaceOnUse">
<stop stop-color="#FF629A" stop-opacity="0.94"/>
<stop offset="1" stop-color="#FFB834"/>
</linearGradient>
<linearGradient id="paint27_linear_1_274" x1="2889.37" y1="1088.47" x2="1965.28" y2="2026.74" gradientUnits="userSpaceOnUse">
<stop stop-color="#FF629A" stop-opacity="0.94"/>
<stop offset="1" stop-color="#FFB834"/>
</linearGradient>
<linearGradient id="paint28_linear_1_274" x1="2897.01" y1="1122.73" x2="1964.85" y2="2069.19" gradientUnits="userSpaceOnUse">
<stop stop-color="#FF629A" stop-opacity="0.94"/>
<stop offset="1" stop-color="#FFB834"/>
</linearGradient>
<linearGradient id="paint29_linear_1_274" x1="2901.33" y1="1157.77" x2="1961.05" y2="2112.47" gradientUnits="userSpaceOnUse">
<stop stop-color="#FF629A" stop-opacity="0.94"/>
<stop offset="1" stop-color="#FFB834"/>
</linearGradient>
<linearGradient id="paint30_linear_1_274" x1="2901.81" y1="1193.52" x2="1953.51" y2="2156.37" gradientUnits="userSpaceOnUse">
<stop stop-color="#FF629A" stop-opacity="0.94"/>
<stop offset="1" stop-color="#FFB834"/>
</linearGradient>
<linearGradient id="paint31_linear_1_274" x1="2898.31" y1="1229.91" x2="1941.96" y2="2200.94" gradientUnits="userSpaceOnUse">
<stop stop-color="#FF629A" stop-opacity="0.94"/>
<stop offset="1" stop-color="#FFB834"/>
</linearGradient>
<linearGradient id="paint32_linear_1_274" x1="2890.41" y1="1266.95" x2="1926.11" y2="2246.04" gradientUnits="userSpaceOnUse">
<stop stop-color="#FF629A" stop-opacity="0.94"/>
<stop offset="1" stop-color="#FFB834"/>
</linearGradient>
<linearGradient id="paint33_linear_1_274" x1="2878.17" y1="1304.48" x2="1905.84" y2="2291.73" gradientUnits="userSpaceOnUse">
<stop stop-color="#FF629A" stop-opacity="0.94"/>
<stop offset="1" stop-color="#FFB834"/>
</linearGradient>
<linearGradient id="paint34_linear_1_274" x1="2861.31" y1="1342.49" x2="1880.87" y2="2337.97" gradientUnits="userSpaceOnUse">
<stop stop-color="#FF629A" stop-opacity="0.94"/>
<stop offset="1" stop-color="#FFB834"/>
</linearGradient>
<linearGradient id="paint35_linear_1_274" x1="2839.29" y1="1380.94" x2="1850.8" y2="2384.59" gradientUnits="userSpaceOnUse">
<stop stop-color="#FF629A" stop-opacity="0.94"/>
<stop offset="1" stop-color="#FFB834"/>
</linearGradient>
<linearGradient id="paint36_linear_1_274" x1="2811.96" y1="1419.92" x2="1815.52" y2="2431.64" gradientUnits="userSpaceOnUse">
<stop stop-color="#FF629A" stop-opacity="0.94"/>
<stop offset="1" stop-color="#FFB834"/>
</linearGradient>
<linearGradient id="paint37_linear_1_274" x1="2779.2" y1="1459.03" x2="1774.65" y2="2478.99" gradientUnits="userSpaceOnUse">
<stop stop-color="#FF629A" stop-opacity="0.94"/>
<stop offset="1" stop-color="#FFB834"/>
</linearGradient>
<linearGradient id="paint38_linear_1_274" x1="2695.74" y1="1538.22" x2="1675.21" y2="2574.4" gradientUnits="userSpaceOnUse">
<stop stop-color="#FF629A" stop-opacity="0.94"/>
<stop offset="1" stop-color="#FFB834"/>
</linearGradient>
<linearGradient id="paint39_linear_1_274" x1="2644.92" y1="1578.1" x2="1616.18" y2="2622.62" gradientUnits="userSpaceOnUse">
<stop stop-color="#FF629A" stop-opacity="0.94"/>
<stop offset="1" stop-color="#FFB834"/>
</linearGradient>
<linearGradient id="paint40_linear_1_274" x1="2586.96" y1="1618" x2="1550.3" y2="2670.56" gradientUnits="userSpaceOnUse">
<stop stop-color="#FF629A" stop-opacity="0.94"/>
<stop offset="1" stop-color="#FFB834"/>
</linearGradient>
</defs>
</svg>
