<svg width="262" height="59" viewBox="0 0 262 59" fill="none" xmlns="http://www.w3.org/2000/svg">
<path d="M0 9.51978L7.86553 9.51978L7.86553 17.3853L-2.49937e-07 17.3853L0 9.51978Z" fill="#FD9C4A"/>
<path d="M88.0103 40.9819L76.2645 40.9819L76.2645 11.6173L88.0103 11.6173C92.3451 11.6173 95.9668 13.0296 98.8753 15.8542C101.812 18.6788 103.28 22.1606 103.28 26.2996C103.28 30.4386 101.812 33.9204 98.8753 36.745C95.9668 39.5696 92.3451 40.9819 88.0103 40.9819ZM88.0103 15.98L80.9628 15.98L80.9628 36.6192L88.0103 36.6192C90.9468 36.6192 93.4078 35.6264 95.3934 33.6407C97.3791 31.6551 98.3719 29.2081 98.3719 26.2996C98.3719 23.3911 97.3791 20.944 95.3934 18.9584C93.4078 16.9728 90.9468 15.98 88.0103 15.98Z" fill="#AB49AD"/>
<path d="M117.495 18.6228C120.32 18.6228 122.739 19.5877 124.752 21.5173L124.752 19.1682L129.115 19.1682L129.115 40.9819L124.752 40.9819L124.752 38.6327C122.739 40.5624 120.32 41.5273 117.495 41.5273C114.447 41.5273 111.888 40.4366 109.818 38.2552C107.777 36.1018 106.756 33.3751 106.756 30.075C106.756 26.775 107.777 24.0483 109.818 21.8949C111.888 19.7135 114.447 18.6228 117.495 18.6228ZM117.956 22.9856C116.083 22.9856 114.503 23.6707 113.216 25.0411C111.93 26.3555 111.286 28.0335 111.286 30.075C111.286 32.0886 111.93 33.7806 113.216 35.1509C114.531 36.4933 116.111 37.1645 117.956 37.1645C119.858 37.1645 121.452 36.4933 122.739 35.1509C124.025 33.7806 124.668 32.0886 124.668 30.075C124.668 28.0335 124.025 26.3555 122.739 25.0411C121.452 23.6707 119.858 22.9856 117.956 22.9856Z" fill="#AB49AD"/>
<path d="M132.21 22.9856L132.21 19.1682L135.524 19.1682L135.524 14.8474L139.887 14.8474L139.887 19.1682L145.676 19.1682L145.676 22.9856L139.887 22.9856L139.887 33.7246C139.887 34.5916 140.167 35.3187 140.726 35.906C141.285 36.4933 141.985 36.787 142.824 36.787L145.676 36.787L145.676 40.9819L142.488 40.9819C140.53 40.9819 138.88 40.3527 137.538 39.0942C136.196 37.7798 135.524 36.1857 135.524 34.3119L135.524 22.9856L132.21 22.9856Z" fill="#AB49AD"/>
<path d="M159.199 18.6228C162.023 18.6228 164.442 19.5877 166.456 21.5173L166.456 19.1682L170.819 19.1682L170.819 40.9819L166.456 40.9819L166.456 38.6327C164.442 40.5624 162.023 41.5273 159.199 41.5273C156.15 41.5273 153.591 40.4366 151.522 38.2552C149.48 36.1018 148.46 33.3751 148.46 30.075C148.46 26.775 149.48 24.0483 151.522 21.8949C153.591 19.7135 156.15 18.6228 159.199 18.6228ZM159.66 22.9856C157.786 22.9856 156.206 23.6707 154.92 25.0411C153.633 26.3555 152.99 28.0335 152.99 30.075C152.99 32.0886 153.633 33.7806 154.92 35.1509C156.234 36.4933 157.814 37.1645 159.66 37.1645C161.562 37.1645 163.156 36.4933 164.442 35.1509C165.729 33.7806 166.372 32.0886 166.372 30.075C166.372 28.0335 165.729 26.3555 164.442 25.0411C163.156 23.6707 161.562 22.9856 159.66 22.9856Z" fill="#AB49AD"/>
<path d="M180.999 30.1589L180.999 40.9819L176.301 40.9819L176.301 11.6173L189.305 11.6173C192.102 11.6173 194.437 12.4982 196.311 14.2601C198.213 16.022 199.163 18.2313 199.163 20.8881C199.163 23.5449 198.213 25.7542 196.311 27.5161C194.437 29.278 192.102 30.1589 189.305 30.1589L180.999 30.1589ZM189.305 15.98L180.999 15.98L180.999 25.7962L189.305 25.7962C190.704 25.7962 191.878 25.3347 192.829 24.4119C193.78 23.461 194.255 22.2864 194.255 20.8881C194.255 19.4898 193.78 18.3292 192.829 17.4063C191.878 16.4554 190.704 15.98 189.305 15.98Z" fill="#AB49AD"/>
<path d="M207.9 40.9819L203.538 40.9819L203.538 19.1682L207.9 19.1682L207.9 40.9819ZM203.663 15.9381C203.132 15.3787 202.866 14.6936 202.866 13.8825C202.866 13.0715 203.132 12.3863 203.663 11.827C204.223 11.2677 204.908 10.988 205.719 10.988C206.53 10.988 207.215 11.2677 207.775 11.827C208.334 12.3863 208.614 13.0715 208.614 13.8825C208.614 14.6936 208.334 15.3787 207.775 15.9381C207.215 16.4974 206.53 16.777 205.719 16.777C204.908 16.777 204.223 16.4974 203.663 15.9381Z" fill="#AB49AD"/>
<path d="M217.446 40.9819L213.083 40.9819L213.083 9.51978L217.446 9.51978L217.446 40.9819Z" fill="#AB49AD"/>
<path d="M233.115 41.5273C229.843 41.5273 227.117 40.4366 224.935 38.2552C222.754 36.0738 221.663 33.3471 221.663 30.075C221.663 26.803 222.754 24.0763 224.935 21.8949C227.117 19.7135 229.843 18.6228 233.115 18.6228C236.387 18.6228 239.114 19.7135 241.295 21.8949C243.505 24.0763 244.609 26.803 244.609 30.075C244.609 33.3471 243.505 36.0738 241.295 38.2552C239.114 40.4366 236.387 41.5273 233.115 41.5273ZM233.115 37.1645C235.129 37.1645 236.779 36.4933 238.065 35.1509C239.408 33.7806 240.079 32.0886 240.079 30.075C240.079 28.0615 239.408 26.3835 238.065 25.0411C236.779 23.6707 235.129 22.9856 233.115 22.9856C231.158 22.9856 229.508 23.6707 228.165 25.0411C226.851 26.4115 226.194 28.0894 226.194 30.075C226.194 32.0606 226.851 33.7526 228.165 35.1509C229.508 36.4933 231.158 37.1645 233.115 37.1645Z" fill="#AB49AD"/>
<path d="M246.667 22.9856L246.667 19.1682L249.981 19.1682L249.981 14.8474L254.344 14.8474L254.344 19.1682L261.142 19.1682L261.142 22.9856L254.344 22.9856L254.344 33.7246C254.344 34.5916 254.623 35.3187 255.183 35.906C255.742 36.4933 256.441 36.787 257.28 36.787L261.142 36.787L261.142 40.9819L256.945 40.9819C254.987 40.9819 253.337 40.3527 251.995 39.0942C250.652 37.7798 249.981 36.1857 249.981 34.3119L249.981 22.9856L246.667 22.9856Z" fill="#AB49AD"/>
<path fill-rule="evenodd" clip-rule="evenodd" d="M12.1151 3.76653C12.1151 3.7436 12.1152 3.72077 12.1154 3.69805L12.1151 3.69805L12.1151 0L15.7707 1.16163e-07L15.7707 0.057629C16.1233 0.0191655 16.5022 1.39408e-07 16.9077 1.52293e-07L37.2763 7.99532e-07C54.1361 1.33527e-06 63.2934 6.57432 63.2934 22.1883C63.2934 38.8295 54.2217 46.2256 37.2763 46.2256L27.2733 46.2256L27.2733 38.1708C27.2733 37.3655 27.6629 37.0299 28.3771 37.0299L42.0126 37.0299C52.2716 37.0299 56.1025 29.6475 56.1025 22.802C56.1025 15.5538 51.882 9.24524 42.0126 9.24524L19.5465 9.24524L19.5465 17.1645L42.3372 17.1645C46.4928 17.1645 48.3758 19.9162 48.3758 23.2047C48.3758 26.359 46.6226 29.4462 42.2723 29.4462L26.4941 29.4462C21.6893 29.4462 19.6115 31.5267 19.6115 36.6273L19.6115 46.2256L16.9077 46.2256L16.8281 46.2254L12.115 46.2254L12.115 40.9817L12.1151 40.9817L12.1151 3.76653ZM19.6115 46.2256L19.6115 46.2258L27.2733 46.2258L27.2733 46.2256L19.6115 46.2256Z" fill="url(#paint0_linear_1_418)"/>
<path d="M19.2269 50.689L27.0924 50.689L27.0924 58.5545L19.2269 58.5545L19.2269 50.689Z" fill="#FF6E9B"/>
<defs>
<linearGradient id="paint0_linear_1_418" x1="6.05762" y1="9.59083" x2="55.5261" y2="54.0115" gradientUnits="userSpaceOnUse">
<stop offset="0.0572737" stop-color="#FDAB2F"/>
<stop offset="0.510417" stop-color="#FF629A" stop-opacity="0.94"/>
<stop offset="1" stop-color="#7C0DEB"/>
</linearGradient>
</defs>
</svg>
